<?xml version="1.0" encoding="utf-8"?>
<!-- Generator: Adobe Illustrator 26.0.2, SVG Export Plug-In . SVG Version: 6.00 Build 0)  -->
<svg version="1.1" id="Layer_1" xmlns="http://www.w3.org/2000/svg" xmlns:xlink="http://www.w3.org/1999/xlink" x="0px" y="0px"
	 viewBox="0 0 79.3 85.3" style="enable-background:new 0 0 79.3 85.3;" xml:space="preserve">
<style type="text/css">
	.st0{fill:#4E4F4F;}
	.st1{fill:#BB4097;}
	.st2{clip-path:url(#SVGID_00000095320829998522933170000004092888016740025745_);}
	.st3{fill:none;stroke:#BA4198;stroke-width:2.4153;stroke-miterlimit:10;}
	.st4{fill:none;stroke:#4E4F4F;stroke-width:2.4153;stroke-miterlimit:10;}
	.st5{fill:#AF499B;}
	.st6{fill:#BA4198;}
	.st7{fill:#FFFFFF;}
	.st8{fill:none;stroke:#4E4F4F;stroke-width:3.2761;stroke-miterlimit:10;}
	.st9{fill:none;stroke:#BA4198;stroke-width:3.2761;stroke-miterlimit:10;}
	.st10{fill:none;stroke:#4E4F4F;stroke-width:2.2267;stroke-miterlimit:10;}
	.st11{fill:none;stroke:#BA4198;stroke-width:2.2267;stroke-miterlimit:10;}
	.st12{fill:none;stroke:#BA4198;stroke-width:1.4844;stroke-miterlimit:10;}
	.st13{fill:#EEF3FA;}
	.st14{fill:#AC6B99;}
</style>
<g>
	<defs>
		<rect id="SVGID_1_" x="-855.3" y="-249.3" width="606.1" height="457.2"/>
	</defs>
	<clipPath id="SVGID_00000132068618628333656940000001452401824730804630_">
		<use xlink:href="#SVGID_1_"  style="overflow:visible;"/>
	</clipPath>
	
		<g id="yaYBPF_00000051359409725800586800000011177602046273407369_" style="clip-path:url(#SVGID_00000132068618628333656940000001452401824730804630_);">
		
			<image style="overflow:visible;" width="1599" height="899" id="yaYBPF_00000059292944738936562590000000655568382452863111_" xlink:href="1FAC044A5404E08E.jpg"  transform="matrix(1 0 0 1 -1368.6814 -528.3613)">
		</image>
	</g>
</g>
<ellipse transform="matrix(0.9732 -0.2298 0.2298 0.9732 -11.4895 14.9244)" class="st3" cx="58.3" cy="56.8" rx="14.4" ry="14.4"/>
<path class="st4" d="M64.4,58.8c-1.5,0-2.9,0-4.4,0c0,1.4,0,2.8,0,4.2c0,0.9-0.1,1.1-0.8,1.1c-0.6,0-1.2,0-1.9,0
	c-0.4,0-0.6-0.3-0.6-0.9c0-1.5,0-2.9,0-4.4c-1.5,0-2.9,0-4.4,0c-0.6,0-0.9-0.2-0.9-0.6c0-0.7,0-1.3,0-2c0-0.5,0.2-0.6,0.9-0.6
	c1.4,0,2.9,0,4.3,0c0-1.5,0-2.9,0-4.4c0-0.6,0.2-0.9,0.6-0.9c0.7,0,1.3,0,2,0c0.5,0,0.6,0.2,0.6,0.9c0,1.4,0,2.9,0,4.3
	c1.4,0,2.8,0,4.2,0c0.9,0,1.1,0.1,1.1,0.8c0,0.6,0,1.2,0,1.9C65.2,58.6,65,58.8,64.4,58.8z"/>
<path class="st3" d="M30.5,55.3c0,4.2,0,8.4,0,12.5c0,2-0.5,2.4-2.4,2.4c-1.9,0-3.8,0-5.8,0c-1.3,0-1.9-0.6-1.9-1.9
	c0-8.8,0-17.5,0-26.3c0-1.3,0.6-1.9,1.9-1.9c2.1,0,4.1,0,6.2,0c1.5,0,2,0.5,2,2.1C30.5,46.7,30.5,51,30.5,55.3z"/>
<path class="st4" d="M16.3,59.5c0,3,0,6,0,9.1c0,1.4-0.5,1.7-2.4,1.7c-1.9,0-3.8,0-5.8,0c-1.3,0-1.9-0.4-1.9-1.4c0-6.3,0-12.6,0-19
	c0-0.9,0.6-1.4,1.9-1.4c2.1,0,4.1,0,6.2,0c1.5,0,2,0.3,2,1.5C16.3,53.2,16.3,56.4,16.3,59.5z"/>
<path class="st4" d="M44.7,45.4c0-1,0-2,0-3c0-0.1,0-0.2,0-0.3c0-0.6,0-1.3,0-1.9c0-0.2,0-0.5,0-0.7c0-2.3,0-4.7,0-7.2
	c1.7,0,3.1,0,4.6,0c1.3-0.1,1.7-0.8,1-1.9c-3.2-5.1-6.4-10.3-9.6-15.4c-0.7-1.1-1.5-1.1-2.3,0c-3.2,5.1-6.4,10.2-9.5,15.3
	c-0.7,1.2-0.3,2,1.2,2c1.5,0,2.9,0,4.5,0c0,0.8,0,1.4,0,2c0,11.3,0,22.5,0,33.8c0,1.5,0.3,2,1.4,2.2c0.2,0,0.4,0.1,0.6,0.1
	c0.2,0,0.4,0,0.7,0c1.4,0,2.8,0,4.2,0c0.3,0,0.6,0,0.9,0c1.9,0,2.4-0.4,2.4-2.1c-2.6-3.1-4.1-7.1-4.1-11.4
	C40.5,52.5,42.1,48.5,44.7,45.4z"/>
</svg>
