<?xml version="1.0" encoding="utf-8"?>
<!-- Generator: Adobe Illustrator 26.0.2, SVG Export Plug-In . SVG Version: 6.00 Build 0)  -->
<svg version="1.1" id="Layer_1" xmlns="http://www.w3.org/2000/svg" xmlns:xlink="http://www.w3.org/1999/xlink" x="0px" y="0px"
	 viewBox="0 0 79.3 85.3" style="enable-background:new 0 0 79.3 85.3;" xml:space="preserve">
<style type="text/css">
	.st0{fill:#4E4F4F;}
	.st1{fill:#BB4097;}
	.st2{clip-path:url(#SVGID_00000149371987771134580540000016159638457850046367_);}
	.st3{fill:none;stroke:#4E4F4F;stroke-width:1.3314;stroke-miterlimit:10;}
	.st4{fill:#AF499B;}
	.st5{fill:#BA4198;}
	.st6{fill:#FFFFFF;}
	.st7{fill:none;stroke:#4E4F4F;stroke-width:3.2761;stroke-miterlimit:10;}
	.st8{fill:none;stroke:#BA4198;stroke-width:3.2761;stroke-miterlimit:10;}
	.st9{fill:none;stroke:#4E4F4F;stroke-width:1.3277;stroke-miterlimit:10;}
	.st10{fill:none;stroke:#4E4F4F;stroke-width:0.8851;stroke-miterlimit:10;}
	.st11{fill:#EEF3FA;}
	.st12{fill:#AC6B99;}
</style>
<path class="st0" d="M-24.7-54.8c-2.8-2.8-6.3-4.1-10.3-4.1c-2.9,0-5.4,0.7-7.7,2.1c1.2,1.1,2,2.3,2.5,3.6c0.2,0.4,0.3,0.9,0.4,1.4
	c1.3-1,2.9-1.5,4.8-1.5c2.4,0,4.4,0.8,5.9,2.4c1.5,1.6,2.2,3.7,2.2,6.3c0,2.6-0.7,4.7-2.2,6.3c-1.5,1.6-3.4,2.4-5.9,2.4
	c-2.4,0-4.4-0.8-5.9-2.4c-1.3-1.4-2-3.2-2.1-5.5l-0.1-2.9c0-0.5,0-1-0.1-1.5l0,0l0,0c-0.1-1.4-0.3-2.6-0.7-3.4
	c-0.5-1.4-1.5-2.7-2.8-3.8c-2.1-1.8-4.8-2.8-8-2.8c-3.3,0-6,0.9-8.1,2.8c-0.1,0.1-0.3,0.2-0.4,0.4c-0.1-0.1-0.3-0.2-0.4-0.4
	c-2.1-1.8-4.8-2.8-8-2.8c-3.3,0-6,0.9-8.1,2.8c-1.3,1.1-2.2,2.4-2.7,3.8c-0.5,1.6-0.8,3.5-0.8,5.6v15.7h6.3v-15.6
	c0-4.5,1.8-6.7,5.3-6.7c3.5,0,5.3,2.2,5.3,6.7v15.6h0h6.2h0v-15.6c0-4.5,1.8-6.7,5.3-6.7c3.5,0,5.3,2.2,5.3,6.6c0,0.4,0,0.7,0,1.1
	c0,4.2,1.4,7.6,4.1,10.4c2.7,2.8,6.1,4.2,10.2,4.2c4.1,0,7.6-1.4,10.4-4.1c2.8-2.7,4.2-6.1,4.2-10.2C-20.5-48.6-21.9-52-24.7-54.8z"
	/>
<path class="st1" d="M-96.1-54.3c0-1.1,0.4-2,1.2-2.8c0.8-0.8,1.8-1.2,2.9-1.2c1.1,0,2.1,0.4,2.9,1.2c0.8,0.8,1.2,1.7,1.2,2.9
	c0,1.1-0.4,2.1-1.2,2.9c-0.8,0.8-1.7,1.2-2.9,1.2c-1.1,0-2.1-0.4-2.9-1.2C-95.7-52.2-96.1-53.2-96.1-54.3z"/>
<path class="st0" d="M-17.7-34.4l2.8-4.3c3,2.2,6.2,3.4,9,3.4c2.7,0,4.3-1.2,4.3-3v-0.1c0-2.1-2.9-2.9-6.2-3.9
	c-4.1-1.2-8.6-2.8-8.6-8.1v-0.1c0-5.2,4.3-8.4,9.8-8.4c3.5,0,7.2,1.2,10.1,3.1l-2.5,4.5c-2.7-1.6-5.5-2.6-7.8-2.6
	c-2.5,0-3.9,1.2-3.9,2.8v0.1c0,2,3,2.8,6.2,3.9c4,1.3,8.6,3.1,8.6,8.1v0.1c0,5.8-4.5,8.7-10.3,8.7C-9.9-30.3-14.3-31.7-17.7-34.4z"
	/>
<path class="st0" d="M-89.2-48.2c-0.8,0.8-1.7,1.2-2.9,1.2c-1.1,0-2.1-0.4-2.9-1.2c-0.1-0.1-0.1-0.2-0.2-0.2v5.9
	c0,4.5-1.8,6.7-5.3,6.7c-3.3,0-5.1-2-5.3-6c0-0.2,0-0.4,0-0.6v-3.9V-47v-11.1h-6.3v1.1l0,0v14.6c0,0.2,0,0.4,0,0.7
	c-0.2,3.9-2,5.9-5.3,5.9c-3.4,0-5.2-2.1-5.3-6.4c0-0.1,0-0.1,0-0.2l0-15.7h0h-6.3h0v15.7c0,0.1,0,0.2,0,0.3
	c-0.1,4.2-1.9,6.3-5.3,6.3c-3.5,0-5.3-2.2-5.3-6.7l0-15.6h-6.3l0,15.7c0,2.5,0.3,4.4,0.8,5.6c0.5,1.4,1.5,2.7,2.8,3.8
	c2.1,1.8,4.8,2.8,8,2.8c3.3,0,6-0.9,8.1-2.8c0.1-0.1,0.3-0.2,0.4-0.4c0.1,0.1,0.3,0.2,0.4,0.4c2.1,1.8,4.8,2.8,8,2.8
	c3.3,0,6-0.9,8.1-2.8c0.1-0.1,0.2-0.2,0.4-0.3c0.1,0.1,0.3,0.2,0.4,0.4c2.1,1.8,4.8,2.8,8,2.8c3.3,0,6-0.9,8.1-2.8
	c1.3-1.1,2.2-2.4,2.7-3.8c0.5-1.6,0.8-3.5,0.8-5.6v-6.1C-89-48.4-89.1-48.3-89.2-48.2z"/>
<g>
	<defs>
		<rect id="SVGID_1_" x="-855.3" y="-249.3" width="606.1" height="457.2"/>
	</defs>
	<clipPath id="SVGID_00000070107150378174351100000007206893365414212253_">
		<use xlink:href="#SVGID_1_"  style="overflow:visible;"/>
	</clipPath>
	
		<g id="yaYBPF_00000051359409725800586800000011177602046273407369_" style="clip-path:url(#SVGID_00000070107150378174351100000007206893365414212253_);">
		
			<image style="overflow:visible;" width="1599" height="899" id="yaYBPF_00000059292944738936562590000000655568382452863111_" xlink:href="B424872F2EA90FB2.jpg"  transform="matrix(1 0 0 1 -1368.6814 -528.3613)">
		</image>
	</g>
</g>
<g>
	<path class="st3" d="M298.7-50.5c-4.4,0-7.9,3.5-7.9,7.9s3.5,7.9,7.9,7.9s7.9-3.5,7.9-7.9S303.1-50.5,298.7-50.5z M302-41.5
		c-0.8,0-1.6,0-2.4,0c0,0.8,0,1.5,0,2.3c0,0.5-0.1,0.6-0.4,0.6c-0.3,0-0.7,0-1,0c-0.2,0-0.3-0.2-0.3-0.5c0-0.8,0-1.6,0-2.4
		c-0.8,0-1.6,0-2.4,0c-0.3,0-0.5-0.1-0.5-0.3c0-0.4,0-0.7,0-1.1c0-0.3,0.1-0.4,0.5-0.4c0.8,0,1.6,0,2.4,0c0-0.8,0-1.6,0-2.4
		c0-0.3,0.1-0.5,0.3-0.5c0.4,0,0.7,0,1.1,0c0.3,0,0.4,0.1,0.4,0.5c0,0.8,0,1.6,0,2.4c0.8,0,1.5,0,2.3,0c0.5,0,0.6,0.1,0.6,0.4
		c0,0.3,0,0.7,0,1C302.5-41.6,302.3-41.5,302-41.5z"/>
	<path class="st3" d="M283.3-43.4c0,2.3,0,4.6,0,6.9c0,1.1-0.3,1.3-1.3,1.3c-1.1,0-2.1,0-3.2,0c-0.7,0-1.1-0.3-1.1-1
		c0-4.8,0-9.6,0-14.5c0-0.7,0.3-1,1-1c1.1,0,2.3,0,3.4,0c0.9,0,1.1,0.3,1.1,1.1C283.3-48.1,283.3-45.7,283.3-43.4z"/>
	<path class="st3" d="M275.5-41.1c0,1.7,0,3.3,0,5c0,0.8-0.3,1-1.3,1c-1.1,0-2.1,0-3.2,0c-0.7,0-1.1-0.2-1.1-0.7c0-3.5,0-7,0-10.5
		c0-0.5,0.3-0.8,1-0.7c1.1,0,2.3,0,3.4,0c0.9,0,1.1,0.2,1.1,0.8C275.5-44.5,275.5-42.8,275.5-41.1z"/>
	<path class="st3" d="M291.1-48.8c0-0.6,0-1.1,0-1.7c0-0.1,0-0.1,0-0.2c0-0.3,0-0.7,0-1.1c0-0.1,0-0.3,0-0.4c0-1.3,0-2.6,0-4
		c0.9,0,1.7,0,2.5,0c0.7,0,0.9-0.4,0.6-1c-1.7-2.8-3.5-5.7-5.3-8.5c-0.4-0.6-0.9-0.6-1.3,0c-1.8,2.8-3.5,5.6-5.2,8.4
		c-0.4,0.7-0.1,1.1,0.6,1.1c0.8,0,1.6,0,2.5,0c0,0.5,0,0.8,0,1.1c0,6.2,0,12.4,0,18.6c0,0.8,0.2,1.1,0.7,1.2c0.1,0,0.2,0,0.3,0
		c0.1,0,0.2,0,0.4,0c0.8,0,1.5,0,2.3,0c0.2,0,0.3,0,0.5,0c1,0,1.3-0.2,1.3-1.1c-1.4-1.7-2.3-3.9-2.3-6.3
		C288.9-44.9,289.7-47.1,291.1-48.8z"/>
</g>
<path class="st0" d="M17.3,25.2c-1.7,0-3.3,0-4.9,0c0-1.7,0-3.3,0-4.9c4.9,0,9.9,0,14.9,0c0-0.2,0-0.3,0-0.4c0-1,0-2.1,0.1-3.1
	c0.4-3.5,3.6-6.3,7.1-6.4c3.5,0,6.9,0,10.4,0c3.6,0,6.8,3,7.1,6.5c0.1,0.9,0.1,1.8,0.1,2.8c0,0.2,0,0.4,0,0.6c5,0,9.9,0,14.9,0
	c0,1.7,0,3.3,0,5c-1.6,0-3.3,0-5,0c0,0.2,0,0.3,0,0.4c0,12.3,0,24.5,0,36.8c0,1.7,0,3.5,0,5.2c0,3.4-2.7,6.6-6.1,7.1
	c-0.5,0.1-1.1,0.1-1.6,0.1c-9.8,0-19.7,0-29.5,0c-3.5,0-6.5-2.4-7.3-5.7c-0.1-0.6-0.2-1.2-0.2-1.9c0-5.8,0-11.7,0-17.5
	c0-5.9,0-11.8,0-17.8c0-2.1,0-4.2,0-6.3C17.3,25.6,17.3,25.4,17.3,25.2z M22.3,25.3c0,0.2,0,0.3,0,0.4c0,13.9,0,27.8,0,41.6
	c0,1.7,1,2.7,2.7,2.7c2.1,0,4.2,0,6.3,0c7.7,0,15.4,0,23.1,0c0.2,0,0.5,0,0.7-0.1c1.2-0.3,1.9-1.2,1.9-2.5c0-3.5,0-6.9,0-10.4
	c0-10.4,0-20.9,0-31.3c0-0.3-0.1-0.4-0.4-0.4c-2,0-3.9,0-5.9,0c-8.7,0-17.3,0-26,0C24,25.3,23.1,25.3,22.3,25.3z M47.1,20.3
	c0-0.8,0-1.5,0-2.3c0-1.7-1-2.6-2.7-2.7c-1.1,0-2.3,0-3.4,0c-2.1,0-4.2,0-6.2,0c-1.3,0-2.3,0.7-2.5,1.9c-0.1,1,0,2,0,3.1
	C37.2,20.3,42.1,20.3,47.1,20.3z"/>
<path class="st4" d="M37.2,30.2c0.9,0,1.7,0,2.5,0c0.7,0,1.4,0,2.1,0c0.3,0,0.3,0.1,0.3,0.3c0,3.3,0,6.6,0,9.8c0,5.9,0,11.8,0,17.8
	c0,2.2,0,4.3,0,6.5c0,0.2,0,0.3-0.3,0.3c-1.5,0-3.1,0-4.6,0c0,0-0.1,0-0.1,0C37.2,53.4,37.2,41.8,37.2,30.2z"/>
<path class="st4" d="M47.1,30.2c1.7,0,3.3,0,4.9,0c0,11.6,0,23.1,0,34.7c-1.6,0-3.3,0-4.9,0C47.1,53.4,47.1,41.8,47.1,30.2z"/>
<path class="st4" d="M27.3,30.2c1.6,0,3.3,0,4.9,0c0,11.6,0,23.1,0,34.7c-1.6,0-3.3,0-4.9,0C27.3,53.4,27.3,41.8,27.3,30.2z"/>
<g>
	<path class="st0" d="M-106.2,271.5c6.2,3.1,6.4,10.6,0,13.9c0.4,0.2,0.7,0.4,1,0.6c3.2,2.1,4.5,5.6,3.2,8.8
		c-1.3,3.2-4.8,5.4-8.8,5.4c-16.8,0-33.6,0-50.4,0c-4.1,0-7.8-2.3-8.9-5.5c-1.2-3.4,0.3-7,3.8-9c0.2-0.1,0.3-0.2,0.6-0.3
		c-3.1-1.6-4.8-3.9-4.8-6.9c0-3,1.7-5.3,4.7-6.9c-0.2-0.1-0.4-0.2-0.6-0.4c-3.8-2.2-5.2-6.4-3.3-10c0.8-1.5,1.2-3,1.6-4.6
		c1.7-5.4,3.3-10.8,4.9-16.1c0.9-2.8,3.7-4.7,7.2-4.7c9,0,18,0,27,0c4.1,0,8.3,0,12.4,0c4,0,6.8,1.9,7.7,5.2
		c1.6,5.9,3.1,11.7,4.7,17.6c0.1,0.4,0.3,0.7,0.6,1c3.6,3.8,2.6,9-2.2,11.7C-105.9,271.3-106,271.4-106.2,271.5z M-166,257.8
		c2.4-1.3,4.8-1.2,7.2-1.2c15.3,0,30.7,0,46,0c2,0,4,0,6,0.8c-0.1-0.3-0.1-0.5-0.2-0.8c-1.3-5.1-2.7-10.1-4-15.2
		c-0.7-2.5-2.5-3.8-5.5-3.8c-5.6,0-11.1,0-16.7,0c-7.5,0-15,0-22.5,0c-2.6,0-4.5,1.3-5.2,3.4c-0.7,2.2-1.4,4.4-2,6.6
		C-163.9,251-164.9,254.3-166,257.8z M-136,270.5c8.4,0,16.8,0,25.2,0c4.7,0,8-3.7,6.8-7.6c-0.9-2.6-3.6-4.3-7.1-4.3
		c-5.4,0-10.7,0-16.1,0c-11.2,0-22.5,0-33.7,0c-4.9,0-8.2,3.6-7.1,7.4c0.8,2.7,3.6,4.5,6.9,4.5C-152.7,270.5-144.4,270.5-136,270.5z
		 M-136,284.4c4,0,8,0,12,0c4.5,0,8.9,0,13.4,0c3.9,0,6.9-2.7,6.9-6c0-3.3-3.2-5.9-7.1-5.9c-16.8,0-33.6,0-50.4,0
		c-5.1,0-8.5,4.5-6.3,8.4c1.3,2.3,3.5,3.5,6.6,3.5C-152.7,284.4-144.3,284.4-136,284.4z M-136.1,286.4c-8.2,0-16.3,0-24.5,0
		c-0.7,0-1.3,0-2,0.1c-3.7,0.7-6,3.4-5.6,6.7c0.3,2.9,3.5,5.1,7.1,5.1c2.2,0,4.5,0,6.7,0c14.5,0,29,0,43.5,0c4.8,0,8.1-3.8,6.8-7.7
		c-0.7-2-3-4.3-7.4-4.3C-119.7,286.4-127.9,286.4-136.1,286.4z"/>
	<path class="st0" d="M-143.2,267.9c-2.2,0-3.9-1.5-3.9-3.3c0-1.8,1.8-3.3,3.9-3.3c2.2,0,3.9,1.5,3.9,3.3
		C-139.3,266.4-141,267.9-143.2,267.9z M-143.2,265.9c0.9,0,1.6-0.6,1.6-1.4c0-0.7-0.8-1.4-1.6-1.3c-0.8,0-1.5,0.6-1.5,1.3
		C-144.8,265.3-144.1,265.9-143.2,265.9z"/>
	<path class="st5" d="M-152.4,267.9c-2.2,0-3.9-1.4-3.9-3.3c0-1.9,1.7-3.3,3.9-3.3c2.1,0,3.9,1.5,3.9,3.3
		C-148.5,266.4-150.2,267.9-152.4,267.9z"/>
	<path class="st6" d="M-152.4,265.9c0.9,0,1.6-0.6,1.6-1.4c0-0.7-0.8-1.3-1.6-1.3c-0.8,0-1.6,0.6-1.6,1.4
		C-154,265.3-153.3,265.9-152.4,265.9z"/>
	<path class="st0" d="M-157.8,264.6c0,1.9-1.7,3.3-3.9,3.3c-2.2,0-3.9-1.5-3.9-3.3c0-1.8,1.8-3.3,3.9-3.2
		C-159.5,261.3-157.8,262.7-157.8,264.6z M-161.6,265.9c0.9,0,1.6-0.6,1.6-1.4c0-0.7-0.8-1.4-1.6-1.3c-0.8,0-1.6,0.7-1.6,1.4
		C-163.3,265.3-162.5,265.9-161.6,265.9z"/>
	<path class="st0" d="M-127.1,264.7c0-1.1,0-2.2,0-3.4c0-0.7,0.4-1.1,1.1-1.1c0.7,0,1.2,0.4,1.2,1.1c0,2.2,0,4.5,0,6.7
		c0,0.7-0.5,1.2-1.2,1.2c-0.7,0-1.1-0.5-1.1-1.2C-127.1,266.9-127.1,265.8-127.1,264.7z"/>
	<path class="st5" d="M-113.4,264.7c0,1.1,0,2.3,0,3.4c0,0.9-0.9,1.4-1.7,1c-0.3-0.2-0.6-0.7-0.6-1c-0.1-2.3,0-4.5,0-6.8
		c0-0.7,0.4-1.1,1.2-1.1c0.7,0,1.2,0.4,1.2,1.1C-113.4,262.4-113.4,263.6-113.4,264.7z"/>
	<path class="st0" d="M-119.1,264.7c0,1.1,0,2.2,0,3.4c0,0.7-0.4,1.1-1.1,1.1c-0.7,0-1.2-0.4-1.2-1.1c0-2.3,0-4.5,0-6.8
		c0-0.7,0.4-1.1,1.1-1.1c0.7,0,1.1,0.4,1.2,1.1C-119.1,262.5-119.1,263.6-119.1,264.7z"/>
	<path class="st0" d="M-143.2,281.8c-2.1,0-3.9-1.5-3.9-3.3c0-1.8,1.7-3.3,3.9-3.3c2.2,0,3.9,1.4,4,3.3
		C-139.3,280.2-141,281.7-143.2,281.8z M-143.2,277.1c-0.9,0-1.6,0.6-1.6,1.3c0,0.7,0.8,1.4,1.6,1.4c0.8,0,1.5-0.6,1.6-1.3
		C-141.6,277.7-142.3,277.1-143.2,277.1z"/>
	<path class="st0" d="M-157.8,278.4c0,1.9-1.7,3.3-3.9,3.3c-2.1,0-3.9-1.5-3.9-3.3c0-1.8,1.7-3.3,3.9-3.3
		C-159.5,275.2-157.8,276.6-157.8,278.4z M-161.6,277.1c-0.9,0-1.6,0.6-1.6,1.3c0,0.7,0.7,1.4,1.6,1.4c0.8,0,1.6-0.6,1.6-1.3
		C-160.1,277.7-160.7,277.1-161.6,277.1z"/>
	<path class="st5" d="M-152.4,275.2c2.2,0,3.9,1.5,3.9,3.3c0,1.8-1.8,3.3-3.9,3.3c-2.2,0-3.9-1.5-3.9-3.3
		C-156.3,276.6-154.6,275.1-152.4,275.2z M-154,278.4c0,0.7,0.7,1.4,1.6,1.4c0.8,0,1.6-0.7,1.6-1.4c0-0.7-0.7-1.3-1.6-1.3
		C-153.3,277.1-154,277.7-154,278.4z"/>
	<path class="st5" d="M-115.7,278.5c0-1.1,0-2.1,0-3.2c0-0.8,0.4-1.2,1.2-1.2c0.7,0,1.2,0.5,1.2,1.3c0,2.2,0,4.4,0,6.6
		c0,0.9-0.8,1.4-1.6,1.1c-0.6-0.2-0.7-0.6-0.7-1.1C-115.7,280.8-115.7,279.7-115.7,278.5z"/>
	<path class="st0" d="M-124.8,278.7c0,1,0,2,0,3c0,0.2,0,0.3,0,0.5c-0.1,0.6-0.6,1-1.2,0.9c-0.7,0-1.1-0.4-1.1-1c0-2.3,0-4.7,0-7
		c0-0.6,0.5-1,1.1-1c0.6,0,1.2,0.4,1.2,1.1C-124.8,276.3-124.8,277.5-124.8,278.7C-124.8,278.7-124.8,278.7-124.8,278.7z"/>
	<path class="st0" d="M-121.4,278.6c0-1.1,0-2.2,0-3.4c0-0.7,0.5-1.2,1.2-1.2c0.7,0,1.1,0.4,1.1,1.2c0,2.2,0,4.4,0,6.6
		c0,0.8-0.4,1.2-1.1,1.2c-0.7,0-1.1-0.4-1.1-1.2C-121.4,280.8-121.4,279.7-121.4,278.6C-121.4,278.6-121.4,278.6-121.4,278.6z"/>
	<path class="st0" d="M-143.2,295.6c-2.2,0-3.9-1.5-3.9-3.3c0-1.8,1.8-3.3,3.9-3.3c2.1,0,3.9,1.5,3.9,3.3
		C-139.3,294.1-141,295.6-143.2,295.6z M-144.7,292.2c0,0.8,0.6,1.4,1.5,1.4c0.9,0,1.6-0.5,1.7-1.3c0-0.7-0.6-1.4-1.5-1.4
		C-143.9,290.9-144.7,291.5-144.7,292.2z"/>
	<path class="st5" d="M-152.4,295.6c-2.2,0-3.9-1.4-3.9-3.3c0-1.9,1.7-3.3,3.9-3.3c2.1,0,3.9,1.5,3.9,3.3
		C-148.5,294.1-150.2,295.6-152.4,295.6z M-152.4,293.6c0.9,0,1.6-0.6,1.6-1.4c0-0.7-0.8-1.3-1.6-1.3c-0.9,0-1.6,0.7-1.5,1.4
		C-154,293.1-153.3,293.7-152.4,293.6z"/>
	<path class="st0" d="M-161.6,295.6c-2.2,0-3.9-1.4-3.9-3.3c0-1.8,1.8-3.3,3.9-3.3c2.1,0,3.8,1.5,3.9,3.3
		C-157.8,294.2-159.4,295.6-161.6,295.6z M-161.7,293.6c0.9,0,1.6-0.6,1.6-1.3c0-0.7-0.7-1.4-1.6-1.4c-0.8,0-1.6,0.6-1.6,1.4
		C-163.3,293-162.5,293.6-161.7,293.6z"/>
	<path class="st5" d="M-115.7,292.5c0-1.2-0.1-2.3,0-3.5c0-0.3,0.4-0.8,0.7-0.9c0.2-0.1,0.8,0,1.1,0.1c0.3,0.2,0.4,0.5,0.4,0.8
		c0,2.3,0,4.6,0,6.8c0,0.7-0.5,1.1-1.2,1.1c-0.7,0-1.1-0.5-1.1-1.1C-115.7,294.7-115.7,293.6-115.7,292.5
		C-115.7,292.5-115.7,292.5-115.7,292.5z"/>
	<path class="st0" d="M-127.1,292.4c0-1.1,0-2.2,0-3.3c0-0.8,0.4-1.2,1.2-1.2c0.7,0,1.2,0.4,1.2,1.2c0,2.2,0,4.4,0,6.6
		c0,0.7-0.5,1.2-1.2,1.2c-0.7,0-1.1-0.5-1.1-1.2C-127.1,294.6-127.1,293.5-127.1,292.4z"/>
	<path class="st0" d="M-121.4,292.4c0-1.1,0-2.2,0-3.3c0-0.7,0.4-1.2,1.2-1.2c0.7,0,1.1,0.4,1.1,1.2c0,2.2,0,4.4,0,6.6
		c0,0.8-0.4,1.3-1.2,1.2c-0.7,0-1.1-0.4-1.1-1.3C-121.4,294.6-121.4,293.5-121.4,292.4z"/>
</g>
<g>
	<path class="st7" d="M-143.1,192.8c0-0.8-0.5-1.7-1.5-2.4c-5.6-4.1-11.3-8.2-16.9-12.3c-2.1-1.6-4.2-3.2-6.5-4.7
		c-2.4-1.6-4.5-0.4-4.5,2.4c0,5.5,0,11,0,16.5c0,5.8,0,11.7,0,17.5c0,2.8,2.1,3.9,4.5,2.4c2.2-1.4,4.3-3.1,6.5-4.7
		c5.6-4.1,11.3-8.2,16.9-12.3C-143.6,194.5-143.1,193.6-143.1,192.8z"/>
	<path class="st8" d="M-124.8,194.1c0-3.6,0-7.1,0-10.7c0-0.1,0-0.2,0-0.4c0-2.7,0-5.4,0-8.1c0-1.6-0.8-2.2-2.5-2.2c-2,0-4,0-6,0
		c-1.9,0-2.6,0.7-2.6,2.4c0,2.7,0,5.3,0,8c0,0.1,0,0.3,0,0.4c0,3.5,0,7.1,0,10.6c0,4,0,8.1,0,12.1c0,0.2,0,0.3,0,0.4
		c0,1.4,0,2.8,0,4.1c0,1.5,0.7,2.1,2.6,2.1c2,0,4,0,6,0c1.8,0,2.5-0.6,2.5-2c0-1.4,0-2.8,0-4.2c0-0.1,0-0.3,0-0.4
		C-124.8,202.2-124.8,198.2-124.8,194.1z"/>
	<path class="st8" d="M-106.6,194.1c0-3.6,0-7.1,0-10.7c0-0.1,0-0.2,0-0.4c0-2.7,0-5.4,0-8.1c0-1.6-0.8-2.2-2.5-2.2c-2,0-4,0-6,0
		c-1.9,0-2.6,0.7-2.6,2.4c0,2.7,0,5.3,0,8c0,0.1,0,0.3,0,0.4c0,3.5,0,7.1,0,10.6c0,4,0,8.1,0,12.1c0,0.2,0,0.3,0,0.4
		c0,1.4,0,2.8,0,4.1c0,1.5,0.7,2.1,2.6,2.1c2,0,4,0,6,0c1.8,0,2.5-0.6,2.5-2c0-1.4,0-2.8,0-4.2c0-0.1,0-0.3,0-0.4
		C-106.6,202.2-106.6,198.2-106.6,194.1z"/>
</g>
<g>
	<path class="st9" d="M185.5-47.6c-2.7,1.7-4.3,4-4.6,7.1c-0.4,3.1,0.7,5.8,2.9,8c-6.1,0-12.1,0-18.1,0c0-5,0-10.1,0-15.1
		C172.2-47.6,178.8-47.6,185.5-47.6z"/>
	<path class="st9" d="M183.8-39.4c0-4.5,3.7-8.2,8.2-8.2c4.5,0,8.2,3.7,8.2,8.2c0,4.5-3.7,8.2-8.3,8.2
		C187.5-31.2,183.8-34.9,183.8-39.4z M190.3-37.2c-0.9-0.9-1.8-1.8-2.6-2.6c-0.3,0.3-0.6,0.6-0.9,0.9c1.2,1.2,2.4,2.4,3.5,3.5
		c2.4-2.4,4.7-4.7,7.1-7.1c-0.3-0.3-0.6-0.6-0.9-0.9C194.4-41.3,192.3-39.3,190.3-37.2z"/>
	<path class="st10" d="M192-63.6c-0.3,0.6-0.5,1.1-0.8,1.7c-0.9,1.9-1.7,3.7-2.6,5.6c-0.1,0.2-0.2,0.2-0.4,0.2c-3.9,0-7.7,0-11.6,0
		c-0.1,0-0.2,0-0.3,0c1.9-4,3.8-8.1,5.6-12.1C185.3-66.7,188.6-65.2,192-63.6z"/>
	<path class="st9" d="M176.1-60.3c-0.3,0.6-0.5,1.2-0.8,1.7c-0.5,1-1,2-1.4,3.1c-0.1,0.2-0.2,0.3-0.4,0.2c-0.2,0-0.4,0-0.7,0
		c0,0.4,0,0.8,0,1.2c5.9,0,11.8,0,17.7,0c0-0.2,0-0.5,0-0.7c0-0.3,0.1-0.6,0.2-0.9c0.4-0.8,0.8-1.6,1.2-2.5c1.7,2.6,3.3,5.3,4.9,7.9
		c-10.1,0-20.2,0-30.3,0c0.1-0.1,0.1-0.2,0.2-0.3c2-3.2,4-6.3,5.9-9.5c0.1-0.2,0.2-0.3,0.4-0.3C174.1-60.3,175.1-60.3,176.1-60.3z"
		/>
</g>
<path class="st0" d="M227-41.7c0-0.5,0-0.9,0-1.3c0-0.2-0.1-0.2-0.3-0.2c-0.9,0-1.8,0-2.8,0c-1.4,0-2.8-0.2-4.1-0.9
	c-2.5-1.3-4-3.3-4.4-6.1c-0.5-4.2,2.2-8,6.4-8.8c0.1,0,0.2-0.1,0.3-0.1c0.3,0,0.3-0.1,0.4-0.4c0.9-4,3.3-6.8,7-8.5
	c4.8-2.1,10.5-0.7,13.8,3.3c1.3,1.6,2.1,3.3,2.5,5.3c0,0.2,0.1,0.2,0.3,0.2c3.3,0.4,6.2,3.2,6.7,6.5c0.7,4.3-2.1,8.1-6,9.1
	c-0.6,0.2-1.3,0.2-1.9,0.2c-1.4,0-2.8,0-4.3,0c-0.6,0-1-0.3-1-1c0-1.2,0-2.4,0-3.6c0-0.6,0.3-0.9,0.9-0.9c0.5,0,0.9,0,1.4,0
	c-1.6-2.2-3.2-4.3-4.7-6.5c-1.6,2.2-3.1,4.3-4.7,6.5c0.3,0,0.4,0,0.6,0c0.3,0,0.6,0,0.8,0c0.5,0,0.9,0.3,0.9,0.9c0,1.9,0,3.9,0,5.8
	c0,0.1,0,0.2,0,0.3c0.5,0,0.9,0,1.3,0c0.6,0,1,0.2,1.2,0.7c0.2,0.5,0.1,1-0.2,1.4c-1.8,2.4-3.5,4.9-5.3,7.3
	c-0.5,0.6-1.1,0.8-1.7,0.5c-0.2-0.1-0.4-0.3-0.5-0.5c-1.7-2.3-3.4-4.7-5.1-7c-0.1-0.2-0.2-0.3-0.3-0.5c-0.3-0.4-0.3-0.9-0.1-1.3
	c0.2-0.4,0.6-0.7,1.1-0.7C226-41.7,226.5-41.7,227-41.7z M226.3-40c1.6,2.2,3.2,4.3,4.7,6.5c1.6-2.2,3.1-4.3,4.7-6.5
	c-0.5,0-0.9,0-1.3,0c-0.8,0.1-1.1-0.4-1.1-1.1c0-1.9,0-3.7,0-5.6c0-0.1,0-0.2,0-0.3c-0.5,0-0.9,0-1.4,0c-0.5,0-1-0.2-1.2-0.7
	c-0.3-0.5-0.2-1,0.1-1.4c1.8-2.5,3.6-4.9,5.4-7.4c0.1-0.1,0.2-0.3,0.4-0.4c0.6-0.4,1.3-0.2,1.8,0.4c1.8,2.4,3.5,4.9,5.3,7.3
	c0.3,0.5,0.4,0.9,0.2,1.5c-0.3,0.5-0.7,0.7-1.3,0.7c-0.4,0-0.8,0-1.3,0c0,0.6,0,1.2,0,1.9c0,0.3,0.1,0.3,0.3,0.3c1.1,0,2.2,0,3.4,0
	c0.4,0,0.9-0.1,1.3-0.2c3.3-0.8,5.4-3.9,4.8-7.2c-0.5-2.9-3.1-5.2-6-5.2c-0.5,0-0.8-0.3-0.9-0.8c0-0.3-0.1-0.7-0.2-1
	C243-64.6,238-68,232.6-67c-3.8,0.7-6.5,2.9-7.9,6.5c-0.3,0.7-0.4,1.5-0.6,2.3c-0.1,0.5-0.4,0.8-0.9,0.8c-0.2,0-0.3,0-0.5,0
	c-3.8,0.4-6.4,4.2-5.4,7.9c0.7,2.7,3.2,4.7,6.1,4.7c1.4,0,2.9,0,4.3,0c0.7,0,1,0.3,1,1c0,1,0,2,0,2.9c0,0.6-0.3,0.9-0.9,0.9
	C227.3-40,226.9-40,226.3-40z"/>
<path class="st11" d="M197.3,137.8c-15.2,0-27.4,12.3-27.4,27.4c0,15.2,12.3,27.4,27.4,27.4c15.2,0,27.4-12.3,27.4-27.4
	C224.8,150.1,212.5,137.8,197.3,137.8L197.3,137.8z"/>
<g>
	<path class="st0" d="M-109.5,124.2c-0.6-0.5-0.9-0.8-1.3-1c-3-1.1-3.6-3.4-3.3-6.3c0.3-3.2,0.1-6.4,0.1-9.6c0-2-0.9-2.9-2.9-2.9
		c-16.7,0-33.3,0-50,0c-1.9,0-2.9,0.9-2.9,2.6c0,9.8,0,19.6,0,29.4c0,0.2,0.1,0.3,0.1,0.8c5.5-6.2,10.8-12.2,16.3-18.3
		c2.7,2.8,5.4,5.6,8.1,8.5c-0.9,1.3-1.7,2.5-2.5,3.6c-1.9-1.7-3.7-3.4-5.7-5.1c-2,2.2-4.1,4.6-6.2,7c-3.1,3.5-6.3,7.1-9.4,10.6
		c-0.9,1.1-1.2,5.6-0.2,6.5c0.6,0.6,1.6,0.9,2.5,0.9c4.9,0.1,9.8,0.1,14.7,0c1.3,0,2.2,0.2,2.4,1.7c0.2,0.9,0.7,1.8,1.1,2.9
		c-2.3,0-4.3,0-6.4,0c-3.9,0-7.8,0-11.7,0c-4.9,0-7.7-2.9-7.7-7.8c0-13.4,0-26.8,0-40.2c0-4.6,2.9-7.6,7.4-7.6c16.7,0,33.4,0,50.1,0
		c4.2,0,7.2,2.7,7.4,6.8C-109.3,112.4-109.5,118.1-109.5,124.2z"/>
	<path class="st4" d="M-128.1,118.3c-2.6,0-4.5-2-4.5-4.6c0-2.5,2-4.5,4.5-4.5c2.5,0,4.6,2.1,4.6,4.6
		C-123.5,116.4-125.5,118.3-128.1,118.3z"/>
	<path class="st0" d="M-128,141.7c0-3.1,0-6.1,0-9.2c1.5,0,2.9,0,4.5,0c0,3,0,6,0,9.1c3.2,0,6.2,0,9.3,0c0,1.5,0,2.9,0,4.4
		c-3,0-6,0-9.2,0c0,3.2,0,6.2,0,9.3c-1.6,0-3,0-4.5,0c0-3,0-6,0-9.2c-3.1,0-6.1,0-9.1,0c0-1.6,0-2.9,0-4.5
		C-134.1,141.7-131.1,141.7-128,141.7z"/>
	<g>
		<path class="st4" d="M-125.7,164.3c-11.2,0-20.3-9.1-20.3-20.3c0-11.2,9.1-20.3,20.3-20.3s20.3,9.1,20.3,20.3
			C-105.3,155.2-114.5,164.3-125.7,164.3z M-125.7,127.4c-9.1,0-16.6,7.4-16.6,16.6c0,9.1,7.4,16.6,16.6,16.6
			c9.1,0,16.6-7.4,16.6-16.6C-109.1,134.8-116.5,127.4-125.7,127.4z"/>
	</g>
</g>
<path class="st4" d="M186,198.2c-1.6-0.4-2.9-1.7-3.3-3.3l-0.1-0.3l-0.1,0.3c-0.4,1.6-1.7,2.9-3.3,3.3l-0.3,0.1l0.3,0.1
	c1.6,0.4,2.9,1.7,3.3,3.3l0.1,0.3l0.1-0.3c0.4-1.6,1.7-2.9,3.3-3.3l0.3-0.1L186,198.2z"/>
<path class="st12" d="M207.1,152h-5.5l6.2,6.2v17.7c0,1.5-1.2,2.7-2.7,2.7h-17.7c-0.3,0-0.5,0-0.7-0.1c0.2,1.3,1.3,2.3,2.6,2.3h17.7
	c1.5,0,2.7-1.2,2.7-2.7v-23.5C209.8,153.2,208.6,152,207.1,152L207.1,152z"/>
<path class="st0" d="M199.5,149.8h-12c-1.5,0-2.7,1.2-2.7,2.7v6c0.9,0.7,1.7,1.7,1.9,3c0.4,1.9-0.3,3.8-1.8,5l1.2,8.4l-1.3,1.8l0,0
	c0.3,1.2,1.3,2,2.6,2h17.7c1.5,0,2.7-1.2,2.7-2.7v-17.7L199.5,149.8L199.5,149.8z"/>
<path class="st4" d="M138.2,83.6v5.8c0,1.5,1.2,2.7,2.7,2.7h5.8L138.2,83.6z"/>
<path class="st6" d="M195.1,154.3h-6.6c-0.4,0-0.6,0.3-0.6,0.6s0.3,0.6,0.6,0.6h6.6c0.4,0,0.6-0.3,0.6-0.6S195.4,154.3,195.1,154.3z
	 M197.6,158.3h-9.2c-0.4,0-0.6,0.3-0.6,0.6c0,0.4,0.3,0.6,0.6,0.6h9.2c0.4,0,0.6-0.3,0.6-0.6C198.3,158.6,198,158.3,197.6,158.3z
	 M203.4,162.3h-14.9c-0.4,0-0.6,0.3-0.6,0.6c0,0.4,0.3,0.6,0.6,0.6h14.9c0.4,0,0.6-0.3,0.6-0.6C204,162.5,203.7,162.3,203.4,162.3z
	 M203.4,166.2h-14.9c-0.4,0-0.6,0.3-0.6,0.6c0,0.4,0.3,0.6,0.6,0.6h14.9c0.4,0,0.6-0.3,0.6-0.6C204,166.5,203.7,166.2,203.4,166.2z
	 M203.4,170.2h-14.9c-0.4,0-0.6,0.3-0.6,0.6s0.3,0.6,0.6,0.6h14.9c0.4,0,0.6-0.3,0.6-0.6S203.7,170.2,203.4,170.2z M203.4,174.2
	h-14.9c-0.4,0-0.6,0.3-0.6,0.6s0.3,0.6,0.6,0.6h14.9c0.4,0,0.6-0.3,0.6-0.6S203.7,174.2,203.4,174.2z"/>
<path class="st4" d="M186.8,161.4c-0.6-2.7-3.2-4.4-5.9-3.8c-2.7,0.6-4.4,3.2-3.8,5.9c0.4,1.9,1.9,3.3,3.7,3.8l1.2,4.3l1.4,0.9
	l-0.7,1.1l1.1,0.7l-0.7,1.1l0,0l1.9,1.1l1.3-1.8l-1.2-8.4C186.4,165.2,187.2,163.3,186.8,161.4L186.8,161.4z M181.9,162.5
	c-1,0.2-2-0.4-2.3-1.5c-0.2-1,0.4-2,1.5-2.3c1-0.2,2,0.4,2.3,1.5C183.6,161.3,182.9,162.3,181.9,162.5z"/>
</svg>
