<svg class="svg-icon" style="width: 1em; height: 1em;vertical-align: middle;fill: currentColor;overflow: hidden;" viewBox="0 0 1024 1024" version="1.1" xmlns="http://www.w3.org/2000/svg">
  <path d="M511.998 81.856c-237.554 0-430.138 192.588-430.138 430.148 0 237.548 192.584 430.136 430.138 430.136 237.556 0 430.142-192.588 430.142-430.136 0-237.56-192.586-430.148-430.142-430.148z" fill="#EDF3FC" />
  <path d="M511.998 2.002C230.784 2.002 2 230.784 2 512.004 2 793.212 230.784 1022 511.998 1022 793.214 1022 1022 793.212 1022 512.004 1022 230.784 793.214 2.002 511.998 2.002z m0 1003.654C239.794 1005.656 18.34 784.202 18.34 512.004 18.34 239.794 239.794 18.336 511.998 18.336c272.206 0 493.662 221.458 493.662 493.668 0 272.198-221.456 493.652-493.662 493.652z" fill="#bd3bb1" />
  <path d="M850.036 653.522a47.694 47.694 0 0 1-34.648-34.642l-0.726-2.914-0.726 2.914a47.688 47.688 0 0 1-34.648 34.642l-2.914 0.736 2.914 0.728a47.668 47.668 0 0 1 34.648 34.642l0.726 2.914 0.726-2.914a47.672 47.672 0 0 1 34.648-34.642l2.922-0.728-2.922-0.736z" fill="#bb3f96" />
  <path d="M766.044 321.332a57.736 57.736 0 0 1-41.964-41.96l-0.882-3.526-0.878 3.526a57.748 57.748 0 0 1-41.964 41.96l-3.532 0.882 3.532 0.882a57.76 57.76 0 0 1 41.964 41.968l0.878 3.52 0.882-3.52a57.746 57.746 0 0 1 41.964-41.968l3.532-0.882-3.532-0.882z" fill="#bb3f96" />
  <path d="M351.478 510.822a33.466 33.466 0 0 1-24.34-24.336l-0.512-2.042-0.514 2.042a33.47 33.47 0 0 1-24.338 24.336l-2.04 0.512 2.04 0.512a33.46 33.46 0 0 1 24.338 24.34l0.514 2.04 0.512-2.04a33.46 33.46 0 0 1 24.34-24.34l2.04-0.512-2.04-0.512zM287.944 563.828a75.65 75.65 0 0 1-54.992-54.984l-1.152-4.618-1.168 4.618a75.614 75.614 0 0 1-54.972 54.984l-4.614 1.16 4.614 1.16a75.572 75.572 0 0 1 54.972 54.978l1.168 4.616 1.152-4.616a75.606 75.606 0 0 1 54.992-54.978l4.618-1.16-4.618-1.16z" fill="#4d4e4e" />
  <path d="M648.568 351.924c-2.124-1.73-4.474-2.282-6.812-2.15-3.912 28.252-6.648 39.22-6.648 39.22s-0.092-0.324-0.248-0.92c0.316 8.9 0.326 16.902 0.258 23.476 1.954 0.458 4.054 0.484 6-0.46 5.964-2.914 11.426-26.362 13.422-33.938 1.992-7.572 2.604-18.252-5.972-25.228zM396.646 406.252s-5.944-23.302-8.056-38.692c-0.344-2.506-3.074-9.052-6.26-17.772a9.41 9.41 0 0 0-5.584 2.134c-8.576 6.976-7.958 17.656-5.97 25.228 1.992 7.576 7.46 31.024 13.426 33.938 4.694 2.288 10.302-1.058 12.48-2.588l0.016-2.588c0.128-0.848 0.486-3.302 0.924-6.974v-0.008a222.426 222.426 0 0 1-0.976 7.322zM570.708 526.194c-1.718-5.36-2.74-13.51-3.292-19.844-11.318 5.7-23.064 10.094-32.388 14.408-7.906 3.656-33.784 4.54-43.606-0.026-7.256-3.378-15.868-8.256-24.62-13.796-0.686-0.214-1.296-0.442-1.722-0.694-0.426 6.53-1.498 13.346-3.618 19.952-2.45 7.64-17.714 13.906-34.522 20.12 0.846 1.168 3.61 4.824 8.186 9.576h163.27c4.652-4.984 7.284-8.726 7.862-9.576-18.008-5.652-32.68-11.176-35.55-20.12z" fill="#FFBE1B" />
  <path d="M634.86 388.062c-1.182-4.5-6.226-25.28-5.744-49.996 0.266-13.456 1.68-28.982 0.128-38.808-1.55-9.834-6.73-25.878-18.626-26.91 0 0-53.002 59.398-166.664 51.936-11.026-0.724-20.82-2.464-29.564-4.97-10.834 8.444-14.734 19.08-14.426 27.792 1.006 29.318-2.776 55.584-3.264 58.808a2213.3 2213.3 0 0 0-0.052 14.606c0 30.202 18.604 48.728 46.196 69.778 15.392 11.744 34.526 23.892 48.58 30.436 9.822 4.564 35.7 3.682 43.606 0.026 14.85-6.87 35.836-13.94 51.462-26.166 25.606-20.026 48.414-42.704 48.414-68.182-0.002-6.428 0.584-20.608-0.046-38.35z" fill="#FFE37B" />
  <path d="M629.11 339.062l-6.836-0.756v0.02c-6.466-1.43-13.41-1.99-19.938-2.44-5.542-0.386-11.094-0.632-16.648-0.882-10.692-0.48-21.364-0.248-31.992 1.098-6.5 0.822-12.93 1.996-19.176 4.016-3.16 1.024-6.262 2.21-9.422 3.214-4.934 1.564-9.996 2.266-15.118 1.306-3.078-0.578-6.114-1.458-9.102-2.426-5.4-1.746-10.798-3.468-16.4-4.5-10.894-2.012-21.87-2.936-32.108-2.822-8.342 0.01-15.836 0.294-23.3 1.192-6.118 0.734-12.23 1.55-18.342 2.382-0.782 0.108-1.418 0.204-1.958 0.32v-0.002l-8.012 0.676a28.78 28.78 0 0 0-0.796 7.644c0.084 2.406 0.13 4.79 0.154 7.142l7.256 1.042c1.506 1.68 3.434 3.4 4.098 5.296 2.492 7.112 3.68 14.61 5.368 21.938 1.034 4.488 2.382 8.878 4.53 12.986 9.356 17.904 37.624 15.09 53.626 10.258 4.096-1.24 7.966-2.966 11.25-5.762a51.584 51.584 0 0 0 12.156-15.18c2.916-5.482 4.98-11.348 6.9-17.236 1.432-4.392 2.914-10.212 8.408-11.056a12.92 12.92 0 0 1 2.694-0.122c6.144 0.358 7.184 6.356 8.774 11.26a106.374 106.374 0 0 0 9.376 20.942c11.696 19.972 40.816 24.01 61.39 17.87 14.41-4.304 17.54-20.178 20.578-32.952 1.176-4.956 1.626-12.352 4.684-16.536 0.592-0.808 1.208-1.588 1.976-2.192l6.362-0.664a181.226 181.226 0 0 1-0.432-15.074z m-132.838 30.75c-2.18 9.282-6.554 19.456-13.57 26.14-3.388 3.236-7.468 5.144-11.946 6.318-10.674 2.802-22.202 3.1-32.912 0.376-3.682-0.946-6.478-3.09-8.6-6.252-7.25-10.8-9.33-29.156-6.454-41.626 1.262-5.472 4.648-8.964 10.09-10.388 15.33-4.018 33.03-4.332 48.486-0.772 6.248 1.44 14.43 3.888 15.686 11.368 0.85 5.004 0.364 9.938-0.78 14.836z m112.97-2.338c-0.262 10.486-1.672 24-10.64 30.884-6.156 4.726-14.52 5.092-22.278 4.944-7.77-0.152-15.794-0.696-22.708-4.238-6.296-3.23-11.21-8.79-14.484-15.06-3.27-6.276-4.996-13.256-5.964-20.266-0.712-5.098-0.8-10.932 2.774-14.638 2.074-2.152 5.04-3.17 7.918-3.992 15.652-4.458 32.324-5.13 48.36-2.356 4.18 0.724 8.46 1.74 11.852 4.282 6.15 4.614 5.346 13.55 5.17 20.44z" fill="#330D84" />
  <path d="M634.684 220.422c-13.116-15.972-29.498-24.108-47.62-21.886-13.792-17.95-35.642-31.568-70.342-29.572-54.53 3.138-147.194 49.04-145.09 125.24-2.812 29.362 16.012 66.492 16.958 73.358 2.112 15.388 8.056 38.692 8.056 38.692s4.392-27.836 3.316-59.146c-0.306-8.712 3.594-19.35 14.426-27.792 8.744 2.506 18.54 4.246 29.564 4.97 113.662 7.462 166.664-51.936 166.664-51.936 11.894 1.032 17.074 17.076 18.626 26.91 1.552 9.826 0.138 25.354-0.128 38.808-0.544 27.964 5.992 50.928 5.992 50.928s3.096-12.402 7.408-44.814c2.466-18.532 26.938-81.42-7.83-123.76z" fill="#330D84" />
  <path d="M426.024 546.444l-39.52 9.448h48.68c-6.112-5.44-9.16-9.448-9.16-9.448zM605.788 546.63s-2.81 3.92-8.614 9.262h46.678l-38.064-9.262zM754.148 756.132l-20.704-129.22c-4.818-26.966-25.998-50.206-53.814-61.306a19.246 19.246 0 0 1 2.578 9.622v188.346c0 10.682-8.656 19.34-19.336 19.34H367.716c-10.68 0-19.338-8.658-19.338-19.34v-188.346c0-3.718 1.068-7.18 2.888-10.13-28.778 10.784-50.862 34.47-55.8 62.096l-20.654 128.942c-4.666 29.122 17.83 55.51 47.324 55.51h384.688c29.492-0.002 51.988-26.39 47.324-55.514z" fill="#bd3bb1" />
  <path d="M662.87 555.89H367.716c-10.68 0-19.338 8.658-19.338 19.336v188.346c0 10.682 8.66 19.34 19.338 19.34h295.156c10.68 0 19.336-8.658 19.336-19.34v-188.346c-0.002-10.678-8.658-19.336-19.338-19.336z" fill="#4d4e4e" />
  <path d="M489.278 647.242l-33.514 15.794v9.444l33.514 15.794v-10.208l-22.136-10.48 22.136-10.206zM525.136 639.45l-28.894 63.236h9.722l28.962-63.236zM541.826 647.242v10.138l22.132 10.206-22.132 10.48v10.208l33.514-15.794v-9.444z" fill="#FFFFFF" />
  <path d="M670.39 782.912H360.192a11.814 11.814 0 0 0-11.814 11.816v5.102a11.812 11.812 0 0 0 11.814 11.814h310.198a11.816 11.816 0 0 0 11.816-11.814v-5.102a11.82 11.82 0 0 0-11.816-11.816z" fill="#5932AE" />
</svg>