<svg class="svg-icon" style="width: 1em; height: 1em;vertical-align: middle;fill: currentColor;overflow: hidden;" viewBox="0 0 1024 1024" version="1.1" xmlns="http://www.w3.org/2000/svg"><path d="M256 256v608a32 32 0 0 0 32 32h448a32 32 0 0 0 32-32V256z m480 704H288a96 96 0 0 1-96-96V224a32 32 0 0 1 32-32h576a32 32 0 0 1 32 32v640a96 96 0 0 1-96 96z"  /><path d="M160 256a32 32 0 0 1 0-64h704a32 32 0 0 1 0 64z m192 192a32 32 0 0 1 64 0v256a32 32 0 0 1-64 0z m128 0a32 32 0 0 1 64 0v256a32 32 0 0 1-64 0z m128 0a32 32 0 0 1 64 0v256a32 32 0 0 1-64 0z"  /><path d="M647.04 128H376.96l-16 64h302.08zM704 256H320a32 32 0 0 1-32-39.68l32-128A32 32 0 0 1 352 64h320a32 32 0 0 1 32 24.32l32 128A32 32 0 0 1 704 256z"  /></svg>