<?xml version="1.0" encoding="utf-8"?>
<!-- Generator: Adobe Illustrator 26.0.2, SVG Export Plug-In . SVG Version: 6.00 Build 0)  -->
<svg version="1.1" id="Layer_1" xmlns="http://www.w3.org/2000/svg" xmlns:xlink="http://www.w3.org/1999/xlink" x="0px" y="0px"
	 viewBox="0 0 79.3 85.3" style="enable-background:new 0 0 79.3 85.3;" xml:space="preserve">
<style type="text/css">
	.st0{fill:#4E4F4F;}
	.st1{fill:#BB4097;}
	.st2{clip-path:url(#SVGID_00000079477775433086594740000012312667919802917019_);}
	.st3{fill:none;stroke:#4E4F4F;stroke-width:1.3314;stroke-miterlimit:10;}
	.st4{fill:#AF499B;}
	.st5{fill:#BA4198;}
	.st6{fill:#FFFFFF;}
	.st7{fill:none;stroke:#4E4F4F;stroke-width:3.2761;stroke-miterlimit:10;}
	.st8{fill:none;stroke:#BA4198;stroke-width:3.2761;stroke-miterlimit:10;}
	.st9{fill:none;stroke:#4E4F4F;stroke-width:2.2267;stroke-miterlimit:10;}
	.st10{fill:none;stroke:#BA4198;stroke-width:2.2267;stroke-miterlimit:10;}
	.st11{fill:none;stroke:#BA4198;stroke-width:1.4844;stroke-miterlimit:10;}
	.st12{fill:#EEF3FA;}
	.st13{fill:#AC6B99;}
</style>
<g>
	<defs>
		<rect id="SVGID_1_" x="-855.3" y="-249.3" width="606.1" height="457.2"/>
	</defs>
	<clipPath id="SVGID_00000006673627106128049200000015736354558433559473_">
		<use xlink:href="#SVGID_1_"  style="overflow:visible;"/>
	</clipPath>
	
		<g id="yaYBPF_00000051359409725800586800000011177602046273407369_" style="clip-path:url(#SVGID_00000006673627106128049200000015736354558433559473_);">
		
			<image style="overflow:visible;" width="1599" height="899" id="yaYBPF_00000059292944738936562590000000655568382452863111_" xlink:href="A11C2E7B2B9F0E1.jpg"  transform="matrix(1 0 0 1 -1368.6814 -528.3613)">
		</image>
	</g>
</g>
<g>
	<path class="st0" d="M74.2,44.5c-0.3,1.1-0.5,2.2-0.9,3.3c-2,4.6-5.4,7.4-10.4,8c-2.1,0.3-4.3,0.1-6.5,0.2c-0.6,0-1.1,0-1.7,0
		c-0.9,0-1.5-0.6-1.5-1.4c0-0.8,0.6-1.4,1.4-1.4c1.8,0,3.6,0,5.5,0c1.9,0,3.8-0.2,5.5-1c3.8-1.9,5.8-5.1,5.9-9.3
		c0.1-5.6-4.1-9.5-8.5-10.2c-1.2-0.2-1.5-0.4-1.7-1.7c-1.3-6.6-5.1-11.1-11.4-13.5c-0.9-0.4-1.3-1.1-1-1.9c0.3-0.8,1.1-1.1,2-0.7
		c6.8,2.6,11.1,7.4,12.9,14.4c0.1,0.5,0.4,0.8,0.9,0.9c5.3,1.7,8.5,5.2,9.5,10.7c0,0.1,0.1,0.2,0.1,0.3
		C74.2,42.3,74.2,43.4,74.2,44.5z"/>
	<path class="st0" d="M21.8,56c-2.8,0.2-5.8-0.4-8.5-1.9c-5.4-2.9-8.7-8.9-8.1-15c0.6-6.9,6-12.6,13-13.8c2.3-0.4,4.5-0.3,6.7,0.3
		c0.5,0.1,0.7,0,1-0.4c2.5-5,6.3-8.4,11.5-10.4c1.2-0.4,2.2,0.4,2,1.5c-0.1,0.7-0.7,1-1.2,1.2c-2.1,0.8-4,1.9-5.7,3.4
		c-2.1,1.9-3.7,4.2-4.7,6.8c-0.4,1.2-1.1,1.4-2.3,1c-0.1,0-0.2-0.1-0.3-0.1c-6.1-2.2-12.8,0.4-15.8,6.1c-3.9,7.5,0.8,16.8,9.2,18.1
		c1.9,0.3,3.8,0.2,5.8,0.3c0.3,0,0.7,0,1,0.1c0.6,0.2,1,0.9,0.9,1.4c-0.1,0.7-0.6,1.2-1.4,1.3C24,56,23.1,56,21.8,56z"/>
	<path class="st5" d="M46.6,42.5c-0.3,0.3-0.4,0.4-0.6,0.6c-1.7,1.7-3.4,3.4-5.1,5.1c-0.6,0.5-1.2,0.7-1.8,0.3
		c-0.6-0.3-0.8-0.8-0.7-1.5c0.1-0.3,0.3-0.6,0.5-0.9c2.7-2.7,5.4-5.4,8-8.1c0.7-0.7,1.5-0.7,2.2,0c2.7,2.7,5.4,5.4,8,8
		c0.7,0.7,0.7,1.5,0.1,2.1c-0.6,0.6-1.4,0.5-2.1-0.1c-1.7-1.7-3.4-3.4-5.1-5.1c-0.2-0.2-0.3-0.4-0.4-0.5c-0.1,0-0.2,0.1-0.2,0.1
		c0,0.3,0,0.5,0,0.8c0,8.2,0,16.3,0,24.5c0,0.4,0,0.7-0.1,1.1c-0.2,0.7-0.7,1.2-1.4,1.1c-0.7,0-1.2-0.6-1.3-1.3c0-0.2,0-0.5,0-0.7
		c0-8.2,0-16.4,0-24.6C46.6,43.2,46.6,43,46.6,42.5z"/>
	<path class="st5" d="M32.9,66.7c1.9-1.9,3.6-3.6,5.4-5.4c0.2-0.2,0.4-0.4,0.6-0.6c0.6-0.5,1.3-0.4,1.8,0c0.5,0.5,0.6,1.3,0.2,1.9
		c-0.1,0.2-0.3,0.3-0.4,0.4c-2.5,2.5-5.1,5.1-7.6,7.6c-1,1-1.6,1-2.6,0c-2.6-2.6-5.2-5.2-7.8-7.8c-0.4-0.4-0.7-0.9-0.6-1.5
		c0.3-1.1,1.5-1.5,2.4-0.7c0.7,0.7,1.4,1.4,2.1,2.1c1,1,2.1,2.1,3.1,3.1c0.2,0.1,0.3,0.3,0.6,0.5c0-0.4,0-0.7,0-0.9
		c0-8.1,0-16.3,0-24.4c0-0.3,0-0.7,0.1-1c0.2-0.8,0.7-1.2,1.5-1.1c0.7,0,1.2,0.6,1.3,1.3c0,0.2,0,0.5,0,0.7c0,8.2,0,16.4,0,24.6
		C32.9,66,32.9,66.3,32.9,66.7z"/>
	<path class="st5" d="M44,16.5c-0.8,0-1.4-0.6-1.4-1.4c0-0.8,0.6-1.4,1.4-1.3c0.8,0,1.3,0.6,1.3,1.4C45.4,15.9,44.8,16.5,44,16.5z"
		/>
</g>
</svg>
