<?xml version="1.0" encoding="utf-8"?>
<!-- Generator: Adobe Illustrator 26.0.2, SVG Export Plug-In . SVG Version: 6.00 Build 0)  -->
<svg version="1.1" id="Layer_1" xmlns="http://www.w3.org/2000/svg" xmlns:xlink="http://www.w3.org/1999/xlink" x="0px" y="0px"
	 viewBox="0 0 150 150" style="enable-background:new 0 0 150 150;" xml:space="preserve">
<style type="text/css">
	.st0{fill:#4E4F4F;}
	.st1{fill:#BB4097;}
	.st2{clip-path:url(#SVGID_00000106116891327609486170000001131700020693695884_);}
	.st3{fill:none;stroke:#4E4F4F;stroke-width:1.3314;stroke-miterlimit:10;}
	.st4{fill:none;stroke:#4E4F4F;stroke-width:1.8357;stroke-miterlimit:10;}
	.st5{fill:none;stroke:#4E4F4F;stroke-width:1.3277;stroke-miterlimit:10;}
	.st6{fill:none;stroke:#4E4F4F;stroke-width:0.8851;stroke-miterlimit:10;}
	.st7{fill:#EEF3FA;}
	.st8{fill:#AF499B;}
	.st9{fill:none;stroke:#AF499B;stroke-width:4.3195;stroke-miterlimit:10;}
	.st10{fill:#AC6B99;}
	.st11{fill:#FFFFFF;}
</style>
<g>
	<defs>
		<rect id="SVGID_1_" x="-709.5" y="-226" width="606.1" height="457.2"/>
	</defs>
	<clipPath id="SVGID_00000083057817114075592910000011549009606665046207_">
		<use xlink:href="#SVGID_1_"  style="overflow:visible;"/>
	</clipPath>
	
		<g id="yaYBPF_00000051359409725800586800000011177602046273407369_" style="clip-path:url(#SVGID_00000083057817114075592910000011549009606665046207_);">
		
			<image style="overflow:visible;" width="1599" height="899" id="yaYBPF_00000059292944738936562590000000655568382452863111_" xlink:href="5A26345189DC423F.jpg"  transform="matrix(1 0 0 1 -1222.9204 -505.0893)">
		</image>
	</g>
</g>
<g>
	<path class="st0" d="M111,62c-0.7-0.5-1.1-1-1.5-1.1c-3.5-1.3-4.1-3.9-3.8-7.3c0.3-3.6,0.1-7.3,0.1-11c0-2.3-1-3.3-3.4-3.3
		c-19.1,0-38.2,0-57.3,0c-2.2,0-3.3,1-3.3,3c0,11.2,0,22.5,0,33.7c0,0.2,0.1,0.3,0.2,0.9c6.3-7.1,12.4-14,18.7-21
		c3.1,3.2,6.2,6.5,9.3,9.8c-1,1.5-2,2.8-2.9,4.1c-2.1-1.9-4.3-3.9-6.5-5.9c-2.3,2.6-4.7,5.3-7.1,8c-3.6,4.1-7.2,8.1-10.8,12.2
		c-1.1,1.2-1.4,6.4-0.2,7.5c0.7,0.6,1.9,1.1,2.8,1.1c5.6,0.1,11.2,0.1,16.8,0c1.5,0,2.5,0.2,2.8,1.9c0.2,1.1,0.8,2.1,1.3,3.4
		c-2.6,0-5,0-7.3,0c-4.5,0-9,0-13.4,0c-5.6,0-8.9-3.3-8.9-9c0-15.4,0-30.8,0-46.2c0-5.3,3.3-8.7,8.5-8.7c19.2,0,38.4,0,57.5,0
		c4.8,0,8.3,3.1,8.4,7.9C111.1,48.5,111,55.1,111,62z"/>
	<path class="st8" d="M89.6,55.3c-3,0-5.2-2.3-5.1-5.3c0-2.9,2.3-5.1,5.2-5.1c2.9,0,5.3,2.4,5.3,5.3C94.9,53.1,92.6,55.3,89.6,55.3z
		"/>
	<path class="st0" d="M89.7,82.1c0-3.6,0-7,0-10.5c1.8,0,3.4,0,5.2,0c0,3.4,0,6.9,0,10.5c3.7,0,7.1,0,10.6,0c0,1.8,0,3.3,0,5.1
		c-3.5,0-6.9,0-10.6,0c0,3.6,0,7.1,0,10.6c-1.8,0-3.4,0-5.2,0c0-3.5,0-6.9,0-10.5c-3.6,0-7,0-10.5,0c0-1.8,0-3.4,0-5.2
		C82.7,82.1,86.2,82.1,89.7,82.1z"/>
	<circle class="st9" cx="92.4" cy="84.7" r="21.2"/>
</g>
</svg>
