<?xml version="1.0" encoding="utf-8"?>
<!-- Generator: Adobe Illustrator 26.0.2, SVG Export Plug-In . SVG Version: 6.00 Build 0)  -->
<svg version="1.1" id="Layer_1" xmlns="http://www.w3.org/2000/svg" xmlns:xlink="http://www.w3.org/1999/xlink" x="0px" y="0px"
	 viewBox="0 0 79.3 85.3" style="enable-background:new 0 0 79.3 85.3;" xml:space="preserve">
<style type="text/css">
	.st0{fill:#4E4F4F;}
	.st1{fill:#BB4097;}
	.st2{clip-path:url(#SVGID_00000178888510209679311820000008380731801928543105_);}
	.st3{fill:none;stroke:#4E4F4F;stroke-width:1.3314;stroke-miterlimit:10;}
	.st4{fill:none;stroke:#4E4F4F;stroke-width:1.8357;stroke-miterlimit:10;}
	.st5{fill:none;stroke:#4E4F4F;stroke-width:1.3277;stroke-miterlimit:10;}
	.st6{fill:none;stroke:#4E4F4F;stroke-width:0.8851;stroke-miterlimit:10;}
	.st7{fill:#EEF3FA;}
	.st8{fill:#AF499B;}
	.st9{fill:#AC6B99;}
	.st10{fill:#FFFFFF;}
</style>
<g>
	<defs>
		<rect id="SVGID_1_" x="-855.3" y="-249.3" width="606.1" height="457.2"/>
	</defs>
	<clipPath id="SVGID_00000028302526488116456180000004160173852237424530_">
		<use xlink:href="#SVGID_1_"  style="overflow:visible;"/>
	</clipPath>
	
		<g id="yaYBPF_00000051359409725800586800000011177602046273407369_" style="clip-path:url(#SVGID_00000028302526488116456180000004160173852237424530_);">
		
			<image style="overflow:visible;" width="1599" height="899" id="yaYBPF_00000059292944738936562590000000655568382452863111_" xlink:href="5DA7E67944A1868D.jpg"  transform="matrix(1 0 0 1 -1368.6814 -528.3613)">
		</image>
	</g>
</g>
<g>
	<path class="st0" d="M70.1,34.7c-0.6-0.5-0.9-0.8-1.3-1c-3-1.1-3.6-3.4-3.3-6.3c0.3-3.2,0.1-6.4,0.1-9.6c0-2-0.9-2.9-2.9-2.9
		c-16.7,0-33.3,0-50,0c-1.9,0-2.9,0.9-2.9,2.6c0,9.8,0,19.6,0,29.4c0,0.2,0.1,0.3,0.1,0.8c5.5-6.2,10.8-12.2,16.3-18.3
		c2.7,2.8,5.4,5.6,8.1,8.5c-0.9,1.3-1.7,2.5-2.5,3.6c-1.9-1.7-3.7-3.4-5.7-5.1c-2,2.2-4.1,4.6-6.2,7c-3.1,3.5-6.3,7.1-9.4,10.6
		c-0.9,1.1-1.2,5.6-0.2,6.5c0.6,0.6,1.6,0.9,2.5,0.9c4.9,0.1,9.8,0.1,14.7,0c1.3,0,2.2,0.2,2.4,1.7c0.2,0.9,0.7,1.8,1.1,2.9
		c-2.3,0-4.3,0-6.4,0c-3.9,0-7.8,0-11.7,0c-4.9,0-7.7-2.9-7.7-7.8c0-13.4,0-26.8,0-40.2c0-4.6,2.9-7.6,7.4-7.6c16.7,0,33.4,0,50.1,0
		c4.2,0,7.2,2.7,7.4,6.8C70.2,23,70.1,28.7,70.1,34.7z"/>
	<path class="st8" d="M51.4,28.9c-2.6,0-4.5-2-4.5-4.6c0-2.5,2-4.5,4.5-4.5c2.5,0,4.6,2.1,4.6,4.6C56.1,27,54.1,28.9,51.4,28.9z"/>
	<path class="st0" d="M51.6,52.3c0-3.1,0-6.1,0-9.2c1.5,0,2.9,0,4.5,0c0,3,0,6,0,9.1c3.2,0,6.2,0,9.3,0c0,1.5,0,2.9,0,4.4
		c-3,0-6,0-9.2,0c0,3.2,0,6.2,0,9.3c-1.6,0-3,0-4.5,0c0-3,0-6,0-9.2c-3.1,0-6.1,0-9.1,0c0-1.6,0-2.9,0-4.5
		C45.5,52.3,48.4,52.3,51.6,52.3z"/>
	<g>
		<path class="st8" d="M53.9,74.9c-11.2,0-20.3-9.1-20.3-20.3s9.1-20.3,20.3-20.3s20.3,9.1,20.3,20.3S65.1,74.9,53.9,74.9z M53.9,38
			c-9.1,0-16.6,7.4-16.6,16.6c0,9.1,7.4,16.6,16.6,16.6c9.1,0,16.6-7.4,16.6-16.6C70.4,45.4,63,38,53.9,38z"/>
	</g>
</g>
</svg>
