<svg class="svg-icon" style="width: 1em; height: 1em;vertical-align: middle;fill: currentColor;overflow: hidden;" viewBox="0 0 1024 1024" version="1.1" xmlns="http://www.w3.org/2000/svg"><path d="M618.496 335.872c21.504 56.32 31.744 115.712 31.744 181.248 0 52.224-10.24 109.568-31.744 171.008-3.072 8.192-11.264 13.312-19.456 13.312-2.048 0-4.096 0-7.168-1.024-10.24-4.096-16.384-15.36-12.288-25.6 19.456-57.344 29.696-109.568 29.696-156.672 0-60.416-9.216-115.712-29.696-166.912-4.096-10.24 1.024-22.528 11.264-26.624 11.264-5.12 23.552 1.024 27.648 11.264z m-186.368-12.288c-10.24-4.096-22.528 1.024-26.624 11.264-21.504 56.32-31.744 115.712-31.744 181.248 0 52.224 10.24 109.568 31.744 171.008 3.072 8.192 11.264 13.312 19.456 13.312 2.048 0 4.096 0 7.168-1.024 10.24-4.096 16.384-15.36 12.288-25.6-19.456-57.344-29.696-109.568-29.696-156.672 0-60.416 9.216-115.712 29.696-166.912 4.096-10.24-2.048-22.528-12.288-26.624zM972.8 512c0 253.952-206.848 460.8-460.8 460.8S51.2 765.952 51.2 512 258.048 51.2 512 51.2s460.8 206.848 460.8 460.8z m-40.96 0C931.84 280.576 743.424 92.16 512 92.16S92.16 280.576 92.16 512s188.416 419.84 419.84 419.84 419.84-188.416 419.84-419.84z"  /></svg>