<?xml version="1.0" encoding="utf-8"?>
<!-- Generator: Adobe Illustrator 26.0.2, SVG Export Plug-In . SVG Version: 6.00 Build 0)  -->
<svg version="1.1" id="Layer_1" xmlns="http://www.w3.org/2000/svg" xmlns:xlink="http://www.w3.org/1999/xlink" x="0px" y="0px"
	 viewBox="0 0 79.3 85.3" style="enable-background:new 0 0 79.3 85.3;" xml:space="preserve">
<style type="text/css">
	.st0{fill:#4E4F4F;}
	.st1{fill:#BB4097;}
	.st2{clip-path:url(#SVGID_00000112615056359823974040000011971006603536309154_);}
	.st3{fill:none;stroke:#4E4F4F;stroke-width:1.3314;stroke-miterlimit:10;}
	.st4{fill:none;stroke:#4E4F4F;stroke-width:3.2761;stroke-miterlimit:10;}
	.st5{fill:none;stroke:#BA4198;stroke-width:3.2761;stroke-miterlimit:10;}
	.st6{fill:none;stroke:#4E4F4F;stroke-width:1.3277;stroke-miterlimit:10;}
	.st7{fill:none;stroke:#4E4F4F;stroke-width:0.8851;stroke-miterlimit:10;}
	.st8{fill:#EEF3FA;}
	.st9{fill:#AF499B;}
	.st10{fill:#AC6B99;}
	.st11{fill:#FFFFFF;}
	.st12{fill:none;stroke:#BB4097;stroke-width:20;stroke-miterlimit:10;}
</style>
<g>
	<defs>
		<rect id="SVGID_1_" x="-855.3" y="-249.3" width="606.1" height="457.2"/>
	</defs>
	<clipPath id="SVGID_00000176036878902830727040000003610187087692141721_">
		<use xlink:href="#SVGID_1_"  style="overflow:visible;"/>
	</clipPath>
	
		<g id="yaYBPF_00000051359409725800586800000011177602046273407369_" style="clip-path:url(#SVGID_00000176036878902830727040000003610187087692141721_);">
		
			<image style="overflow:visible;" width="1599" height="899" id="yaYBPF_00000059292944738936562590000000655568382452863111_" xlink:href="4FA78D28FF087FB2.jpg"  transform="matrix(1 0 0 1 -1368.6814 -528.3613)">
		</image>
	</g>
</g>
<g>
	<path class="st4" d="M36.1,42.6c0-0.8-0.5-1.7-1.5-2.4C29,36.1,23.3,32,17.7,27.9c-2.1-1.6-4.2-3.2-6.5-4.7
		c-2.4-1.6-4.5-0.4-4.5,2.4c0,5.5,0,11,0,16.5c0,5.8,0,11.7,0,17.5c0,2.8,2.1,3.9,4.5,2.4c2.2-1.4,4.3-3.1,6.5-4.7
		C23.3,53.2,29,49.1,34.6,45C35.6,44.3,36.1,43.5,36.1,42.6z"/>
	<path class="st5" d="M54.4,43.9c0-3.6,0-7.1,0-10.7c0-0.1,0-0.2,0-0.4c0-2.7,0-5.4,0-8.1c0-1.6-0.8-2.2-2.5-2.2c-2,0-4,0-6,0
		c-1.9,0-2.6,0.7-2.6,2.4c0,2.7,0,5.3,0,8c0,0.1,0,0.3,0,0.4c0,3.5,0,7.1,0,10.6c0,4,0,8.1,0,12.1c0,0.2,0,0.3,0,0.4
		c0,1.4,0,2.8,0,4.1c0,1.5,0.7,2.1,2.6,2.1c2,0,4,0,6,0c1.8,0,2.5-0.6,2.5-2c0-1.4,0-2.8,0-4.2c0-0.1,0-0.3,0-0.4
		C54.4,52.1,54.4,48,54.4,43.9z"/>
	<path class="st5" d="M72.6,43.9c0-3.6,0-7.1,0-10.7c0-0.1,0-0.2,0-0.4c0-2.7,0-5.4,0-8.1c0-1.6-0.8-2.2-2.5-2.2c-2,0-4,0-6,0
		c-1.9,0-2.6,0.7-2.6,2.4c0,2.7,0,5.3,0,8c0,0.1,0,0.3,0,0.4c0,3.5,0,7.1,0,10.6c0,4,0,8.1,0,12.1c0,0.2,0,0.3,0,0.4
		c0,1.4,0,2.8,0,4.1c0,1.5,0.7,2.1,2.6,2.1c2,0,4,0,6,0c1.8,0,2.5-0.6,2.5-2c0-1.4,0-2.8,0-4.2c0-0.1,0-0.3,0-0.4
		C72.6,52.1,72.6,48,72.6,43.9z"/>
</g>
</svg>
