<svg id="Layer_1" data-name="Layer 1" xmlns="http://www.w3.org/2000/svg" viewBox="0 0 200 200"><defs><style>.cls-1{fill:none;stroke:#616161;stroke-miterlimit:10;stroke-width:2px;}.cls-2{fill:#f0f6fd;}.cls-3{fill:#616161;}.cls-4{fill:#ca59a8;}.cls-5{opacity:0.7;}.cls-6{opacity:0.5;}</style></defs><circle class="cls-1" cx="100" cy="100" r="96.03"/><circle class="cls-2" cx="100" cy="100" r="89.52"/><path class="cls-3" d="M57.39,48.14h51.45a.71.71,0,0,0,0,.2c0,9,0,18,0,26.93a3.39,3.39,0,0,0,.63,1.76,3.31,3.31,0,0,0,3,1.23h26.28V100c-13.08-.42-23.28,4.64-28.84,16.57-6.27,13.47-2.7,25.29,8,35.27H59c-2.79,0-3.85-1.06-3.85-3.84q0-47.9,0-95.78C55.14,50.34,55.64,49,57.39,48.14ZM86.09,83c-5.23,0-10.46,0-15.69,0a3,3,0,0,0-3.08,3,3.07,3.07,0,0,0,3.08,3.09c.77,0,1.55,0,2.32,0h28.64a3.14,3.14,0,0,0,3.1-1.69A3,3,0,0,0,101.57,83C96.41,83,91.25,83,86.09,83Zm0,20.25c5.13,0,10.26,0,15.38,0a3.06,3.06,0,0,0,3-1.76c1-2.1-.53-4.31-3-4.31H70.82c-2.12,0-3.52,1.24-3.5,3.08s1.41,3,3.47,3Zm-7.21,8.1H70.77c-2.06,0-3.44,1.23-3.45,3s1.38,3.05,3.42,3.05H87.13a3.05,3.05,0,1,0,0-6.07C84.39,111.32,81.62,111.33,78.86,111.33Z"/><path class="cls-4" d="M158.86,131c-.4,1.76-.67,3.57-1.23,5.28a22.84,22.84,0,1,1,.77-11.9c.18.85.31,1.71.46,2.57Zm-25.62-.12c-1.54-1.54-3-3.05-4.51-4.48a4.25,4.25,0,0,0-1.78-1,2.86,2.86,0,0,0-3.26,1.45,3,3,0,0,0,.53,3.63c2.17,2.22,4.37,4.4,6.57,6.58,1.59,1.58,3.29,1.6,4.87,0q5.94-5.93,11.87-11.88a3.08,3.08,0,0,0,.25-4.5c-1.25-1.28-3.14-1.19-4.58.24l-5.36,5.36Z"/><path class="cls-4" d="M114.9,72.09V50.56l21.54,21.53Z"/><g class="cls-5"><path class="cls-4" d="M174,87.1a.8.8,0,0,1-.42-.77,4.74,4.74,0,0,0-4.57-4.56h-.17a.6.6,0,0,1,0-1.19,8.69,8.69,0,0,0,1.54-.26A4.73,4.73,0,0,0,173.63,76a1,1,0,0,1,.1-.42.54.54,0,0,1,.63-.27.58.58,0,0,1,.45.59,4.52,4.52,0,0,0,.42,1.92,4.66,4.66,0,0,0,4.2,2.79.8.8,0,0,1,.72.43v.35a.81.81,0,0,1-.78.43,4.73,4.73,0,0,0-4.55,4.55.8.8,0,0,1-.42.77Zm-2.56-5.92a6.17,6.17,0,0,1,2.73,2.71,6.44,6.44,0,0,1,2.72-2.73,6.1,6.1,0,0,1-2.71-2.72A6.2,6.2,0,0,1,171.48,81.18Z"/><path class="cls-3" d="M162.75,78.87a10.38,10.38,0,0,1-6.36-6.35A10.38,10.38,0,0,1,150,78.87a10.36,10.36,0,0,1,6.35,6.35c.1-.25.17-.45.27-.65.18-.39.37-.79.58-1.17a.53.53,0,1,1,.93.51,9.32,9.32,0,0,0-1.25,4.58.53.53,0,0,1-.54.57c-.32,0-.52-.24-.53-.62a9.13,9.13,0,0,0-8.92-9h-.08c-.41,0-.66-.22-.65-.55s.24-.52.64-.53a8.86,8.86,0,0,0,5.23-1.73A9,9,0,0,0,155.81,70c0-.25,0-.5,0-.75s.23-.61.54-.6a.55.55,0,0,1,.54.61,8.77,8.77,0,0,0,1.72,5.23,9,9,0,0,0,7.22,3.81H166a.54.54,0,0,1,.55.54.56.56,0,0,1-.56.54c-.69.07-1.39.12-2.07.25a7.69,7.69,0,0,0-2.43,1l-.14.07a.52.52,0,0,1-.72-.21.5.5,0,0,1,.2-.71c.5-.27,1-.5,1.52-.74Z"/><path class="cls-4" d="M147.16,65.84c.34,0,.56.26.58.68A3,3,0,0,0,149.2,69a3,3,0,0,0,1.41.41c.42,0,.67.23.68.58s-.25.59-.69.61a3,3,0,0,0-2.86,2.87c0,.42-.24.67-.59.68s-.58-.26-.6-.67a3,3,0,0,0-2.88-2.88c-.41,0-.67-.25-.67-.6s.26-.57.67-.59a3,3,0,0,0,2.88-2.89C146.57,66.09,146.81,65.83,147.16,65.84ZM145.85,70l1.29,1.3,1.31-1.3-1.3-1.3Z"/><path class="cls-4" d="M159.22,81.18a.55.55,0,0,1,.55.51.55.55,0,0,1-.53.56.54.54,0,0,1-.54-.54A.52.52,0,0,1,159.22,81.18Z"/></g><g class="cls-6"><path class="cls-4" d="M158.8,63.28a.3.3,0,0,1-.16-.3,1.78,1.78,0,0,0-1.71-1.71h-.07a.22.22,0,0,1-.22-.22.24.24,0,0,1,.22-.22,3.51,3.51,0,0,0,.58-.1,1.77,1.77,0,0,0,1.2-1.64.94.94,0,0,1,0-.16.21.21,0,0,1,.24-.1.23.23,0,0,1,.17.23,1.64,1.64,0,0,0,.16.72,1.74,1.74,0,0,0,1.57,1,.28.28,0,0,1,.27.15v.14a.32.32,0,0,1-.29.16,1.78,1.78,0,0,0-1.71,1.7.3.3,0,0,1-.16.3Zm-1-2.23a2.34,2.34,0,0,1,1,1,2.47,2.47,0,0,1,1-1,2.24,2.24,0,0,1-1-1A2.26,2.26,0,0,1,157.84,61.05Z"/><path class="cls-3" d="M154.56,60.19a3.93,3.93,0,0,1-2.39-2.39,3.85,3.85,0,0,1-2.38,2.38,3.89,3.89,0,0,1,2.38,2.39l.1-.24c.07-.15.15-.3.22-.44a.2.2,0,0,1,.29-.1.2.2,0,0,1,.06.29,3.55,3.55,0,0,0-.47,1.72.2.2,0,1,1-.4,0,3.34,3.34,0,0,0-.76-2.12,3.38,3.38,0,0,0-2.59-1.27h0c-.15,0-.24-.08-.24-.21s.09-.19.24-.2a3.29,3.29,0,0,0,2-.65A3.37,3.37,0,0,0,152,56.87c0-.1,0-.19,0-.28s.09-.23.21-.23.19.09.19.23A3.45,3.45,0,0,0,155.73,60h.06a.21.21,0,0,1,.21.21c0,.11-.09.18-.21.2a6.9,6.9,0,0,0-.78.09,2.84,2.84,0,0,0-.91.36l0,0a.2.2,0,0,1-.27-.08.19.19,0,0,1,.07-.27l.57-.28Z"/><path class="cls-4" d="M148.71,55.29c.13,0,.21.1.22.26a1.08,1.08,0,0,0,.55.92,1.06,1.06,0,0,0,.52.16c.16,0,.26.08.26.21a.23.23,0,0,1-.26.23,1.11,1.11,0,0,0-1.07,1.08c0,.16-.09.25-.22.26a.24.24,0,0,1-.23-.25,1.12,1.12,0,0,0-1.08-1.09c-.16,0-.25-.09-.25-.22a.22.22,0,0,1,.25-.22,1.12,1.12,0,0,0,1.08-1.09A.24.24,0,0,1,148.71,55.29Zm-.49,1.56.48.49.49-.49-.49-.49Z"/><path class="cls-4" d="M153.24,61.05a.21.21,0,0,1,.2.19.19.19,0,0,1-.19.21.2.2,0,0,1-.21-.2A.2.2,0,0,1,153.24,61.05Z"/></g><g class="cls-5"><path class="cls-4" d="M37.63,142a.91.91,0,0,1-.48-.88A5.41,5.41,0,0,0,32,136h-.2a.68.68,0,0,1-.66-.68.69.69,0,0,1,.66-.67,10,10,0,0,0,1.75-.3,5.38,5.38,0,0,0,3.66-5,1,1,0,0,1,.11-.48.62.62,0,0,1,.72-.3.65.65,0,0,1,.51.67,5.41,5.41,0,0,0,5.26,5.37.91.91,0,0,1,.82.48v.41a.91.91,0,0,1-.88.48,5.38,5.38,0,0,0-5.18,5.18A.91.91,0,0,1,38,142Zm-2.92-6.74a7,7,0,0,1,3.11,3.08,7.46,7.46,0,0,1,3.1-3.11,6.9,6.9,0,0,1-3.09-3.09A7,7,0,0,1,34.71,135.28Z"/><path class="cls-4" d="M33.12,117.06c.4,0,.64.3.67.78a3.32,3.32,0,0,0,1.67,2.8,3.28,3.28,0,0,0,1.6.47c.47,0,.76.27.77.66s-.29.67-.78.69a3.37,3.37,0,0,0-3.26,3.27c0,.48-.28.77-.67.77s-.66-.29-.68-.75a3.38,3.38,0,0,0-3.29-3.29c-.47,0-.76-.28-.76-.68s.29-.65.77-.67a3.38,3.38,0,0,0,3.28-3.29A.7.7,0,0,1,33.12,117.06Zm-1.49,4.72,1.48,1.48,1.49-1.47-1.48-1.49Z"/></g><g class="cls-6"><path class="cls-4" d="M50,144.36a.65.65,0,0,1-.35-.65,3.94,3.94,0,0,0-3.79-3.78h-.15a.49.49,0,0,1-.48-.49.5.5,0,0,1,.49-.49,7.85,7.85,0,0,0,1.27-.22,3.92,3.92,0,0,0,2.67-3.62.69.69,0,0,1,.08-.35.44.44,0,0,1,.52-.22.48.48,0,0,1,.37.49,3.8,3.8,0,0,0,.35,1.59,3.87,3.87,0,0,0,3.49,2.32.68.68,0,0,1,.59.35v.3a.68.68,0,0,1-.64.35,3.93,3.93,0,0,0-3.78,3.78.65.65,0,0,1-.35.64Zm-2.13-4.92a5.14,5.14,0,0,1,2.27,2.25,5.38,5.38,0,0,1,2.26-2.27,5,5,0,0,1-2.26-2.25A5.09,5.09,0,0,1,47.91,139.44Z"/><path class="cls-4" d="M46.75,126.17c.29,0,.47.21.49.56a2.46,2.46,0,0,0,2.38,2.38c.35,0,.56.2.57.49s-.22.48-.57.5a2.46,2.46,0,0,0-2.38,2.38c0,.35-.2.56-.49.57s-.48-.21-.5-.56a2.44,2.44,0,0,0-2.39-2.39c-.34,0-.56-.21-.55-.5s.21-.47.55-.49a2.45,2.45,0,0,0,2.39-2.4C46.27,126.37,46.46,126.16,46.75,126.17Zm-1.08,3.43,1.07,1.09,1.09-1.08-1.08-1.09Z"/></g></svg>