<svg class="svg-icon" style="width: 1em; height: 1em;vertical-align: middle;fill: currentColor;overflow: hidden;" viewBox="0 0 1024 1024" version="1.1" xmlns="http://www.w3.org/2000/svg">
  <path d="M511.998 81.856c-237.556 0-430.14 192.586-430.14 430.15 0 237.546 192.584 430.136 430.14 430.136S942.14 749.552 942.14 512.006c0-237.562-192.586-430.15-430.142-430.15z" fill="#EDF3FC" />
  <path d="M511.998 2C230.784 2 2 230.786 2 512.006 2 793.212 230.784 1022 511.998 1022 793.214 1022 1022 793.212 1022 512.006 1022 230.786 793.214 2 511.998 2z m0 1003.656c-272.206 0-493.66-221.456-493.66-493.65 0-272.21 221.456-493.668 493.66-493.668s493.664 221.458 493.664 493.668c0 272.196-221.458 493.65-493.664 493.65z" fill="#bd3bb1" />
 <path d="M545.47 268.66h-187.384c-23.06 0-41.762 18.694-41.762 41.754v93.87c14.858 10.912 25.956 27.07 30.166 46.5 6.502 30.01-5.15 59.708-27.576 77.706l19.418 131.448-20.418 28.758-0.358-0.208c4.456 18.272 20.888 31.854 40.53 31.854h277.838c23.056 0 41.752-18.696 41.752-41.76v-277.72l-132.206-132.202z" fill="#4d4e4e" />
  <path d="M545.47 268.66v90.448c0 23.06 18.696 41.754 41.752 41.754h90.454l-132.206-132.202z" fill="#bd3bb1" />
  <path d="M477 339.764h-103.99a10 10 0 0 0 0 20H477a10 10 0 0 0 0-20zM517 402.166h-143.99a10 10 0 0 0 0 20H517a10 10 0 0 0 0-20zM607 464.564H373.01a10 10 0 0 0 0 20H607a10 10 0 0 0 0-20zM607 526.962H373.01a10 10 0 0 0 0 20H607a10 10 0 0 0 0-20zM607 589.364H373.01a10 10 0 0 0 0 20H607a10 10 0 0 0 0-20zM607 651.762H373.01a10 10 0 0 0 0 20H607a10 10 0 0 0 0-20z" fill="#FFFFFF" />
  <path d="M346.49 450.784c-9.16-42.266-50.852-69.11-93.122-59.95-42.268 9.16-69.108 50.85-59.95 93.12 6.502 30.01 29.402 52.22 57.264 59.32l19.44 67.566 21.478 13.828-11.604 18.024 18.024 11.6-10.642 16.53 0.042 0.15 30.494 17.724 20.418-28.758-19.418-131.448c22.426-17.998 34.08-47.698 27.576-77.706z m-76.224 18.036c-16.05 3.478-31.88-6.714-35.36-22.768-3.478-16.048 6.712-31.882 22.764-35.36 16.052-3.478 31.888 6.714 35.366 22.766 3.48 16.054-6.716 31.884-22.77 35.362z" fill="#bd3bb1" />
</svg>