<?xml version="1.0" encoding="utf-8"?>
<!-- Generator: Adobe Illustrator 26.0.2, SVG Export Plug-In . SVG Version: 6.00 Build 0)  -->
<svg version="1.1" id="Layer_1" xmlns="http://www.w3.org/2000/svg" xmlns:xlink="http://www.w3.org/1999/xlink" x="0px" y="0px"
	 viewBox="0 0 79.3 85.3" style="enable-background:new 0 0 79.3 85.3;" xml:space="preserve">
<style type="text/css">
	.st0{fill:#4E4F4F;}
	.st1{fill:#BB4097;}
	.st2{clip-path:url(#SVGID_00000004506877702362905660000015374020664411782544_);}
	.st3{fill:none;stroke:#4E4F4F;stroke-width:1.3314;stroke-miterlimit:10;}
	.st4{fill:#BA4198;}
	.st5{fill:#FFFFFF;}
	.st6{fill:none;stroke:#4E4F4F;stroke-width:3.2761;stroke-miterlimit:10;}
	.st7{fill:none;stroke:#BA4198;stroke-width:3.2761;stroke-miterlimit:10;}
	.st8{fill:none;stroke:#4E4F4F;stroke-width:1.3277;stroke-miterlimit:10;}
	.st9{fill:none;stroke:#4E4F4F;stroke-width:0.8851;stroke-miterlimit:10;}
	.st10{fill:#EEF3FA;}
	.st11{fill:#AF499B;}
	.st12{fill:#AC6B99;}
</style>
<g>
	<defs>
		<rect id="SVGID_1_" x="-855.3" y="-249.3" width="606.1" height="457.2"/>
	</defs>
	<clipPath id="SVGID_00000081609287891434416300000010438153774186303386_">
		<use xlink:href="#SVGID_1_"  style="overflow:visible;"/>
	</clipPath>
	
		<g id="yaYBPF_00000051359409725800586800000011177602046273407369_" style="clip-path:url(#SVGID_00000081609287891434416300000010438153774186303386_);">
		
			<image style="overflow:visible;" width="1599" height="899" id="yaYBPF_00000059292944738936562590000000655568382452863111_" xlink:href="E0A6B4117A14D7A0.jpg"  transform="matrix(1 0 0 1 -1368.6814 -528.3613)">
		</image>
	</g>
</g>
<path class="st0" d="M69.5,46.2c6.2,3.1,6.4,10.6,0,13.9c0.4,0.2,0.7,0.4,1,0.6c3.2,2.1,4.5,5.6,3.2,8.8c-1.3,3.2-4.8,5.4-8.8,5.4
	c-16.8,0-33.6,0-50.4,0c-4.1,0-7.8-2.3-8.9-5.5c-1.2-3.4,0.3-7,3.8-9c0.2-0.1,0.3-0.2,0.6-0.3c-3.1-1.6-4.8-3.9-4.8-6.9
	c0-3,1.7-5.3,4.7-6.9c-0.2-0.1-0.4-0.2-0.6-0.4c-3.8-2.2-5.2-6.4-3.3-10c0.8-1.5,1.2-3,1.6-4.6c1.7-5.4,3.3-10.8,4.9-16.1
	c0.9-2.8,3.7-4.7,7.2-4.7c9,0,18,0,27,0c4.1,0,8.3,0,12.4,0c4,0,6.8,1.9,7.7,5.2c1.6,5.9,3.1,11.7,4.7,17.6c0.1,0.4,0.3,0.7,0.6,1
	c3.6,3.8,2.6,9-2.2,11.7C69.8,46.1,69.6,46.2,69.5,46.2z M9.6,32.6c2.4-1.3,4.8-1.2,7.2-1.2c15.3,0,30.7,0,46,0c2,0,4,0,6,0.8
	c-0.1-0.3-0.1-0.5-0.2-0.8c-1.3-5.1-2.7-10.1-4-15.2c-0.7-2.5-2.5-3.8-5.5-3.8c-5.6,0-11.1,0-16.7,0c-7.5,0-15,0-22.5,0
	c-2.6,0-4.5,1.3-5.2,3.4c-0.7,2.2-1.4,4.4-2,6.6C11.7,25.7,10.7,29,9.6,32.6z M39.6,45.3c8.4,0,16.8,0,25.2,0c4.7,0,8-3.7,6.8-7.6
	c-0.9-2.6-3.6-4.3-7.1-4.3c-5.4,0-10.7,0-16.1,0c-11.2,0-22.5,0-33.7,0c-4.9,0-8.2,3.6-7.1,7.4c0.8,2.7,3.6,4.5,6.9,4.5
	C22.9,45.3,31.3,45.3,39.6,45.3z M39.6,59.1c4,0,8,0,12,0c4.5,0,8.9,0,13.4,0c3.9,0,6.9-2.7,6.9-6c0-3.3-3.2-5.9-7.1-5.9
	c-16.8,0-33.6,0-50.4,0c-5.1,0-8.5,4.5-6.3,8.4c1.3,2.3,3.5,3.5,6.6,3.5C23,59.1,31.3,59.1,39.6,59.1z M39.6,61.1
	c-8.2,0-16.3,0-24.5,0c-0.7,0-1.3,0-2,0.1c-3.7,0.7-6,3.4-5.6,6.7C7.8,70.7,11,73,14.6,73c2.2,0,4.5,0,6.7,0c14.5,0,29,0,43.5,0
	c4.8,0,8.1-3.8,6.8-7.7c-0.7-2-3-4.3-7.4-4.3C56,61.1,47.8,61.1,39.6,61.1z"/>
<path class="st0" d="M32.5,42.6c-2.2,0-3.9-1.5-3.9-3.3c0-1.8,1.8-3.3,3.9-3.3c2.2,0,3.9,1.5,3.9,3.3C36.4,41.1,34.6,42.6,32.5,42.6
	z M32.5,40.6c0.9,0,1.6-0.6,1.6-1.4c0-0.7-0.8-1.4-1.6-1.3c-0.8,0-1.5,0.6-1.5,1.3C30.9,40.1,31.6,40.6,32.5,40.6z"/>
<path class="st4" d="M23.2,42.6c-2.2,0-3.9-1.4-3.9-3.3c0-1.9,1.7-3.3,3.9-3.3c2.1,0,3.9,1.5,3.9,3.3C27.2,41.1,25.4,42.6,23.2,42.6
	z"/>
<path class="st5" d="M23.3,40.6c0.9,0,1.6-0.6,1.6-1.4c0-0.7-0.8-1.3-1.6-1.3c-0.8,0-1.6,0.6-1.6,1.4C21.7,40.1,22.4,40.7,23.3,40.6
	z"/>
<path class="st0" d="M17.9,39.3c0,1.9-1.7,3.3-3.9,3.3c-2.2,0-3.9-1.5-3.9-3.3c0-1.8,1.8-3.3,3.9-3.2C16.2,36,17.9,37.5,17.9,39.3z
	 M14,40.6c0.9,0,1.6-0.6,1.6-1.4c0-0.7-0.8-1.4-1.6-1.3c-0.8,0-1.6,0.7-1.6,1.4C12.4,40.1,13.1,40.7,14,40.6z"/>
<path class="st0" d="M48.5,39.5c0-1.1,0-2.2,0-3.4c0-0.7,0.4-1.1,1.1-1.1c0.7,0,1.2,0.4,1.2,1.1c0,2.2,0,4.5,0,6.7
	c0,0.7-0.5,1.2-1.2,1.2c-0.7,0-1.1-0.5-1.1-1.2C48.5,41.6,48.5,40.6,48.5,39.5z"/>
<path class="st4" d="M62.3,39.4c0,1.1,0,2.3,0,3.4c0,0.9-0.9,1.4-1.7,1c-0.3-0.2-0.6-0.7-0.6-1c-0.1-2.3,0-4.5,0-6.8
	c0-0.7,0.4-1.1,1.2-1.1c0.7,0,1.2,0.4,1.2,1.1C62.3,37.2,62.3,38.3,62.3,39.4z"/>
<path class="st0" d="M56.6,39.5c0,1.1,0,2.2,0,3.4c0,0.7-0.4,1.1-1.1,1.1c-0.7,0-1.2-0.4-1.2-1.1c0-2.3,0-4.5,0-6.8
	c0-0.7,0.4-1.1,1.1-1.1c0.7,0,1.1,0.4,1.2,1.1C56.6,37.2,56.6,38.3,56.6,39.5z"/>
<path class="st0" d="M32.5,56.5c-2.1,0-3.9-1.5-3.9-3.3c0-1.8,1.7-3.3,3.9-3.3c2.2,0,3.9,1.4,4,3.3C36.4,55,34.6,56.5,32.5,56.5z
	 M32.5,51.9c-0.9,0-1.6,0.6-1.6,1.3c0,0.7,0.8,1.4,1.6,1.4c0.8,0,1.5-0.6,1.6-1.3C34.1,52.4,33.4,51.9,32.5,51.9z"/>
<path class="st0" d="M17.9,53.2c0,1.9-1.7,3.3-3.9,3.3c-2.1,0-3.9-1.5-3.9-3.3c0-1.8,1.7-3.3,3.9-3.3C16.2,49.9,17.9,51.3,17.9,53.2
	z M14,51.9c-0.9,0-1.6,0.6-1.6,1.3c0,0.7,0.7,1.4,1.6,1.4c0.8,0,1.6-0.6,1.6-1.3C15.6,52.5,14.9,51.9,14,51.9z"/>
<path class="st4" d="M23.3,49.9c2.2,0,3.9,1.5,3.9,3.3c0,1.8-1.8,3.3-3.9,3.3c-2.2,0-3.9-1.5-3.9-3.3C19.4,51.3,21.1,49.9,23.3,49.9
	z M21.7,53.2c0,0.7,0.7,1.4,1.6,1.4c0.8,0,1.6-0.7,1.6-1.4c0-0.7-0.7-1.3-1.6-1.3C22.3,51.9,21.7,52.4,21.7,53.2z"/>
<path class="st4" d="M59.9,53.3c0-1.1,0-2.1,0-3.2c0-0.8,0.4-1.2,1.2-1.2c0.7,0,1.2,0.5,1.2,1.3c0,2.2,0,4.4,0,6.6
	c0,0.9-0.8,1.4-1.6,1.1c-0.6-0.2-0.7-0.6-0.7-1.1C59.9,55.5,60,54.4,59.9,53.3z"/>
<path class="st0" d="M50.9,53.4c0,1,0,2,0,3c0,0.2,0,0.3,0,0.5c-0.1,0.6-0.6,1-1.2,0.9c-0.7,0-1.1-0.4-1.1-1c0-2.3,0-4.7,0-7
	c0-0.6,0.5-1,1.1-1c0.6,0,1.2,0.4,1.2,1.1C50.9,51,50.9,52.2,50.9,53.4C50.9,53.4,50.9,53.4,50.9,53.4z"/>
<path class="st0" d="M54.3,53.3c0-1.1,0-2.2,0-3.4c0-0.7,0.5-1.2,1.2-1.2c0.7,0,1.1,0.4,1.1,1.2c0,2.2,0,4.4,0,6.6
	c0,0.8-0.4,1.2-1.1,1.2c-0.7,0-1.1-0.4-1.1-1.2C54.2,55.5,54.3,54.4,54.3,53.3C54.3,53.3,54.3,53.3,54.3,53.3z"/>
<path class="st0" d="M32.5,70.3c-2.2,0-3.9-1.5-3.9-3.3c0-1.8,1.8-3.3,3.9-3.3c2.1,0,3.9,1.5,3.9,3.3C36.4,68.9,34.7,70.3,32.5,70.3
	z M30.9,67c0,0.8,0.6,1.4,1.5,1.4c0.9,0,1.6-0.5,1.7-1.3c0-0.7-0.6-1.4-1.5-1.4C31.7,65.6,31,66.3,30.9,67z"/>
<path class="st4" d="M23.3,70.3c-2.2,0-3.9-1.4-3.9-3.3c0-1.9,1.7-3.3,3.9-3.3c2.1,0,3.9,1.5,3.9,3.3C27.2,68.8,25.5,70.3,23.3,70.3
	z M23.3,68.4c0.9,0,1.6-0.6,1.6-1.4c0-0.7-0.8-1.3-1.6-1.3c-0.9,0-1.6,0.7-1.5,1.4C21.7,67.8,22.4,68.4,23.3,68.4z"/>
<path class="st0" d="M14,70.3c-2.2,0-3.9-1.4-3.9-3.3c0-1.8,1.8-3.3,3.9-3.3c2.1,0,3.8,1.5,3.9,3.3C17.9,68.9,16.2,70.3,14,70.3z
	 M14,68.4c0.9,0,1.6-0.6,1.6-1.3c0-0.7-0.7-1.4-1.6-1.4c-0.8,0-1.6,0.6-1.6,1.4C12.4,67.8,13.1,68.4,14,68.4z"/>
<path class="st4" d="M60,67.2c0-1.2-0.1-2.3,0-3.5c0-0.3,0.4-0.8,0.7-0.9c0.2-0.1,0.8,0,1.1,0.1c0.3,0.2,0.4,0.5,0.4,0.8
	c0,2.3,0,4.6,0,6.8c0,0.7-0.5,1.1-1.2,1.1c-0.7,0-1.1-0.5-1.1-1.1C59.9,69.4,60,68.3,60,67.2C60,67.2,60,67.2,60,67.2z"/>
<path class="st0" d="M48.5,67.1c0-1.1,0-2.2,0-3.3c0-0.8,0.4-1.2,1.2-1.2c0.7,0,1.2,0.4,1.2,1.2c0,2.2,0,4.4,0,6.6
	c0,0.7-0.5,1.2-1.2,1.2c-0.7,0-1.1-0.5-1.1-1.2C48.5,69.4,48.5,68.3,48.5,67.1z"/>
<path class="st0" d="M54.3,67.1c0-1.1,0-2.2,0-3.3c0-0.7,0.4-1.2,1.2-1.2c0.7,0,1.1,0.4,1.1,1.2c0,2.2,0,4.4,0,6.6
	c0,0.8-0.4,1.3-1.2,1.2c-0.7,0-1.1-0.4-1.1-1.3C54.2,69.3,54.3,68.2,54.3,67.1z"/>
</svg>
