<?xml version="1.0" encoding="utf-8"?>
<!-- Generator: Adobe Illustrator 26.0.2, SVG Export Plug-In . SVG Version: 6.00 Build 0)  -->
<svg version="1.1" id="Layer_1" xmlns="http://www.w3.org/2000/svg" xmlns:xlink="http://www.w3.org/1999/xlink" x="0px" y="0px"
	 viewBox="0 0 79.3 85.3" style="enable-background:new 0 0 79.3 85.3;" xml:space="preserve">
<style type="text/css">
	.st0{fill:#4E4F4F;}
	.st1{fill:#BB4097;}
	.st2{clip-path:url(#SVGID_00000062890178504046251700000005611394607334426499_);}
	.st3{fill:none;stroke:#4E4F4F;stroke-width:1.3314;stroke-miterlimit:10;}
	.st4{fill:#AF499B;}
	.st5{fill:#BA4198;}
	.st6{fill:#FFFFFF;}
	.st7{fill:none;stroke:#4E4F4F;stroke-width:3.2761;stroke-miterlimit:10;}
	.st8{fill:none;stroke:#BA4198;stroke-width:3.2761;stroke-miterlimit:10;}
	.st9{fill:none;stroke:#4E4F4F;stroke-width:2.2267;stroke-miterlimit:10;}
	.st10{fill:none;stroke:#BA4198;stroke-width:2.2267;stroke-miterlimit:10;}
	.st11{fill:none;stroke:#BA4198;stroke-width:1.4844;stroke-miterlimit:10;}
	.st12{fill:#EEF3FA;}
	.st13{fill:#AC6B99;}
</style>
<g>
	<defs>
		<rect id="SVGID_1_" x="-855.3" y="-249.3" width="606.1" height="457.2"/>
	</defs>
	<clipPath id="SVGID_00000121963413149942789440000011153026698619187856_">
		<use xlink:href="#SVGID_1_"  style="overflow:visible;"/>
	</clipPath>
	
		<g id="yaYBPF_00000051359409725800586800000011177602046273407369_" style="clip-path:url(#SVGID_00000121963413149942789440000011153026698619187856_);">
		
			<image style="overflow:visible;" width="1599" height="899" id="yaYBPF_00000059292944738936562590000000655568382452863111_" xlink:href="5C075A9C4CC320CF.jpg"  transform="matrix(1 0 0 1 -1368.6814 -528.3613)">
		</image>
	</g>
</g>
<g>
	<path class="st9" d="M43.9,46.2c-4.5,2.8-7.2,6.8-7.8,12c-0.6,5.2,1.2,9.6,4.9,13.4c-10.2,0-20.3,0-30.4,0c0-8.4,0-16.9,0-25.4
		C21.7,46.2,32.8,46.2,43.9,46.2z"/>
	<path class="st10" d="M41.1,59.9c0-7.6,6.2-13.7,13.8-13.7c7.6,0,13.8,6.2,13.8,13.8c0,7.6-6.2,13.8-13.8,13.8
		C47.3,73.7,41.1,67.5,41.1,59.9z"/>
	<path class="st10" d="M51.9,63.7c-1.5-1.5-3-3-4.4-4.4c-0.5,0.5-1,1-1.5,1.4c2,2,4,4,5.9,5.9c4-4,7.9-7.9,11.9-11.9
		c-0.4-0.4-0.9-0.9-1.4-1.5C58.9,56.7,55.4,60.2,51.9,63.7z"/>
	<path class="st11" d="M54.8,19.3c-0.4,1-0.9,1.9-1.3,2.8c-1.5,3.1-2.9,6.2-4.3,9.3c-0.2,0.3-0.3,0.4-0.7,0.4c-6.5,0-12.9,0-19.4,0
		c-0.1,0-0.3,0-0.5,0c3.2-6.8,6.3-13.5,9.5-20.3C43.7,14.1,49.2,16.7,54.8,19.3z"/>
	<path class="st9" d="M28.3,24.9c-0.5,1-0.9,2-1.4,2.9c-0.8,1.7-1.6,3.4-2.4,5.1c-0.1,0.3-0.3,0.4-0.7,0.4c-0.4,0-0.7,0-1.2,0
		c0,0.7,0,1.4,0,2.1c9.9,0,19.7,0,29.7,0c0-0.4,0-0.8,0-1.2c0-0.6,0.1-1.1,0.3-1.6c0.7-1.3,1.3-2.7,1.9-4.1
		c2.8,4.4,5.5,8.8,8.3,13.2c-16.9,0-33.8,0-50.8,0c0.1-0.2,0.2-0.4,0.3-0.5c3.3-5.3,6.7-10.6,10-16c0.2-0.3,0.4-0.4,0.7-0.4
		C24.8,24.9,26.5,24.9,28.3,24.9z"/>
</g>
</svg>
