<?xml version="1.0" encoding="utf-8"?>
<!-- Generator: Adobe Illustrator 26.3.1, SVG Export Plug-In . SVG Version: 6.00 Build 0)  -->
<svg version="1.1" id="Layer_1" xmlns="http://www.w3.org/2000/svg" xmlns:xlink="http://www.w3.org/1999/xlink" x="0px" y="0px"
	 viewBox="0 0 280.31 58.09" style="enable-background:new 0 0 280.31 58.09;" xml:space="preserve">
<style type="text/css">
	.st0{fill:#FFFFFF;}
</style>
<g>
	<path class="st0" d="M224.19,10.48c-5.14-5.04-11.4-7.56-18.78-7.56c-5.26,0-9.94,1.29-14.05,3.86c2.13,1.96,3.66,4.14,4.58,6.54
		c0.3,0.74,0.56,1.59,0.77,2.56c2.4-1.77,5.3-2.66,8.7-2.66c4.43,0,8,1.46,10.71,4.36c2.67,2.88,4.01,6.72,4.01,11.52
		c0,4.8-1.34,8.64-4.01,11.52c-2.67,2.88-6.24,4.31-10.71,4.31c-4.43,0-8-1.45-10.71-4.36c-2.33-2.54-3.63-5.88-3.9-10.03
		l-0.25-5.25c-0.02-0.97-0.06-1.88-0.13-2.73l0,0l0,0c-0.2-2.62-0.63-4.71-1.28-6.28c-0.98-2.57-2.66-4.89-5.02-6.95
		c-3.86-3.35-8.75-5.02-14.67-5.02c-5.95,0-10.86,1.67-14.72,5.02c-0.25,0.22-0.49,0.45-0.73,0.68c-0.24-0.23-0.48-0.46-0.74-0.68
		c-3.86-3.35-8.75-5.02-14.67-5.02c-5.95,0-10.86,1.67-14.72,5.02c-2.33,2.06-3.97,4.38-4.92,6.95c-0.98,2.88-1.47,6.29-1.47,10.25
		v28.62h11.42V26.77c0-8.19,3.23-12.28,9.69-12.28c6.46,0,9.69,4.09,9.69,12.28v28.37h0.05h11.37h0.05V26.77
		c0-8.19,3.23-12.28,9.69-12.28c6.42,0,9.64,4.04,9.69,12.1c-0.05,0.68-0.07,1.36-0.07,2.05c0,7.58,2.5,13.87,7.51,18.88
		c5.01,5.07,11.22,7.61,18.62,7.61c7.48,0,13.79-2.49,18.93-7.46c5.11-5.01,7.66-11.22,7.66-18.62
		C231.8,21.72,229.26,15.53,224.19,10.48z"/>
	<path class="st0" d="M93.92,11.32c0-2,0.73-3.72,2.18-5.18c1.45-1.45,3.2-2.18,5.23-2.18c2.06,0,3.82,0.73,5.28,2.18
		c1.45,1.42,2.18,3.16,2.18,5.23c0,2.06-0.73,3.82-2.18,5.28c-1.42,1.46-3.16,2.18-5.23,2.18c-2.06,0-3.82-0.73-5.28-2.18
		C94.65,15.19,93.92,13.41,93.92,11.32z"/>
	<path class="st0" d="M236.89,47.61l5.15-7.82c5.44,4.1,11.35,6.2,16.5,6.2c4.96,0,7.82-2.1,7.82-5.44v-0.19
		c0-3.91-5.34-5.25-11.26-7.06c-7.44-2.1-15.74-5.15-15.74-14.78v-0.19c0-9.54,7.92-15.36,17.93-15.36c6.3,0,13.16,2.19,18.5,5.72
		l-4.58,8.2c-4.86-2.96-10.02-4.77-14.21-4.77c-4.48,0-7.06,2.1-7.06,5.05v0.19c0,3.62,5.44,5.15,11.35,7.06
		c7.34,2.29,15.64,5.63,15.64,14.69v0.19c0,10.59-8.2,15.83-18.7,15.83C251.1,55.14,243.18,52.57,236.89,47.61z"/>
	<path class="st0" d="M106.61,22.42c-1.42,1.46-3.16,2.18-5.23,2.18c-2.06,0-3.82-0.73-5.28-2.18c-0.14-0.14-0.26-0.28-0.39-0.43
		v10.69c0,8.19-3.23,12.28-9.69,12.28c-6.1,0-9.31-3.64-9.66-10.93c0.01-0.37,0.02-0.74,0.02-1.12v-7.18v-1.14V4.29H64.96v2.08
		l-0.05-0.06v26.62c0,0.41,0.01,0.81,0.01,1.2c-0.38,7.2-3.59,10.8-9.66,10.8c-6.29,0-9.52-3.88-9.68-11.63
		c0-0.13,0.01-0.26,0.01-0.4l0-28.62h-0.01h-11.4h-0.01v28.62c0,0.18,0,0.36,0,0.54c-0.21,7.66-3.43,11.49-9.68,11.49
		c-6.46,0-9.69-4.09-9.69-12.28l0-28.37H3.36l0,28.62c0,4.53,0.47,7.95,1.42,10.25c0.98,2.57,2.66,4.89,5.02,6.95
		c3.86,3.35,8.75,5.02,14.67,5.02c5.95,0,10.86-1.67,14.72-5.02c0.24-0.21,0.47-0.43,0.7-0.65c0.23,0.22,0.46,0.44,0.71,0.65
		c3.86,3.35,8.75,5.02,14.67,5.02c5.95,0,10.86-1.67,14.72-5.02c0.23-0.2,0.45-0.41,0.67-0.62c0.23,0.22,0.46,0.43,0.7,0.65
		c3.86,3.35,8.75,5.02,14.67,5.02c5.95,0,10.86-1.67,14.72-5.02c2.33-2.06,3.97-4.38,4.92-6.95c0.98-2.88,1.47-6.29,1.47-10.25
		v-11.1C106.97,22.04,106.79,22.23,106.61,22.42z"/>
</g>
<text transform="matrix(1 0 0 1 -25.2519 -117.1535)" style="font-family:'MyriadPro-Regular'; font-size:12px;">DB1BB3</text>
</svg>
