<?xml version="1.0" encoding="utf-8"?>
<!-- Generator: Adobe Illustrator 26.3.1, SVG Export Plug-In . SVG Version: 6.00 Build 0)  -->
<svg version="1.1" id="Layer_2_00000146481795539112201280000008811111698241251714_"
	 xmlns="http://www.w3.org/2000/svg" xmlns:xlink="http://www.w3.org/1999/xlink" x="0px" y="0px" viewBox="0 0 471.4 471.5"
	 style="enable-background:new 0 0 471.4 471.5;" xml:space="preserve">
<style type="text/css">
	.st0{fill:#FFFFFF;}
</style>
<g id="Layer_1-2_00000121260855875503080230000011449237126883818686_">
	<path class="st0" d="M245.3,469h-23.8c-1.2-0.3-2.3-0.7-3.5-0.8c-28.8-2.7-54.9-12.4-77.9-29.9c-40.3-30.8-61.6-72.7-69.6-122
		c-1.2-7.6-1.9-15.4-2.8-23.1v-18.3c0.2-1.3,0.6-2.6,0.7-4c0.9-18.4,4.6-36.3,9.4-53.9c3.1-11.1,10.6-14.9,21.2-10.6
		c14.1,5.7,28.2,11.5,42.3,17.3c1.3,0.5,2.7,0.9,4.4,1.5c-0.2-2-0.2-3.3-0.4-4.7c-5.3-35.7-2.5-70.6,10.3-104.4
		c19.2-50.6,55.2-86.6,100.6-114c8.8-5.3,19.2,0.3,20.3,10.6c2.3,21.3,6.2,42.2,12.8,62.6c4,12.2,8.8,24.2,13.5,36.8
		c2.3-1.8,3.6-2.8,4.9-3.9c13.2-10.5,27.9-17.9,44.7-20.7c12.3-2.1,20.3,6.9,16.7,18.8c-4.4,14.4-4.8,29.1-3.4,44
		c2.8,30.3,10.9,59.3,21.9,87.5c12.2,31.1,15.7,63,10.7,96.1c-10.3,68.4-56.5,117.3-124.2,130.7C264.6,466.3,254.9,467.5,245.3,469
		L245.3,469z M101.4,237c-17.7,67.4,6.2,141.8,50.4,174.8c0.1-0.1,0.2-0.3,0.2-0.4c-0.3-1-0.5-2-0.9-3.1
		c-7.1-22.4-6.4-44.8,0.3-67.1c2.9-9.7,14-13.1,21.7-6.6c7.3,6.2,15.8,9,25.2,9.3c19.4,0.8,30.8-6.2,38.4-24.1
		c2.1-4.9,3.8-10,5-15.1c4.6-18.8,5.8-37.9,4.8-57.2c-0.4-6.9,3.2-12.4,9-14.5c6-2.2,12.3-0.3,16.1,5.3c18.4,27.4,34.8,56,44.1,87.9
		c6,20.7,9.6,41.8,5.5,63.2c-2.2,11.2-6.7,22-10,32.5c0.3-0.1,1.4-0.7,2.5-1.3c15.2-9.1,27.8-21,36.9-36.1
		c26.4-43.5,29.5-89.1,11.6-136.5c-9.2-24.3-16.5-49.1-20.9-74.7c-2.9-17.2-4.3-34.4-3-52.4c-1.6,0.8-3,1.2-3.9,2
		c-7.5,6.4-15.4,12.4-22.4,19.4c-8.5,8.6-18.4,8-24.5-2.4c-10.6-18.1-18.8-37.3-24.6-57.4c-4.2-14.6-7.5-29.4-11.3-44.4
		c-0.7,0.5-1.8,1-2.7,1.7c-9.1,7.9-18.8,15.2-27.2,23.7c-33.7,34.1-51,75.3-51.3,123.4c-0.1,19.4,2.6,38.3,8.5,56.7
		c1.8,5.6,0.9,10.6-3.5,14.7c-4.3,4.1-9.4,4.7-14.9,2.6c-3.4-1.3-6.8-2.7-10.2-4.1C134.1,250.4,117.9,243.7,101.4,237L101.4,237z
		 M173.2,368.5c0.5,6.8,0.3,14.6,1.8,22.2c4.2,21.5,14.7,38.8,36,47.3c27.3,10.9,59.6-1.9,74.5-28.9c9.3-16.7,11.1-34.5,8.5-53.1
		c-3.2-22.1-11.3-42.5-21.9-63.2c-0.5,2.8-0.7,4.6-1.2,6.2c-3.5,11.6-6,23.7-10.8,34.8c-10.4,24.1-29.5,36.8-55.7,37.3
		C194.3,371.2,184.2,369.5,173.2,368.5L173.2,368.5z"/>
</g>
</svg>
