<?xml version="1.0" encoding="UTF-8"?><svg id="Layer_2" xmlns="http://www.w3.org/2000/svg" viewBox="0 0 471.44 471.49"><defs><style>.cls-1{fill:#ce00bc;}</style></defs><g id="Layer_1-2"><g><path class="cls-1" d="M471.44,157.95c-.96,3.32-1.84,6.67-2.9,9.96-7.94,24.69-29.8,41.52-56.2,41.98-30.54,.53-61.1,.63-91.64-.01-33.04-.69-58.46-26.35-59.05-59.41-.54-30.36-.57-60.75,.02-91.11C262.32,25.68,288.74,.3,322.57,.11c29.07-.17,58.13-.12,87.2-.02,31.09,.11,54.71,19.77,60.74,50.32,.13,.67,.61,1.28,.93,1.92v105.62Zm-104.76-122.3c-14.26,0-28.52-.03-42.78,0-16.36,.04-26.78,10.36-26.82,26.69-.06,28.53-.07,57.06,0,85.58,.04,16,10.49,26.48,26.45,26.53,28.71,.08,57.41,.09,86.12,0,15.73-.05,26.16-10.51,26.19-26.16,.07-28.9,.07-57.8,0-86.7-.04-15.32-10.56-25.85-25.83-25.93-14.45-.08-28.89-.02-43.34-.02Z"/><path class="cls-1" d="M313.6,471.49c-5.39-1.76-11.04-2.97-16.13-5.37-22.64-10.69-35.13-28.84-35.74-53.79-.76-30.55-.68-61.14-.04-91.7,.69-32.83,26.13-58.27,58.94-58.95,30.55-.64,61.13-.58,91.68-.02,29.32,.54,52.45,20.77,58.11,49.5,.17,.85,.68,1.63,1.02,2.44v105.62c-.38,1.18-.86,2.35-1.13,3.55-5.3,22.86-18.94,38.23-41.15,45.88-3.26,1.12-6.63,1.89-9.96,2.82h-105.6Zm122.27-104.81c0-14.26,.03-28.53,0-42.79-.05-16.41-10.29-26.76-26.68-26.8-28.34-.06-56.67-.05-85.01,0-16.75,.03-27.07,10.31-27.1,27.01-.05,28.34-.06,56.69,0,85.03,.03,16.38,10.41,26.75,26.74,26.78,28.52,.04,57.04,.05,85.56,0,16.02-.03,26.41-10.42,26.48-26.42,.06-14.26,.01-28.53,.01-42.79Z"/><path class="cls-1" d="M52.39,471.49c-7.38-2.73-15.33-4.49-22.03-8.38C10.77,451.72,.54,434.12,.25,411.46c-.38-29.81-.27-59.63-.05-89.44,.24-32.97,25.18-59.36,58.13-60.25,31.08-.84,62.21-.8,93.3-.02,32.34,.81,57.41,25.98,58.22,58.41,.77,30.91,.7,61.86,0,92.77-.65,29.07-20.94,51.92-49.43,57.54-.85,.17-1.63,.68-2.44,1.03H52.39Zm52.24-35.58c14.26,0,28.53,.03,42.79,0,16.76-.04,27.05-10.24,27.09-26.97,.06-28.35,.06-56.69,0-85.04-.04-16.47-10.3-26.77-26.7-26.8-28.52-.07-57.05-.07-85.57,0-16.07,.04-26.47,10.45-26.49,26.42-.05,28.72-.05,57.44,0,86.15,.03,15.68,10.47,26.15,26.11,26.23,14.26,.07,28.52,.01,42.79,.02Z"/><path class="cls-1" d="M.15,104.75c0-14.26-.05-28.52,.01-42.78C.32,26.41,26.38,.22,61.87,.09c28.88-.11,57.77-.12,86.66,0,34.92,.15,61.15,26.05,61.5,61.01,.29,29.26,.28,58.53,0,87.79-.33,34.68-26.3,60.74-60.92,61.1-29.25,.3-58.51,.27-87.77,.01C26.18,209.7,.31,183.35,.16,148.09c-.06-14.45-.01-28.89-.01-43.34Zm35.57,.21c0,14.64-.08,29.27,.02,43.91,.1,14.67,10.46,25.45,25.09,25.55,29.45,.21,58.9,.19,88.35,.01,14.72-.09,25.19-10.62,25.28-25.38,.18-29.27,.16-58.55,0-87.82-.08-15.04-10.69-25.5-25.66-25.55-29.08-.09-58.16-.08-87.24,0-15.28,.04-25.75,10.6-25.83,25.93-.07,14.45-.02,28.9-.01,43.35Z"/></g></g></svg>