<?xml version="1.0" encoding="UTF-8"?><svg id="Layer_2" xmlns="http://www.w3.org/2000/svg" viewBox="0 0 468.86 468.78"><defs><style>.cls-1{fill:#fff;}</style></defs><g id="Layer_1-2"><g><path class="cls-1" d="M0,274.42c2.56-8.75,7.11-15.74,16.63-17.97,13.75-3.23,26.17,6.65,26.24,21.06,.12,28.77,.03,57.54,.04,86.31,0,36.84,25.51,62.27,62.45,62.27,86.15,0,172.29,0,258.44,0,36.87,0,62.28-25.48,62.29-62.45,0-28.77-.04-57.54,.03-86.31,.03-9.65,5.87-17.62,14.62-20.48,8.53-2.78,18.05-.28,23.13,7.16,2.5,3.66,4.61,8.48,4.63,12.79,.18,33.25,.98,66.56-.68,99.74-2.37,47.29-44.09,88.09-91.44,91.54-5.63,.41-11.29,.63-16.94,.63-85.15,.04-170.3,.1-255.44,0-48.26-.06-88.35-30.68-100.35-76.54C1.95,385.65,1.2,378.87,0,372.21c0-32.6,0-65.19,0-97.79Z"/><path class="cls-1" d="M237.49,0c7.18,1.9,12.29,6.69,17.38,11.8,40.03,40.17,80.14,80.26,120.29,120.32,4.79,4.78,8.18,10.07,8.02,17.04-.19,8.78-4.28,15.35-12.15,19.1-7.89,3.75-15.54,2.68-22.46-2.72-1.56-1.22-2.93-2.71-4.34-4.12-27.87-27.87-55.75-55.73-83.58-83.65-1.27-1.27-2-3.08-2.98-4.63l-1.97,1.17v5.66c0,86.15,0,172.3,0,258.45,0,12.48-5.67,20.47-16.26,23.16-12.43,3.16-25.04-5.87-26-18.65-.17-2.32-.13-4.65-.13-6.98,0-85.15,0-170.3,0-255.45,0-1.96,0-3.92,0-7.18-2.06,1.88-3.35,2.98-4.55,4.17-28.47,28.45-56.95,56.89-85.38,85.38-5.79,5.8-12.43,8.73-20.71,6.96-15.78-3.37-22.23-22.04-11.87-34.42,1.17-1.4,2.51-2.66,3.8-3.95,39.86-39.87,79.76-79.7,119.56-119.64,5.08-5.1,10.18-9.91,17.36-11.8h5.99Z"/></g></g></svg>