<?xml version="1.0" encoding="UTF-8"?><svg id="Layer_2" xmlns="http://www.w3.org/2000/svg" viewBox="0 0 468.08 468.19"><defs><style>.cls-1{fill:#fff;}</style></defs><g id="Layer_1-2"><g><path class="cls-1" d="M247.79,468.19h-27.43c-3-.35-5.99-.73-8.99-1.06-49.06-5.27-92.71-23.37-130.01-55.79C39.31,374.8,13.12,329.03,3.57,273.99,2.07,265.34,1.17,256.58,0,247.87c0-9.14,0-18.28,0-27.43,.26-1.31,.56-2.61,.78-3.93,2.51-14.67,3.8-29.68,7.69-43.97C43.54,43.64,179.94-31.49,309.6,12.75c117.89,40.23,182.49,163.14,150.19,283.37-23.31,86.74-96.87,153.49-185.83,168.51-8.67,1.46-17.44,2.39-26.16,3.56Zm-13.5-38.47c107.66-.17,195.39-87.97,195.4-195.57,0-107.78-88.07-195.74-195.83-195.58-107.66,.16-195.38,87.95-195.39,195.55-.02,107.74,88.1,195.76,195.83,195.59Z"/><path class="cls-1" d="M253.99,234.18c0-22.68-.11-45.36,.05-68.04,.09-13.45,12.01-22.37,24.58-18.75,8.55,2.47,13.79,10.07,13.8,20.27,.03,33.03,.01,66.06,.01,99.09,0,11.72,.1,23.44-.04,35.16-.11,9.04-5.36,16.27-13.27,18.83-7.64,2.47-15.89,0-20.97-6.26-3.23-3.98-4.22-8.6-4.2-13.64,.07-22.22,.03-44.44,.04-66.67Z"/><path class="cls-1" d="M214.14,234.37c0,22.83,.07,45.66-.04,68.49-.04,8.09-4.13,13.93-11.45,17.17-7.38,3.27-14.33,1.93-20.41-3.27-4.42-3.78-6.47-8.83-6.47-14.56-.05-45.36-.11-90.71,.03-136.07,.03-11.23,8.67-19.63,19.32-19.57,10.68,.06,18.96,8.49,19.01,19.77,.11,22.68,.03,45.36,.03,68.03h-.02Z"/></g></g></svg>