<?xml version="1.0" encoding="UTF-8"?><svg id="Layer_2" xmlns="http://www.w3.org/2000/svg" viewBox="0 0 463.2 463.39"><defs><style>.cls-1{fill:#ce00bc;}</style></defs><g id="Layer_1-2"><path class="cls-1" d="M423.63,463.39H39.57c-.23-.21-.44-.53-.71-.61C12.23,455.76,0,439.92,0,412.4,0,291.46,0,170.51,0,49.57,0,19.6,19.52,.09,49.49,.09,150.31,.08,251.13,.13,351.95,0c6.79,0,11.91,2.22,16.65,6.99,28.65,28.89,57.52,57.56,86.18,86.43,3.21,3.23,5.63,7.25,8.42,10.91V423.82c-.35,1.02-.78,2.03-1.04,3.07-4.28,17.05-14.71,28.51-31.29,34.33-2.37,.83-4.83,1.45-7.24,2.17ZM138.96,30.97h-5.94c-27.66,0-55.32,0-82.97,0-13.82,0-19.17,5.38-19.17,19.31,0,120.95,0,241.9,0,362.84,0,1.61-.06,3.22,.04,4.82,.47,7.14,5.77,13.8,12.83,14.2,11,.62,22.06,.16,33.44,.16v-5.6c0-33.29-.02-66.59,0-99.88,.02-28.99,19.77-48.75,48.76-48.76,70.43-.02,140.86-.02,211.29,0,28.98,0,48.71,19.76,48.74,48.77,.03,33.45,0,66.91,0,100.36v5.29c10.51,0,20.3,.07,30.1-.02,9.84-.09,16.2-6.5,16.2-16.47,.03-99.4,.03-198.79-.07-298.19,0-1.83-.87-4.14-2.14-5.42-26.28-26.48-52.68-52.84-79.09-79.2-.87-.87-2.01-2.06-3.04-2.08-7.81-.18-15.62-.1-23.72-.1v5.84c0,28.15,.02,56.29,0,84.44-.02,20.3-12.87,33.21-33.1,33.22-39.72,.02-79.44,.02-119.15,0-20.19-.01-33.01-12.95-33.02-33.29-.02-28.15,0-56.29,0-84.44v-5.82Zm-30.88,401.19h247.04c0-1.6,0-2.87,0-4.14,0-33.94,.02-67.87,0-101.81,0-11.08-6.24-17.25-17.38-17.25-70.75-.01-141.51-.01-212.26,0-11.24,0-17.37,6.08-17.38,17.22-.03,19.62,0,39.24,0,58.87,0,15.59,0,31.17,0,47.12ZM170.23,31.15V123.37h122.82V31.15h-122.82Z"/></g></svg>