<?xml version="1.0" encoding="utf-8"?>
<!-- Generator: Adobe Illustrator 26.0.2, SVG Export Plug-In . SVG Version: 6.00 Build 0)  -->
<svg version="1.1" id="Layer_1" xmlns="http://www.w3.org/2000/svg" xmlns:xlink="http://www.w3.org/1999/xlink" x="0px" y="0px"
	 viewBox="0 0 85 85" style="enable-background:new 0 0 85 85;" xml:space="preserve">
<style type="text/css">
	.st0{fill:#4D4E4E;}
	.st1{fill:#BD1BB3;}
	.st2{fill:none;stroke:#BA4196;stroke-width:2.4153;stroke-miterlimit:10;}
	.st3{fill:none;stroke:#4D4E4E;stroke-width:2.4153;stroke-miterlimit:10;}
	.st4{fill:#AD489A;}
	.st5{fill:#BA4196;}
	.st6{fill:#FFFFFF;}
	.st7{fill:none;stroke:#4D4E4E;stroke-width:3.2761;stroke-miterlimit:10;}
	.st8{fill:none;stroke:#BA4196;stroke-width:3.2761;stroke-miterlimit:10;}
	.st9{fill:none;stroke:#4D4E4E;stroke-width:2.2267;stroke-miterlimit:10;}
	.st10{fill:none;stroke:#BA4196;stroke-width:2.2267;stroke-miterlimit:10;}
	.st11{fill:none;stroke:#BA4196;stroke-width:1.4844;stroke-miterlimit:10;}
</style>
<g>
	<path class="st0" d="M-181.2-148c-2.8-2.8-6.3-4.1-10.3-4.1c-2.9,0-5.4,0.7-7.7,2.1c1.2,1.1,2,2.3,2.5,3.6c0.2,0.4,0.3,0.9,0.4,1.4
		c1.3-1,2.9-1.5,4.8-1.5c2.4,0,4.4,0.8,5.9,2.4c1.5,1.6,2.2,3.7,2.2,6.3c0,2.6-0.7,4.7-2.2,6.3c-1.5,1.6-3.4,2.4-5.9,2.4
		c-2.4,0-4.4-0.8-5.9-2.4c-1.3-1.4-2-3.2-2.1-5.5l-0.1-2.9c0-0.5,0-1-0.1-1.5l0,0l0,0c-0.1-1.4-0.3-2.6-0.7-3.4
		c-0.5-1.4-1.5-2.7-2.8-3.8c-2.1-1.8-4.8-2.8-8-2.8c-3.3,0-6,0.9-8.1,2.8c-0.1,0.1-0.3,0.2-0.4,0.4c-0.1-0.1-0.3-0.2-0.4-0.4
		c-2.1-1.8-4.8-2.8-8-2.8c-3.3,0-6,0.9-8.1,2.8c-1.3,1.1-2.2,2.4-2.7,3.8c-0.5,1.6-0.8,3.5-0.8,5.6v15.7h6.3V-139
		c0-4.5,1.8-6.7,5.3-6.7c3.5,0,5.3,2.2,5.3,6.7v15.6h0h6.2h0V-139c0-4.5,1.8-6.7,5.3-6.7c3.5,0,5.3,2.2,5.3,6.6c0,0.4,0,0.7,0,1.1
		c0,4.2,1.4,7.6,4.1,10.4c2.7,2.8,6.1,4.2,10.2,4.2c4.1,0,7.6-1.4,10.4-4.1c2.8-2.7,4.2-6.1,4.2-10.2
		C-177-141.8-178.4-145.2-181.2-148z"/>
	<path class="st1" d="M-252.6-147.5c0-1.1,0.4-2,1.2-2.8c0.8-0.8,1.8-1.2,2.9-1.2c1.1,0,2.1,0.4,2.9,1.2c0.8,0.8,1.2,1.7,1.2,2.9
		c0,1.1-0.4,2.1-1.2,2.9c-0.8,0.8-1.7,1.2-2.9,1.2c-1.1,0-2.1-0.4-2.9-1.2C-252.2-145.4-252.6-146.3-252.6-147.5z"/>
	<path class="st0" d="M-174.2-127.6l2.8-4.3c3,2.2,6.2,3.4,9,3.4c2.7,0,4.3-1.2,4.3-3v-0.1c0-2.1-2.9-2.9-6.2-3.9
		c-4.1-1.2-8.6-2.8-8.6-8.1v-0.1c0-5.2,4.3-8.4,9.8-8.4c3.5,0,7.2,1.2,10.1,3.1l-2.5,4.5c-2.7-1.6-5.5-2.6-7.8-2.6
		c-2.5,0-3.9,1.2-3.9,2.8v0.1c0,2,3,2.8,6.2,3.9c4,1.3,8.6,3.1,8.6,8.1v0.1c0,5.8-4.5,8.7-10.3,8.7
		C-166.5-123.5-170.8-124.9-174.2-127.6z"/>
	<path class="st0" d="M-245.7-141.4c-0.8,0.8-1.7,1.2-2.9,1.2c-1.1,0-2.1-0.4-2.9-1.2c-0.1-0.1-0.1-0.2-0.2-0.2v5.9
		c0,4.5-1.8,6.7-5.3,6.7c-3.3,0-5.1-2-5.3-6c0-0.2,0-0.4,0-0.6v-3.9v-0.6v-11.1h-6.3v1.1l0,0v14.6c0,0.2,0,0.4,0,0.7
		c-0.2,3.9-2,5.9-5.3,5.9c-3.4,0-5.2-2.1-5.3-6.4c0-0.1,0-0.1,0-0.2l0-15.7h0h-6.3h0v15.7c0,0.1,0,0.2,0,0.3
		c-0.1,4.2-1.9,6.3-5.3,6.3c-3.5,0-5.3-2.2-5.3-6.7l0-15.6h-6.3l0,15.7c0,2.5,0.3,4.4,0.8,5.6c0.5,1.4,1.5,2.7,2.8,3.8
		c2.1,1.8,4.8,2.8,8,2.8c3.3,0,6-0.9,8.1-2.8c0.1-0.1,0.3-0.2,0.4-0.4c0.1,0.1,0.3,0.2,0.4,0.4c2.1,1.8,4.8,2.8,8,2.8
		c3.3,0,6-0.9,8.1-2.8c0.1-0.1,0.2-0.2,0.4-0.3c0.1,0.1,0.3,0.2,0.4,0.4c2.1,1.8,4.8,2.8,8,2.8c3.3,0,6-0.9,8.1-2.8
		c1.3-1.1,2.2-2.4,2.7-3.8c0.5-1.6,0.8-3.5,0.8-5.6v-6.1C-245.5-141.6-245.6-141.5-245.7-141.4z"/>
</g>
<g>
	
		<ellipse transform="matrix(0.9732 -0.2298 0.2298 0.9732 -63.104 -30.089)" class="st2" cx="-160.8" cy="255.9" rx="14.4" ry="14.4"/>
	<path class="st3" d="M-154.7,257.9c-1.5,0-2.9,0-4.4,0c0,1.4,0,2.8,0,4.2c0,0.9-0.1,1.1-0.8,1.1c-0.6,0-1.2,0-1.9,0
		c-0.4,0-0.6-0.3-0.6-0.9c0-1.5,0-2.9,0-4.4c-1.5,0-2.9,0-4.4,0c-0.6,0-0.9-0.2-0.9-0.6c0-0.7,0-1.3,0-2c0-0.5,0.2-0.6,0.9-0.6
		c1.4,0,2.9,0,4.3,0c0-1.5,0-2.9,0-4.4c0-0.6,0.2-0.9,0.6-0.9c0.7,0,1.3,0,2,0c0.5,0,0.6,0.2,0.6,0.9c0,1.4,0,2.9,0,4.3
		c1.4,0,2.8,0,4.2,0c0.9,0,1.1,0.1,1.1,0.8c0,0.6,0,1.2,0,1.9C-153.9,257.7-154.1,257.9-154.7,257.9z"/>
	<path class="st2" d="M-188.7,254.5c0,4.2,0,8.4,0,12.5c0,2-0.5,2.4-2.4,2.4c-1.9,0-3.8,0-5.8,0c-1.3,0-1.9-0.6-1.9-1.9
		c0-8.8,0-17.5,0-26.3c0-1.3,0.6-1.9,1.9-1.9c2.1,0,4.1,0,6.2,0c1.5,0,2,0.5,2,2.1C-188.6,245.8-188.7,250.2-188.7,254.5z"/>
	<path class="st3" d="M-202.8,258.6c0,3,0,6,0,9.1c0,1.4-0.5,1.7-2.4,1.7c-1.9,0-3.8,0-5.8,0c-1.3,0-1.9-0.4-1.9-1.4
		c0-6.3,0-12.6,0-19c0-0.9,0.6-1.4,1.9-1.4c2.1,0,4.1,0,6.2,0c1.5,0,2,0.3,2,1.5C-202.8,252.4-202.8,255.5-202.8,258.6z"/>
	<path class="st3" d="M-174.4,244.5c0-1,0-2,0-3c0-0.1,0-0.2,0-0.3c0-0.6,0-1.3,0-1.9c0-0.2,0-0.5,0-0.7c0-2.3,0-4.7,0-7.2
		c1.7,0,3.1,0,4.6,0c1.3-0.1,1.7-0.8,1-1.9c-3.2-5.1-6.4-10.3-9.6-15.4c-0.7-1.1-1.5-1.1-2.3,0c-3.2,5.1-6.4,10.2-9.5,15.3
		c-0.7,1.2-0.3,2,1.2,2c1.5,0,2.9,0,4.5,0c0,0.8,0,1.4,0,2c0,11.3,0,22.5,0,33.8c0,1.5,0.3,2,1.4,2.2c0.2,0,0.4,0.1,0.6,0.1
		c0.2,0,0.4,0,0.7,0c1.4,0,2.8,0,4.2,0c0.3,0,0.6,0,0.9,0c1.9,0,2.4-0.4,2.4-2.1c-2.6-3.1-4.1-7.1-4.1-11.4
		C-178.6,251.6-177,247.6-174.4,244.5z"/>
</g>
<g>
	<path class="st0" d="M-275.3,288.9c-1.7,0-3.3,0-4.9,0c0-1.7,0-3.3,0-4.9c4.9,0,9.9,0,14.9,0c0-0.2,0-0.3,0-0.4c0-1,0-2.1,0.1-3.1
		c0.4-3.5,3.6-6.3,7.1-6.4c3.5,0,6.9,0,10.4,0c3.6,0,6.8,3,7.1,6.5c0.1,0.9,0.1,1.8,0.1,2.8c0,0.2,0,0.4,0,0.6c5,0,9.9,0,14.9,0
		c0,1.7,0,3.3,0,5c-1.6,0-3.3,0-5,0c0,0.2,0,0.3,0,0.4c0,12.3,0,24.5,0,36.8c0,1.7,0,3.5,0,5.2c0,3.4-2.7,6.6-6.1,7.1
		c-0.5,0.1-1.1,0.1-1.6,0.1c-9.8,0-19.7,0-29.5,0c-3.5,0-6.5-2.4-7.3-5.7c-0.1-0.6-0.2-1.2-0.2-1.9c0-5.8,0-11.7,0-17.5
		c0-5.9,0-11.8,0-17.8c0-2.1,0-4.2,0-6.3C-275.3,289.2-275.3,289.1-275.3,288.9z M-270.3,288.9c0,0.2,0,0.3,0,0.4
		c0,13.9,0,27.8,0,41.6c0,1.7,1,2.7,2.7,2.7c2.1,0,4.2,0,6.3,0c7.7,0,15.4,0,23.1,0c0.2,0,0.5,0,0.7-0.1c1.2-0.3,1.9-1.2,1.9-2.5
		c0-3.5,0-6.9,0-10.4c0-10.4,0-20.9,0-31.3c0-0.3-0.1-0.4-0.4-0.4c-2,0-3.9,0-5.9,0c-8.7,0-17.3,0-26,0
		C-268.6,288.9-269.5,288.9-270.3,288.9z M-245.5,283.9c0-0.8,0-1.5,0-2.3c0-1.7-1-2.6-2.7-2.7c-1.1,0-2.3,0-3.4,0
		c-2.1,0-4.2,0-6.2,0c-1.3,0-2.3,0.7-2.5,1.9c-0.1,1,0,2,0,3.1C-255.4,283.9-250.5,283.9-245.5,283.9z"/>
	<path class="st4" d="M-255.4,293.8c0.9,0,1.7,0,2.5,0c0.7,0,1.4,0,2.1,0c0.3,0,0.3,0.1,0.3,0.3c0,3.3,0,6.6,0,9.8
		c0,5.9,0,11.8,0,17.8c0,2.2,0,4.3,0,6.5c0,0.2,0,0.3-0.3,0.3c-1.5,0-3.1,0-4.6,0c0,0-0.1,0-0.1,0
		C-255.4,317-255.4,305.5-255.4,293.8z"/>
	<path class="st4" d="M-245.5,293.9c1.7,0,3.3,0,4.9,0c0,11.6,0,23.1,0,34.7c-1.6,0-3.3,0-4.9,0C-245.5,317-245.5,305.4-245.5,293.9
		z"/>
	<path class="st4" d="M-265.3,293.9c1.6,0,3.3,0,4.9,0c0,11.6,0,23.1,0,34.7c-1.6,0-3.3,0-4.9,0C-265.3,317-265.3,305.4-265.3,293.9
		z"/>
</g>
<g>
	<path class="st0" d="M-228.7,221c6.2,3.1,6.4,10.6,0,13.9c0.4,0.2,0.7,0.4,1,0.6c3.2,2.1,4.5,5.6,3.2,8.8c-1.3,3.2-4.8,5.4-8.8,5.4
		c-16.8,0-33.6,0-50.4,0c-4.1,0-7.8-2.3-8.9-5.5c-1.2-3.4,0.3-7,3.8-9c0.2-0.1,0.3-0.2,0.6-0.3c-3.1-1.6-4.8-3.9-4.8-6.9
		c0-3,1.7-5.3,4.7-6.9c-0.2-0.1-0.4-0.2-0.6-0.4c-3.8-2.2-5.2-6.4-3.3-10c0.8-1.5,1.2-3,1.6-4.6c1.7-5.4,3.3-10.8,4.9-16.1
		c0.9-2.8,3.7-4.7,7.2-4.7c9,0,18,0,27,0c4.1,0,8.3,0,12.4,0c4,0,6.8,1.9,7.7,5.2c1.6,5.9,3.1,11.7,4.7,17.6c0.1,0.4,0.3,0.7,0.6,1
		c3.6,3.8,2.6,9-2.2,11.7C-228.4,220.8-228.6,220.9-228.7,221z M-288.6,207.3c2.4-1.3,4.8-1.2,7.2-1.2c15.3,0,30.7,0,46,0
		c2,0,4,0,6,0.8c-0.1-0.3-0.1-0.5-0.2-0.8c-1.3-5.1-2.7-10.1-4-15.2c-0.7-2.5-2.5-3.8-5.5-3.8c-5.6,0-11.1,0-16.7,0
		c-7.5,0-15,0-22.5,0c-2.6,0-4.5,1.3-5.2,3.4c-0.7,2.2-1.4,4.4-2,6.6C-286.5,200.4-287.5,203.7-288.6,207.3z M-258.6,220
		c8.4,0,16.8,0,25.2,0c4.7,0,8-3.7,6.8-7.6c-0.9-2.6-3.6-4.3-7.1-4.3c-5.4,0-10.7,0-16.1,0c-11.2,0-22.5,0-33.7,0
		c-4.9,0-8.2,3.6-7.1,7.4c0.8,2.7,3.6,4.5,6.9,4.5C-275.3,220-266.9,220-258.6,220z M-258.5,233.9c4,0,8,0,12,0c4.5,0,8.9,0,13.4,0
		c3.9,0,6.9-2.7,6.9-6c0-3.3-3.2-5.9-7.1-5.9c-16.8,0-33.6,0-50.4,0c-5.1,0-8.5,4.5-6.3,8.4c1.3,2.3,3.5,3.5,6.6,3.5
		C-275.2,233.9-266.9,233.9-258.5,233.9z M-258.6,235.8c-8.2,0-16.3,0-24.5,0c-0.7,0-1.3,0-2,0.1c-3.7,0.7-6,3.4-5.6,6.7
		c0.3,2.9,3.5,5.1,7.1,5.1c2.2,0,4.5,0,6.7,0c14.5,0,29,0,43.5,0c4.8,0,8.1-3.8,6.8-7.7c-0.7-2-3-4.3-7.4-4.3
		C-242.2,235.9-250.4,235.8-258.6,235.8z"/>
	<path class="st0" d="M-265.7,217.3c-2.2,0-3.9-1.5-3.9-3.3c0-1.8,1.8-3.3,3.9-3.3c2.2,0,3.9,1.5,3.9,3.3
		C-261.8,215.9-263.6,217.3-265.7,217.3z M-265.7,215.4c0.9,0,1.6-0.6,1.6-1.4c0-0.7-0.8-1.4-1.6-1.3c-0.8,0-1.5,0.6-1.5,1.3
		C-267.3,214.8-266.6,215.4-265.7,215.4z"/>
	<path class="st5" d="M-275,217.3c-2.2,0-3.9-1.4-3.9-3.3c0-1.9,1.7-3.3,3.9-3.3c2.1,0,3.9,1.5,3.9,3.3
		C-271,215.9-272.8,217.3-275,217.3z"/>
	<path class="st6" d="M-274.9,215.4c0.9,0,1.6-0.6,1.6-1.4c0-0.7-0.8-1.3-1.6-1.3c-0.8,0-1.6,0.6-1.6,1.4
		C-276.5,214.8-275.8,215.4-274.9,215.4z"/>
	<path class="st0" d="M-280.3,214.1c0,1.9-1.7,3.3-3.9,3.3c-2.2,0-3.9-1.5-3.9-3.3c0-1.8,1.8-3.3,3.9-3.2
		C-282,210.7-280.3,212.2-280.3,214.1z M-284.2,215.4c0.9,0,1.6-0.6,1.6-1.4c0-0.7-0.8-1.4-1.6-1.3c-0.8,0-1.6,0.7-1.6,1.4
		C-285.8,214.8-285,215.4-284.2,215.4z"/>
	<path class="st0" d="M-249.6,214.2c0-1.1,0-2.2,0-3.4c0-0.7,0.4-1.1,1.1-1.1c0.7,0,1.2,0.4,1.2,1.1c0,2.2,0,4.5,0,6.7
		c0,0.7-0.5,1.2-1.2,1.2c-0.7,0-1.1-0.5-1.1-1.2C-249.7,216.4-249.7,215.3-249.6,214.2z"/>
	<path class="st5" d="M-235.9,214.2c0,1.1,0,2.3,0,3.4c0,0.9-0.9,1.4-1.7,1c-0.3-0.2-0.6-0.7-0.6-1c-0.1-2.3,0-4.5,0-6.8
		c0-0.7,0.4-1.1,1.2-1.1c0.7,0,1.2,0.4,1.2,1.1C-235.9,211.9-235.9,213-235.9,214.2z"/>
	<path class="st0" d="M-241.6,214.2c0,1.1,0,2.2,0,3.4c0,0.7-0.4,1.1-1.1,1.1c-0.7,0-1.2-0.4-1.2-1.1c0-2.3,0-4.5,0-6.8
		c0-0.7,0.4-1.1,1.1-1.1c0.7,0,1.1,0.4,1.2,1.1C-241.6,211.9-241.6,213.1-241.6,214.2z"/>
	<path class="st0" d="M-265.7,231.2c-2.1,0-3.9-1.5-3.9-3.3c0-1.8,1.7-3.3,3.9-3.3c2.2,0,3.9,1.4,4,3.3
		C-261.8,229.7-263.6,231.2-265.7,231.2z M-265.7,226.6c-0.9,0-1.6,0.6-1.6,1.3c0,0.7,0.8,1.4,1.6,1.4c0.8,0,1.5-0.6,1.6-1.3
		C-264.1,227.2-264.8,226.6-265.7,226.6z"/>
	<path class="st0" d="M-280.3,227.9c0,1.9-1.7,3.3-3.9,3.3c-2.1,0-3.9-1.5-3.9-3.3c0-1.8,1.7-3.3,3.9-3.3
		C-282,224.6-280.3,226.1-280.3,227.9z M-284.2,226.6c-0.9,0-1.6,0.6-1.6,1.3c0,0.7,0.7,1.4,1.6,1.4c0.8,0,1.6-0.6,1.6-1.3
		C-282.6,227.2-283.3,226.6-284.2,226.6z"/>
	<path class="st5" d="M-274.9,224.6c2.2,0,3.9,1.5,3.9,3.3c0,1.8-1.8,3.3-3.9,3.3c-2.2,0-3.9-1.5-3.9-3.3
		C-278.8,226-277.1,224.6-274.9,224.6z M-276.5,227.9c0,0.7,0.7,1.4,1.6,1.4c0.8,0,1.6-0.7,1.6-1.4c0-0.7-0.7-1.3-1.6-1.3
		C-275.8,226.6-276.5,227.2-276.5,227.9z"/>
	<path class="st5" d="M-238.2,228c0-1.1,0-2.1,0-3.2c0-0.8,0.4-1.2,1.2-1.2c0.7,0,1.2,0.5,1.2,1.3c0,2.2,0,4.4,0,6.6
		c0,0.9-0.8,1.4-1.6,1.1c-0.6-0.2-0.7-0.6-0.7-1.1C-238.2,230.3-238.2,229.1-238.2,228z"/>
	<path class="st0" d="M-247.3,228.1c0,1,0,2,0,3c0,0.2,0,0.3,0,0.5c-0.1,0.6-0.6,1-1.2,0.9c-0.7,0-1.1-0.4-1.1-1c0-2.3,0-4.7,0-7
		c0-0.6,0.5-1,1.1-1c0.6,0,1.2,0.4,1.2,1.1C-247.3,225.8-247.3,227-247.3,228.1C-247.3,228.1-247.3,228.1-247.3,228.1z"/>
	<path class="st0" d="M-243.9,228.1c0-1.1,0-2.2,0-3.4c0-0.7,0.5-1.2,1.2-1.2c0.7,0,1.1,0.4,1.1,1.2c0,2.2,0,4.4,0,6.6
		c0,0.8-0.4,1.2-1.1,1.2c-0.7,0-1.1-0.4-1.1-1.2C-243.9,230.3-243.9,229.2-243.9,228.1C-243.9,228.1-243.9,228.1-243.9,228.1z"/>
	<path class="st0" d="M-265.7,245.1c-2.2,0-3.9-1.5-3.9-3.3c0-1.8,1.8-3.3,3.9-3.3c2.1,0,3.9,1.5,3.9,3.3
		C-261.8,243.6-263.5,245.1-265.7,245.1z M-267.3,241.7c0,0.8,0.6,1.4,1.5,1.4c0.9,0,1.6-0.5,1.7-1.3c0-0.7-0.6-1.4-1.5-1.4
		C-266.5,240.4-267.2,241-267.3,241.7z"/>
	<path class="st5" d="M-274.9,245.1c-2.2,0-3.9-1.4-3.9-3.3c0-1.9,1.7-3.3,3.9-3.3c2.1,0,3.9,1.5,3.9,3.3
		C-271,243.6-272.7,245.1-274.9,245.1z M-274.9,243.1c0.9,0,1.6-0.6,1.6-1.4c0-0.7-0.8-1.3-1.6-1.3c-0.9,0-1.6,0.7-1.5,1.4
		C-276.5,242.6-275.8,243.1-274.9,243.1z"/>
	<path class="st0" d="M-284.2,245.1c-2.2,0-3.9-1.4-3.9-3.3c0-1.8,1.8-3.3,3.9-3.3c2.1,0,3.8,1.5,3.9,3.3
		C-280.3,243.6-282,245.1-284.2,245.1z M-284.2,243.1c0.9,0,1.6-0.6,1.6-1.3c0-0.7-0.7-1.4-1.6-1.4c-0.8,0-1.6,0.6-1.6,1.4
		C-285.8,242.5-285.1,243.1-284.2,243.1z"/>
	<path class="st5" d="M-238.2,241.9c0-1.2-0.1-2.3,0-3.5c0-0.3,0.4-0.8,0.7-0.9c0.2-0.1,0.8,0,1.1,0.1c0.3,0.2,0.4,0.5,0.4,0.8
		c0,2.3,0,4.6,0,6.8c0,0.7-0.5,1.1-1.2,1.1c-0.7,0-1.1-0.5-1.1-1.1C-238.3,244.2-238.2,243.1-238.2,241.9
		C-238.2,241.9-238.2,241.9-238.2,241.9z"/>
	<path class="st0" d="M-249.6,241.9c0-1.1,0-2.2,0-3.3c0-0.8,0.4-1.2,1.2-1.2c0.7,0,1.2,0.4,1.2,1.2c0,2.2,0,4.4,0,6.6
		c0,0.7-0.5,1.2-1.2,1.2c-0.7,0-1.1-0.5-1.1-1.2C-249.7,244.1-249.6,243-249.6,241.9z"/>
	<path class="st0" d="M-243.9,241.9c0-1.1,0-2.2,0-3.3c0-0.7,0.4-1.2,1.2-1.2c0.7,0,1.1,0.4,1.1,1.2c0,2.2,0,4.4,0,6.6
		c0,0.8-0.4,1.3-1.2,1.2c-0.7,0-1.1-0.4-1.1-1.3C-243.9,244.1-243.9,243-243.9,241.9z"/>
</g>
<g>
	<path class="st7" d="M-265.7,142.3c0-0.8-0.5-1.7-1.5-2.4c-5.6-4.1-11.3-8.2-16.9-12.3c-2.1-1.6-4.2-3.2-6.5-4.7
		c-2.4-1.6-4.5-0.4-4.5,2.4c0,5.5,0,11,0,16.5c0,5.8,0,11.7,0,17.5c0,2.8,2.1,3.9,4.5,2.4c2.2-1.4,4.3-3.1,6.5-4.7
		c5.6-4.1,11.3-8.2,16.9-12.3C-266.2,143.9-265.6,143.1-265.7,142.3z"/>
	<path class="st8" d="M-247.4,143.6c0-3.6,0-7.1,0-10.7c0-0.1,0-0.2,0-0.4c0-2.7,0-5.4,0-8.1c0-1.6-0.8-2.2-2.5-2.2c-2,0-4,0-6,0
		c-1.9,0-2.6,0.7-2.6,2.4c0,2.7,0,5.3,0,8c0,0.1,0,0.3,0,0.4c0,3.5,0,7.1,0,10.6c0,4,0,8.1,0,12.1c0,0.2,0,0.3,0,0.4
		c0,1.4,0,2.8,0,4.1c0,1.5,0.7,2.1,2.6,2.1c2,0,4,0,6,0c1.8,0,2.5-0.6,2.5-2c0-1.4,0-2.8,0-4.2c0-0.1,0-0.3,0-0.4
		C-247.4,151.7-247.4,147.6-247.4,143.6z"/>
	<path class="st8" d="M-229.1,143.6c0-3.6,0-7.1,0-10.7c0-0.1,0-0.2,0-0.4c0-2.7,0-5.4,0-8.1c0-1.6-0.8-2.2-2.5-2.2c-2,0-4,0-6,0
		c-1.9,0-2.6,0.7-2.6,2.4c0,2.7,0,5.3,0,8c0,0.1,0,0.3,0,0.4c0,3.5,0,7.1,0,10.6c0,4,0,8.1,0,12.1c0,0.2,0,0.3,0,0.4
		c0,1.4,0,2.8,0,4.1c0,1.5,0.7,2.1,2.6,2.1c2,0,4,0,6,0c1.8,0,2.5-0.6,2.5-2c0-1.4,0-2.8,0-4.2c0-0.1,0-0.3,0-0.4
		C-229.1,151.7-229.1,147.6-229.1,143.6z"/>
</g>
<g>
	<path class="st9" d="M-169.6,76.7c-4.5,2.8-7.2,6.8-7.8,12c-0.6,5.2,1.2,9.6,4.9,13.4c-10.2,0-20.3,0-30.4,0c0-8.4,0-16.9,0-25.4
		C-191.9,76.7-180.8,76.7-169.6,76.7z"/>
	<path class="st10" d="M-172.4,90.4c0-7.6,6.2-13.7,13.8-13.7c7.6,0,13.8,6.2,13.8,13.8c0,7.6-6.2,13.8-13.8,13.8
		C-166.3,104.2-172.4,98-172.4,90.4z"/>
	<path class="st10" d="M-161.6,94.2c-1.5-1.5-3-3-4.4-4.4c-0.5,0.5-1,1-1.5,1.4c2,2,4,4,5.9,5.9c4-4,7.9-7.9,11.9-11.9
		c-0.4-0.4-0.9-0.9-1.4-1.5C-154.7,87.2-158.1,90.7-161.6,94.2z"/>
	<path class="st11" d="M-158.7,49.8c-0.4,1-0.9,1.9-1.3,2.8c-1.5,3.1-2.9,6.2-4.3,9.3c-0.2,0.3-0.3,0.4-0.7,0.4
		c-6.5,0-12.9,0-19.4,0c-0.1,0-0.3,0-0.5,0c3.2-6.8,6.3-13.5,9.5-20.3C-169.9,44.6-164.3,47.2-158.7,49.8z"/>
	<path class="st9" d="M-185.3,55.4c-0.5,1-0.9,2-1.4,2.9c-0.8,1.7-1.6,3.4-2.4,5.1c-0.1,0.3-0.3,0.4-0.7,0.4c-0.4,0-0.7,0-1.2,0
		c0,0.7,0,1.4,0,2.1c9.9,0,19.7,0,29.7,0c0-0.4,0-0.8,0-1.2c0-0.6,0.1-1.1,0.3-1.6c0.7-1.3,1.3-2.7,1.9-4.1
		c2.8,4.4,5.5,8.8,8.3,13.2c-16.9,0-33.8,0-50.8,0c0.1-0.2,0.2-0.4,0.3-0.5c3.3-5.3,6.7-10.6,10-16c0.2-0.3,0.4-0.4,0.7-0.4
		C-188.7,55.4-187.1,55.4-185.3,55.4z"/>
</g>
<g>
	<path class="st0" d="M-249.9,69.2c-0.6-0.5-0.9-0.8-1.3-1c-3-1.1-3.6-3.4-3.3-6.3c0.3-3.2,0.1-6.4,0.1-9.6c0-2-0.9-2.9-2.9-2.9
		c-16.7,0-33.3,0-50,0c-1.9,0-2.9,0.9-2.9,2.6c0,9.8,0,19.6,0,29.4c0,0.2,0.1,0.3,0.1,0.8c5.5-6.2,10.8-12.2,16.3-18.3
		c2.7,2.8,5.4,5.6,8.1,8.5c-0.9,1.3-1.7,2.5-2.5,3.6c-1.9-1.7-3.7-3.4-5.7-5.1c-2,2.2-4.1,4.6-6.2,7c-3.1,3.5-6.3,7.1-9.4,10.6
		c-0.9,1.1-1.2,5.6-0.2,6.5c0.6,0.6,1.6,0.9,2.5,0.9c4.9,0.1,9.8,0.1,14.7,0c1.3,0,2.2,0.2,2.4,1.7c0.2,0.9,0.7,1.8,1.1,2.9
		c-2.3,0-4.3,0-6.4,0c-3.9,0-7.8,0-11.7,0c-4.9,0-7.7-2.9-7.7-7.8c0-13.4,0-26.8,0-40.2c0-4.6,2.9-7.6,7.4-7.6c16.7,0,33.4,0,50.1,0
		c4.2,0,7.2,2.7,7.4,6.8C-249.8,57.5-249.9,63.2-249.9,69.2z"/>
	<path class="st4" d="M-268.6,63.4c-2.6,0-4.5-2-4.5-4.6c0-2.5,2-4.5,4.5-4.5c2.5,0,4.6,2.1,4.6,4.6C-264,61.5-266,63.4-268.6,63.4z
		"/>
	<path class="st0" d="M-268.5,86.8c0-3.1,0-6.1,0-9.2c1.5,0,2.9,0,4.5,0c0,3,0,6,0,9.1c3.2,0,6.2,0,9.3,0c0,1.5,0,2.9,0,4.4
		c-3,0-6,0-9.2,0c0,3.2,0,6.2,0,9.3c-1.6,0-3,0-4.5,0c0-3,0-6,0-9.2c-3.1,0-6.1,0-9.1,0c0-1.6,0-2.9,0-4.5
		C-274.6,86.8-271.6,86.8-268.5,86.8z"/>
	<g>
		<path class="st4" d="M-266.2,109.4c-11.2,0-20.3-9.1-20.3-20.3s9.1-20.3,20.3-20.3c11.2,0,20.3,9.1,20.3,20.3
			S-255,109.4-266.2,109.4z M-266.2,72.5c-9.1,0-16.6,7.4-16.6,16.6c0,9.1,7.4,16.6,16.6,16.6c9.1,0,16.6-7.4,16.6-16.6
			C-249.6,79.9-257,72.5-266.2,72.5z"/>
	</g>
</g>
<g>
	<path class="st0" d="M-139.9,160.1c-0.3,1.1-0.5,2.2-0.9,3.3c-2,4.6-5.4,7.4-10.4,8c-2.1,0.3-4.3,0.1-6.5,0.2c-0.6,0-1.1,0-1.7,0
		c-0.9,0-1.5-0.6-1.5-1.4c0-0.8,0.6-1.4,1.4-1.4c1.8,0,3.6,0,5.5,0c1.9,0,3.8-0.2,5.5-1c3.8-1.9,5.8-5.1,5.9-9.3
		c0.1-5.6-4.1-9.5-8.5-10.2c-1.2-0.2-1.5-0.4-1.7-1.7c-1.3-6.6-5.1-11.1-11.4-13.5c-0.9-0.4-1.3-1.1-1-1.9c0.3-0.8,1.1-1.1,2-0.7
		c6.8,2.6,11.1,7.4,12.9,14.4c0.1,0.5,0.4,0.8,0.9,0.9c5.3,1.7,8.5,5.2,9.5,10.7c0,0.1,0.1,0.2,0.1,0.3
		C-139.9,157.9-139.9,159-139.9,160.1z"/>
	<path class="st0" d="M-192.3,171.6c-2.8,0.2-5.8-0.4-8.5-1.9c-5.4-2.9-8.7-8.9-8.1-15c0.6-6.9,6-12.6,13-13.8
		c2.3-0.4,4.5-0.3,6.7,0.3c0.5,0.1,0.7,0,1-0.4c2.5-5,6.3-8.4,11.5-10.4c1.2-0.4,2.2,0.4,2,1.5c-0.1,0.7-0.7,1-1.2,1.2
		c-2.1,0.8-4,1.9-5.7,3.4c-2.1,1.9-3.7,4.2-4.7,6.8c-0.4,1.2-1.1,1.4-2.3,1c-0.1,0-0.2-0.1-0.3-0.1c-6.1-2.2-12.8,0.4-15.8,6.1
		c-3.9,7.5,0.8,16.8,9.2,18.1c1.9,0.3,3.8,0.2,5.8,0.3c0.3,0,0.7,0,1,0.1c0.6,0.2,1,0.9,0.9,1.4c-0.1,0.7-0.6,1.2-1.4,1.3
		C-190.2,171.6-191.1,171.6-192.3,171.6z"/>
	<path class="st5" d="M-167.6,158.2c-0.3,0.3-0.4,0.4-0.6,0.6c-1.7,1.7-3.4,3.4-5.1,5.1c-0.6,0.5-1.2,0.7-1.8,0.3
		c-0.6-0.3-0.8-0.8-0.7-1.5c0.1-0.3,0.3-0.6,0.5-0.9c2.7-2.7,5.4-5.4,8-8.1c0.7-0.7,1.5-0.7,2.2,0c2.7,2.7,5.4,5.4,8,8
		c0.7,0.7,0.7,1.5,0.1,2.1c-0.6,0.6-1.4,0.5-2.1-0.1c-1.7-1.7-3.4-3.4-5.1-5.1c-0.2-0.2-0.3-0.4-0.4-0.5c-0.1,0-0.2,0.1-0.2,0.1
		c0,0.3,0,0.5,0,0.8c0,8.2,0,16.3,0,24.5c0,0.4,0,0.7-0.1,1.1c-0.2,0.7-0.7,1.2-1.4,1.1c-0.7,0-1.2-0.6-1.3-1.3c0-0.2,0-0.5,0-0.7
		c0-8.2,0-16.4,0-24.6C-167.6,158.9-167.6,158.6-167.6,158.2z"/>
	<path class="st5" d="M-181.3,182.3c1.9-1.9,3.6-3.6,5.4-5.4c0.2-0.2,0.4-0.4,0.6-0.6c0.6-0.5,1.3-0.4,1.8,0
		c0.5,0.5,0.6,1.3,0.2,1.9c-0.1,0.2-0.3,0.3-0.4,0.4c-2.5,2.5-5.1,5.1-7.6,7.6c-1,1-1.6,1-2.6,0c-2.6-2.6-5.2-5.2-7.8-7.8
		c-0.4-0.4-0.7-0.9-0.6-1.5c0.3-1.1,1.5-1.5,2.4-0.7c0.7,0.7,1.4,1.4,2.1,2.1c1,1,2.1,2.1,3.1,3.1c0.2,0.1,0.3,0.3,0.6,0.5
		c0-0.4,0-0.7,0-0.9c0-8.1,0-16.3,0-24.4c0-0.3,0-0.7,0.1-1c0.2-0.8,0.7-1.2,1.5-1.1c0.7,0,1.2,0.6,1.3,1.3c0,0.2,0,0.5,0,0.7
		c0,8.2,0,16.4,0,24.6C-181.3,181.7-181.3,181.9-181.3,182.3z"/>
	<path class="st5" d="M-170.1,132.1c-0.8,0-1.4-0.6-1.4-1.4c0-0.8,0.6-1.4,1.4-1.3c0.8,0,1.3,0.6,1.3,1.4
		C-168.7,131.6-169.3,132.1-170.1,132.1z"/>
</g>
<circle class="st1" cx="-263.9" cy="-35.4" r="30.6"/>
<circle class="st0" cx="-177" cy="-31.3" r="30.6"/>
<g id="w9P4NZ_00000006708967142904927110000018413789958424181914_">
	
		<image style="overflow:visible;" width="757" height="569" xlink:href="96E6128774B23590.jpg"  transform="matrix(0.6128 0 0 0.6128 -841.0684 -169.3495)">
	</image>
</g>
<g>
	<path class="st0" d="M115.5-112.6c-0.8-1.1-0.8-1.3-0.1-2.5c-0.3,0-0.6-0.1-0.9-0.1c-1.2,0-2.4,0-3.5,0c-0.9,0-1.5-0.6-1.5-1.4
		c0-0.8,0.6-1.3,1.5-1.3c1.3,0,2.7,0,4,0c1.6,0.1,2.7,0.8,3.5,2.2c0.1,0.2,0.3,0.4,0.5,0.5c0.1,0,0.3-0.2,0.4-0.4
		c0.8-1.5,2.1-2.2,3.8-2.2c2.1,0,4.2,0,6.3,0c1.7,0,3,0.7,3.8,2.3c0.3,0.5,0.3,0.5,1.8,0.4c0-1.6,0.1-3.2,0-4.8
		c-0.2-1.8,0.4-3.1,1.8-4.3c1.4-1.2,2.5-2.6,3.9-3.8c0.4-0.3,1-0.6,1.5-0.6c7.4,0,14.8,0,22.3,0c1.2,0,1.7,0.5,1.7,1.8
		c0,3.6,0,7.2,0,10.8c0,0.3,0,0.6,0,1c0.2-0.1,0.3-0.1,0.3-0.2c0.9-1.9,2.5-2.6,4.5-2.5c1.9,0.1,3.8,0,5.6,0c1.8,0,3.1,0.7,3.9,2.3
		c0.1,0.2,0.3,0.4,0.4,0.4c0.1,0,0.3-0.2,0.4-0.4c0.8-1.5,2.1-2.3,3.8-2.3c1.2,0,2.4,0,3.6,0c0.9,0,1.5,0.5,1.5,1.3
		c0,0.8-0.6,1.3-1.5,1.4c-1.2,0-2.3,0-3.5,0c-0.3,0-0.6,0-1.1,0.1c0.8,0.9,0.9,1.6,0,2.5c0.5,0.1,0.9,0.1,1.2,0.1c1.1,0,2.2,0,3.4,0
		c0.9,0,1.5,0.6,1.5,1.4c0,0.8-0.6,1.3-1.5,1.3c-1.3,0-2.5,0-3.8,0c-1.6,0-2.8-0.8-3.6-2.2c-0.1-0.2-0.3-0.3-0.5-0.5
		c-0.2,0.2-0.4,0.3-0.5,0.5c-0.8,1.5-2.1,2.2-3.7,2.2c-2.1,0-4.2,0-6.2,0c-1.8,0-3.2-0.7-4-2.4c0-0.1-0.1-0.2-0.2-0.3c0,0,0,0-0.2,0
		c0,1.3-0.1,2.7,0,4.1c0.3,2.3-0.4,4-2.2,5.4c-1.2,0.9-2.2,2.2-3.3,3.2c-0.4,0.4-1.1,0.7-1.6,0.7c-7.4,0-14.8,0-22.2,0
		c-1.3,0-1.7-0.5-1.7-1.7c0-3.9,0-7.8,0-11.6c-1.2-0.3-1.4-0.2-2,0.7c-0.8,1.2-1.9,1.8-3.2,1.8c-2.3,0-4.7,0.1-7,0
		c-1.6,0-2.7-0.8-3.5-2.2c-0.1-0.2-0.3-0.4-0.5-0.4c-0.1,0-0.3,0.3-0.4,0.4c-0.8,1.5-2.1,2.2-3.8,2.2c-1.2,0-2.4,0-3.5,0
		c-1.1,0-1.7-0.5-1.7-1.4c0-0.8,0.6-1.3,1.6-1.3c1.1,0,2.2,0,3.4,0C114.8-112.5,115.1-112.6,115.5-112.6z M158-120.6
		c-6.8,0-13.5,0-20.1,0c0,6.3,0,12.6,0,18.8c6.7,0,13.4,0,20.1,0C158-108,158-114.3,158-120.6z M161.5-125.9
		c-0.3-0.1-0.3-0.1-0.4-0.1c-6.1,0-12.1,0-18.2,0c-0.2,0-0.4,0-0.5,0.1c-0.9,0.8-1.7,1.7-2.7,2.6c6.4,0,12.5,0,18.7,0
		c0.2,0,0.5-0.1,0.7-0.3C159.9-124.3,160.6-125.1,161.5-125.9z M163.4-124.1c-0.9,0.9-1.6,1.6-2.3,2.3c-0.2,0.3-0.4,0.7-0.4,1
		c0,5.5,0,10.9,0,16.4c0,0.2,0,0.4,0.1,0.8c0.9-0.9,1.6-1.6,2.3-2.4c0.1-0.1,0.3-0.4,0.3-0.6c0-1.9,0-3.9,0-5.8
		c-0.8-0.2-1.3-0.6-1.3-1.4c0-0.9,0.6-1.3,1.3-1.5C163.4-118.2,163.4-121,163.4-124.1z M130.3-115.1c-2.7,0-5.3,0-7.8,0
		c0.2,0.5,0.4,0.9,0.4,1.2c0,0.4-0.3,0.8-0.4,1.2c2.6,0,5.2,0,7.8,0C129.5-113.8,129.5-114,130.3-115.1z M169.5-115.1
		c0.8,0.9,0.8,1.6,0,2.5c2.7,0,5.3,0,8.1,0c-0.8-0.9-0.8-1.6,0-2.5C174.9-115.1,172.3-115.1,169.5-115.1z"/>
	<path class="st0" d="M145.9-139.8c0-1.8,0-3.4,0-5.1c0-1.2,0.5-1.6,1.6-1.6c1.6,0,3.2,0,4.8,0c1.2,0,1.6,0.5,1.6,1.6
		c0,1.7,0,3.3,0,5c0,0,0,0,0.1,0.1c0.7,0,1.5,0,2.3,0c0.7,0,1.2,0.2,1.5,0.9c0.2,0.7,0,1.2-0.6,1.6c-2.1,1.7-4.3,3.4-6.4,5.2
		c-0.7,0.5-1.3,0.5-2,0c-2.1-1.7-4.3-3.4-6.4-5.2c-0.5-0.4-0.8-0.9-0.6-1.6c0.2-0.7,0.8-0.9,1.5-0.9
		C144.2-139.8,145-139.8,145.9-139.8z M147.2-137c1,0.7,1.9,1.4,2.8,2.1c0.8-0.6,1.5-1.1,2.3-1.7c0.2-0.1,0.3-0.3,0.5-0.4
		c-1.2-0.4-1.4-0.7-1.4-1.9c0-1.6,0-3.2,0-4.9c-0.9,0-1.8,0-2.7,0c0,1.7,0,3.2,0,4.8C148.6-137.8,148.4-137.5,147.2-137z"/>
	<path class="st0" d="M144.6-117.6c2.2,0,4.4,0,6.7,0c0.7,0.8,1.4,1.6,2.2,2.4c0,0,0.1,0.1,0.1,0.2c0,3.2,0,6.4,0,9.5
		c0,0.1,0,0.2,0,0.3c-0.1,0.4-0.4,0.6-0.8,0.6c-2.6,0-5.2,0-7.8,0c-0.5,0-0.9-0.4-0.9-0.9c0-1.4,0-2.7,0-4.1c0-2.4,0-4.7,0-7.1
		c0-0.3,0.1-0.5,0.3-0.7C144.3-117.6,144.5-117.6,144.6-117.6z M150.7-117c-0.1,0-0.1,0-0.1,0c-1.9,0-3.9,0-5.8,0
		c-0.2,0-0.2,0-0.2,0.2c0,3.7,0,7.4,0,11.2c0,0.2,0,0.2,0.2,0.2c2.6,0,5.2,0,7.8,0c0.2,0,0.2,0,0.2-0.2c0-3,0-6,0-9c0,0,0-0.1,0-0.1
		c-0.1,0-0.1,0-0.2,0c-0.5,0-1,0-1.5,0c-0.3,0-0.5-0.1-0.4-0.4c0-0.5,0-0.9,0-1.4C150.7-116.7,150.7-116.8,150.7-117z M151.4-116.4
		c0,0.4,0,0.7,0,1.1c0.3,0,0.6,0,1,0C152.1-115.7,151.7-116.1,151.4-116.4z"/>
	<path class="st0" d="M148.6-110.3c-0.9,0-1.8,0-2.7,0c-0.1,0-0.1,0-0.2,0c-0.1,0-0.2-0.1-0.2-0.2c0-0.1,0.1-0.2,0.2-0.2
		c0,0,0.1,0,0.1,0c1.8,0,3.6,0,5.5,0c0,0,0.1,0,0.1,0c0.1,0,0.2,0.1,0.2,0.2c0,0.1-0.1,0.2-0.2,0.2c-0.1,0-0.1,0-0.2,0
		C150.4-110.3,149.5-110.3,148.6-110.3z"/>
	<path class="st0" d="M148.6-108.6c-0.9,0-1.8,0-2.7,0c-0.1,0-0.1,0-0.2,0c-0.1,0-0.2-0.1-0.2-0.2c0-0.1,0.1-0.2,0.2-0.2
		c0,0,0.1,0,0.1,0c1.8,0,3.6,0,5.5,0c0.1,0,0.1,0,0.2,0c0.1,0,0.2,0.1,0.2,0.2c0,0.1-0.1,0.2-0.2,0.2c-0.1,0-0.1,0-0.2,0
		C150.4-108.6,149.5-108.6,148.6-108.6z"/>
	<path class="st0" d="M148.6-113.6c-0.9,0-1.8,0-2.7,0c-0.1,0-0.1,0-0.2,0c-0.1,0-0.2-0.1-0.2-0.2c0-0.1,0.1-0.2,0.2-0.2
		c0,0,0.1,0,0.1,0c1.8,0,3.7,0,5.5,0c0.1,0,0.1,0,0.2,0c0.1,0,0.2,0.1,0.2,0.2c0,0.1-0.1,0.2-0.2,0.2c-0.1,0-0.1,0-0.2,0
		C150.4-113.6,149.5-113.6,148.6-113.6z"/>
	<path class="st0" d="M148.6-111.9c-0.9,0-1.8,0-2.7,0c-0.1,0-0.1,0-0.2,0c-0.1,0-0.2-0.1-0.2-0.2c0-0.1,0.1-0.2,0.2-0.2
		c0,0,0.1,0,0.2,0c1.8,0,3.6,0,5.4,0c0.1,0,0.1,0,0.2,0c0.1,0,0.2,0.1,0.2,0.2c0,0.1-0.1,0.2-0.2,0.2c-0.1,0-0.1,0-0.2,0
		C150.4-111.9,149.5-111.9,148.6-111.9z"/>
</g>
<g>
	<path class="st0" d="M-3.3-164.5c16.2,0,32.5,0,48.7,0c1.4,0.6,1.9,1.6,1.8,3.1c-0.1,1.6,0,3.1,0,4.7c0,0.6,0,1.1,0,1.8
		c2.4,0,4.7,0,7,0c1.5,0,2.4,0.9,2.5,2.4c0,0.3,0,0.6,0,0.9c0,7.8,0,15.6,0,23.3c0,0.7,0.2,1.2,0.8,1.6c1,0.7,2,1.4,2.8,2.3
		c1.7,1.9,1.9,4.1,0.8,6.4c-0.4,0.8-0.9,1.6-1.3,2.4c-0.4,0.9-0.9,1.8-1.2,2.7c-0.4,1,0,1.5,1.1,1.7c1.4,0.1,2.6-0.6,3.1-2.1
		c0.3-1,0.9-1.7,1.9-1.9c1.1-0.2,1.9,0.3,2.5,1.1c0.9,1.1,1.8,2.2,2.7,3.3c1.5,2,3.1,4,4.5,6.1c1,1.5,1.5,3.3,1.3,5.2
		c-0.3,4.4-2.4,7.9-5.7,10.7c-4.5,3.8-9.8,5.4-15.6,5.4c-15.8,0-31.5,0-47.3,0c-1.8,0-2.7-0.9-2.7-2.7c0-2,0-4.1,0-6.1
		c0-0.3,0-0.6,0-0.9c-2.2,0-4.3,0-6.4,0c-2.2,0-3.1-0.8-3.1-3c0-21.8,0-43.5,0-65.3C-5.1-162.9-4.7-163.9-3.3-164.5z M9.2-88.3
		c9.9,0,19.8,0,29.7,0c-0.3-0.2-0.4-0.4-0.6-0.5c-6-5.3-7.2-13.3-3-20.1c1.7-2.8,4.1-5,6.6-7.1c1.5-1.2,3-2.5,4.4-3.9
		c0.6-0.6,1-1.3,1-2.2c-0.1-1.9-0.4-3.8-1.3-5.6c-0.2-0.4-0.3-1-0.3-1.4c0.1-1.6,1.7-2.5,3.2-1.9c1,0.4,2,0.8,3.1,1.3
		c0-6.9,0-13.6,0-20.4c-9.5,0-19,0-28.6,0c0,0.4,0,0.7,0,1c0,3.5,0,7,0,10.4c0,1.9-0.9,2.8-2.8,2.8c-3.5,0-7.1,0-10.6,0
		c-0.3,0-0.5,0-0.8,0C9.2-120,9.2-104.2,9.2-88.3z M4.4-97.9c0-0.4,0-0.8,0-1.1c0-12.9,0-25.8,0-38.8c0-1,0.3-1.9,1.1-2.6
		c4.5-4.5,9-9,13.5-13.5c0.7-0.7,1.5-1.1,2.5-1.1c6.7,0,13.3,0,20,0c0.3,0,0.6,0,1,0c0-1.6,0-3.2,0-4.7c-14.3,0-28.5,0-42.8,0
		c0,20.6,0,41.2,0,61.8C1.3-97.9,2.8-97.9,4.4-97.9z M45.1-90.1c-0.1-0.4-0.1-0.7-0.2-1c-0.3-2.2,0.4-4.1,1.7-5.7
		c2-2.3,4.1-4.5,6.2-6.6c0.8-0.8,2.2-0.8,3.1,0.1c1.7,1.6,3.4,3.3,4.9,5c1.9,2.2,3.5,4.6,2.8,7.9c3.3-1.8,5.8-4,6.9-7.5
		c0.6-1.8,0.5-3.5-0.7-5.1c-0.5-0.7-1-1.5-1.6-2.3c-1-1.2-1.9-2.4-2.9-3.6c-1.8,1.7-3.8,2.4-6.2,2.2c-2.7-0.2-5.1-2.1-5.5-4.6
		c-0.3-1.6,0.1-3.2,0.8-4.7c0.7-1.4,1.5-2.8,2.3-4.3c0.3-0.5,0.3-0.9-0.1-1.3c-1.4-1.4-3.1-2.3-4.9-3.2c0,0.2,0,0.3,0,0.4
		c0.7,3.5-0.4,6.3-3.1,8.6c-1.4,1.2-2.7,2.3-4.1,3.5c-2.3,1.9-4.5,3.8-5.8,6.5C35.3-98.4,39.9-92.2,45.1-90.1z M54.4-98.3
		c-1.6,1.5-3.2,3.1-4.3,5c-0.6,1.1-0.5,2.1,0.1,3c1.8,2.7,6.4,2.8,8.3,0c0.7-1,0.8-2,0.2-3C57.5-95.2,56-96.7,54.4-98.3z
		 M12.7-140.8c1.9,0,3.9,0,5.8,0c0-2,0-3.9,0-5.8C16.6-144.7,14.7-142.7,12.7-140.8z"/>
	<path class="st0" d="M28-126.5c-3.9,0-7.8,0-11.7,0c-1.1,0-2-0.7-2.3-1.7c-0.3-1,0-2,0.9-2.6c0.4-0.3,1-0.5,1.5-0.5
		c7.9,0,15.7,0,23.6,0c1.4,0,2.4,1,2.4,2.4c0,1.3-1,2.4-2.4,2.4C35.9-126.5,32-126.5,28-126.5z"/>
	<path class="st0" d="M25.7-117c-3.1,0-6.1,0-9.2,0c-1.6,0-2.7-1-2.7-2.4c0-1.4,1.1-2.4,2.7-2.4c6.1,0,12.2,0,18.4,0
		c1.6,0,2.7,1,2.7,2.4c0,1.4-1.1,2.4-2.7,2.4C31.9-117,28.8-117,25.7-117z"/>
	<path class="st0" d="M21-107.5c-1.5,0-3,0-4.5,0c-1.5,0-2.6-1-2.6-2.4c0-1.4,1.1-2.4,2.6-2.4c3,0,6,0,9,0c1.5,0,2.6,1,2.6,2.4
		c0,1.4-1.1,2.4-2.6,2.4C24-107.5,22.5-107.5,21-107.5z"/>
	<path class="st0" d="M21-98c-1.5,0-3.1,0-4.6,0c-1.5,0-2.5-1-2.6-2.3c0-1.4,1-2.4,2.6-2.4c3,0,6.1,0,9.1,0c1.5,0,2.5,1,2.6,2.3
		c0,1.4-1,2.4-2.6,2.4C24-98,22.5-98,21-98z"/>
</g>
<g>
	<path class="st0" d="M215-123.7c0.2-1.3,0.4-2.5,0.7-3.8c2.5-9.8,10.5-15.8,20.9-15.6c1.8,0,1.8,0,2.4-1.6
		c3.7-10,13.5-15.8,24.1-14.3c7.8,1.1,13.9,5,17.5,12.2c1.5,3,2,6.1,2.1,9.4c0,0.3,0,0.7,0,1c1,0.4,2,0.6,3,1.1
		c6.6,2.9,10.7,9.7,10.3,17.1c-0.4,6.8-3.5,11.9-9.7,15c-1.3,0.6-2.4,0.5-3.4-0.5c-1-1-1.4-2.5-0.8-3.6c0.2-0.5,0.7-1,1.2-1.2
		c5-2.5,7.5-8.2,6-13.4c-1.5-5.1-6.8-8.8-12.2-8.2c-1.3,0.1-2.7,0.7-3.9,1.2c-2.3,1-4.5,0-5-2.4c-0.3-1.3,0.2-2.3,1.2-3
		c1.6-1.3,3.6-1.8,5.6-2.2c0.4-0.1,0.9-0.1,1.3-0.2c0.4-7-4.4-14-12.9-15.8c-8.6-1.8-16.5,2.9-18.5,10.9c0.2,0.1,0.5,0.2,0.7,0.4
		c0.8,0.5,1.8,1,2.5,1.7c1.6,1.5,1.6,3.5-0.1,4.9c-0.5,0.4-1.5,0.7-2.1,0.6c-1.1-0.2-2.2-0.9-3.3-1.3c-5.4-2.4-10.7-2.2-15.5,1.4
		c-7.3,5.7-7.3,18.1,0.8,23.3c1.6,1,2.1,2.5,1.4,4.1c-0.8,2.1-2.8,2.7-4.7,1.6c-5-3.1-7.8-7.6-8.9-13.3c-0.2-0.8-0.3-1.6-0.4-2.4
		C215-121.6,215-122.6,215-123.7z"/>
	<path class="st0" d="M235.3-87.8c-1.8-0.6-2.5-1.9-2.5-3.8c0-8.3,0-16.6,0-24.9c0-2.7,1.1-3.8,3.8-3.8c4,0,8,0,12,0
		c2.4,0,3.7,1.3,3.7,3.7c0,8.3,0,16.6,0,25c0,1.9-0.6,3.2-2.5,3.8C245.1-87.8,240.2-87.8,235.3-87.8z M239.4-94.4c2.2,0,4.3,0,6.4,0
		c0-6.5,0-13,0-19.4c-2.2,0-4.3,0-6.4,0C239.4-107.2,239.4-100.8,239.4-94.4z"/>
	<path class="st0" d="M261.3-87.8c-1.8-0.6-2.5-1.9-2.5-3.8c0-8.3,0-16.6,0-24.9c0-2.7,1.1-3.8,3.8-3.8c4,0,8,0,12,0
		c2.4,0,3.7,1.3,3.7,3.7c0,8.3,0,16.6,0,25c0,1.9-0.6,3.2-2.5,3.8C271.1-87.8,266.2-87.8,261.3-87.8z M271.8-94.3c0-6.5,0-13,0-19.4
		c-2.2,0-4.3,0-6.4,0c0,6.5,0,12.9,0,19.4C267.6-94.3,269.7-94.3,271.8-94.3z"/>
</g>
<path class="st0" d="M411.6-166.4c-0.4,1.9-1.6,3.2-3,4.5c-0.8,0.7-1.5,1.4-2.2,2.2c-2.1,2.2-4.5,2.7-7.3,1.4
	c-0.2,0.2-0.3,0.5-0.5,0.7c-3,4.6-6,9.2-9,13.9c-1.2,1.9-2.8,3.3-4.4,4.9c-0.5,0.5-0.7,1-0.7,1.7c0,6.7,0,13.4,0,20.1
	c0,0.3,0,0.6,0,1c1.4,0,2.8,0,4.1,0c1.8,0,3,1.8,2.4,3.4c-0.4,1-1.1,1.5-2.2,1.6c-0.3,0-0.5,0-0.8,0c-18.2,0-36.3,0-54.5,0
	c-0.4,0-0.7,0-1.1-0.1c-1.2-0.3-2.1-1.4-2-2.6c0.1-1.3,1.1-2.3,2.4-2.3c1.4,0,2.8,0,4.3,0c0-0.4,0-0.7,0-1c0-9.3,0-18.6,0-27.9
	c0-2.2,0.9-3.1,3.1-3.1c2.3,0,4.7,0,7.1,0c-0.3-1.1-0.6-2.1-0.9-3.2c-2.4-10.5,3.7-21.7,14-25c4.4-1.4,8.9-2.4,13.3-3.5
	c1.1-0.3,2.3-0.6,3.5-0.9c-0.1-0.6-0.1-1.2-0.1-1.8c0-1.6,0.6-2.9,1.7-4c1.2-1.2,2.4-2.4,3.6-3.6c0.9-0.9,2.1-1.4,3.3-1.8
	c0.6,0,1.3,0,1.9,0c1.8,0.4,3.1,1.6,4.4,2.9c5.5,5.5,11,11,16.5,16.5c1.3,1.2,2.4,2.5,2.8,4.3C411.6-167.7,411.6-167,411.6-166.4z
	 M395.3-161.8c-0.2-0.2-0.4-0.4-0.5-0.6c-4.4-4.5-8.9-8.9-13.3-13.4c-0.4-0.4-0.8-0.6-1.4-0.4c-5.3,1.4-10.7,2.7-16.1,4.1
	c-3.3,0.8-6.1,2.5-8.4,4.9c-4.6,4.9-5.7,12.4-2.8,18.3c0.2,0.5,0.5,0.7,1.1,0.7c0.8,0,1.7,0,2.5,0c0.5,0,0.9-0.1,1.1-0.6
	c0.5-1,1.1-2,1.7-3c4.3-7.1,14.3-7.4,19-0.6c1.2,1.7,1.1,2.7-0.4,4.2c-4.1,4.1-8.1,8.2-12.2,12.3c-0.3,0.3-0.6,0.6-0.8,0.9
	c-1.4,2-0.6,4.6,1.7,5.3c1.5,0.4,2.7-0.1,3.7-1.1c4.6-4.7,9.3-9.5,14-14.2c0.2-0.2,0.4-0.4,0.5-0.6
	C388.4-151.1,391.8-156.4,395.3-161.8z M379.6-133c-0.3,0.3-0.5,0.5-0.7,0.6c-1.7,1.7-3.3,3.4-5,5.1c-2.2,2.2-4.8,3.1-7.9,2.5
	c-6.3-1.2-8.9-8.4-5-13.5c0.9-1.2,2.1-2.2,3.2-3.3c0.5-0.5,1-0.9,1.4-1.3c-0.1-0.1-0.1-0.1-0.2-0.2c-7.7,0-15.3,0-23,0
	c0,9,0,17.9,0,26.9c12.4,0,24.7,0,37.1,0C379.6-121.8,379.6-127.3,379.6-133z M387-187.1c-0.3,0.2-0.6,0.3-0.8,0.5
	c-1.1,1.1-2.2,2.2-3.4,3.4c-0.6,0.6-0.6,1,0,1.6c6.1,6.1,12.1,12.2,18.2,18.4c0.6,0.7,1,0.7,1.7,0c1.1-1.1,2.1-2.1,3.2-3.2
	c0.9-0.9,0.9-1.1,0-2c-3.4-3.4-6.7-6.7-10.1-10.1c-2.6-2.6-5.3-5.3-7.9-7.9C387.6-186.6,387.3-186.8,387-187.1z M373.3-150.5
	c-3.2-3.1-8.7-1.8-10.1,2.3c0.1,0,0.1,0.1,0.2,0.1c2.3,0,4.7,0,7,0c0.2,0,0.4-0.1,0.6-0.2C371.8-149.1,372.5-149.8,373.3-150.5z"/>
<g>
	<path class="st0" d="M-108.6-119.5c-0.4-0.2-0.9-0.3-1.3-0.5c-4.7-2.6-9.5-5.2-14.2-7.9c-1.5-0.8-1.8-2.1-0.8-3.5
		c4.8-6.9,9.6-13.8,14.4-20.6c1-1.5,2.8-1.5,3.8,0c4.9,6.9,9.7,13.9,14.5,20.8c0.9,1.3,0.6,2.6-0.8,3.3c-4.8,2.7-9.6,5.3-14.4,8
		C-107.7-119.8-108.1-119.7-108.6-119.5z M-106.5-125.2c3.3-1.8,6.5-3.6,9.7-5.4c-3.2-4.6-6.4-9.2-9.7-13.9
		C-106.5-138-106.5-131.7-106.5-125.2z M-110.5-144.3c-0.1,0-0.1,0-0.2-0.1c-3.2,4.6-6.4,9.1-9.6,13.7c3.3,1.8,6.5,3.6,9.7,5.4
		C-110.5-131.7-110.5-138-110.5-144.3z"/>
	<path class="st0" d="M-108.3-89.2c-1.1-0.1-1.7-0.6-2.1-1.5c-3-5.7-5.9-11.4-8.9-17c-1.7-3.3-3.4-6.5-5.1-9.8
		c-0.8-1.5,0-3.1,1.6-3.2c0.5,0,1,0.1,1.4,0.3c4.1,1.6,8.2,3.1,12.2,4.7c0.6,0.3,1.2,0.2,1.8,0c4-1.4,8.1-2.9,12.1-4.3
		c1.4-0.5,2.8,0.2,3,1.6c0.1,0.5,0,1.1-0.3,1.5c-4.6,8.8-9.2,17.6-13.8,26.4C-106.8-89.7-107.5-89.3-108.3-89.2z M-110.7-100.3
		c0.1,0,0.1,0,0.2,0c0-3.6,0-7.3,0-10.9c0-0.2-0.3-0.6-0.6-0.7c-2-0.8-4.1-1.6-6.1-2.4c-0.3-0.1-0.5-0.2-1-0.4
		C-115.6-109.8-113.2-105-110.7-100.3z M-98.7-114.3c-2.5,0.9-4.8,1.7-7,2.5c-0.2,0.1-0.5,0.5-0.5,0.8c0,3.4,0,6.8,0,10.2
		c0,0.2,0.1,0.3,0.1,0.7C-103.6-104.9-101.2-109.5-98.7-114.3z"/>
	<path class="st0" d="M-59.5-129.5c-4.2,0-8.4,0-12.6,0c-0.4,0-0.8,0-1.2-0.2c-0.8-0.3-1.2-1.1-1.2-1.9c0.1-0.8,0.7-1.4,1.5-1.6
		c0.3-0.1,0.7-0.1,1-0.1c8.3,0,16.6,0,24.9,0c0.1,0,0.2,0,0.3,0c1.4,0,2.2,0.8,2.2,1.9c0,1.1-0.9,1.8-2.2,1.8
		C-50.9-129.5-55.2-129.5-59.5-129.5z"/>
	<path class="st0" d="M-59.5-148c4.2,0,8.4,0,12.6,0c0.4,0,0.8,0,1.1,0.1c0.8,0.2,1.3,1,1.2,1.8c0,0.8-0.5,1.5-1.3,1.7
		c-0.4,0.1-0.8,0.1-1.2,0.1c-8.3,0-16.6,0-24.9,0c-0.2,0-0.5,0-0.7,0c-1.1-0.1-1.8-0.9-1.8-1.9c0-1,0.8-1.8,1.9-1.8
		c1.4,0,2.9,0,4.3,0C-65.3-148-62.4-148-59.5-148z"/>
	<path class="st0" d="M-59.5-103.7c4.2,0,8.4,0,12.6,0c0.4,0,0.8,0,1.2,0.2c0.8,0.3,1.2,0.9,1.2,1.7c0,0.8-0.5,1.4-1.2,1.7
		c-0.4,0.1-0.8,0.1-1.3,0.1c-8.3,0-16.6,0-24.9,0c-0.2,0-0.5,0-0.7,0c-1.1-0.1-1.8-0.9-1.8-1.9c0-1,0.8-1.8,1.9-1.8
		c1.5,0,3.1,0,4.6,0C-65.1-103.7-62.3-103.7-59.5-103.7z"/>
	<path class="st0" d="M-59.5-114.7c-4.1,0-8.2,0-12.3,0c-0.3,0-0.7,0-1,0c-0.9-0.1-1.6-0.9-1.5-1.9c0-0.9,0.7-1.6,1.6-1.8
		c0.2,0,0.5,0,0.7,0c8.4,0,16.9,0,25.3,0c0.3,0,0.5,0,0.8,0c0.9,0.1,1.5,0.9,1.5,1.8c0,0.9-0.6,1.7-1.5,1.8c-0.7,0.1-1.3,0.1-2,0.1
		C-51.8-114.7-55.7-114.7-59.5-114.7z"/>
	<path class="st0" d="M-87.6-146.1c0-2.9,2.3-5.1,5.3-5.1c2.9,0,5.2,2.3,5.1,5.2c0,2.9-2.4,5.2-5.3,5.1
		C-85.3-140.9-87.6-143.2-87.6-146.1z M-82.3-147.6c-0.8,0-1.5,0.6-1.6,1.4c0,0.8,0.6,1.5,1.4,1.5c0.9,0,1.6-0.6,1.6-1.4
		C-80.9-146.9-81.5-147.5-82.3-147.6z"/>
	<path class="st0" d="M-87.6-116.6c0-2.9,2.3-5.2,5.2-5.2c2.8,0,5.2,2.3,5.2,5.1c0,2.9-2.3,5.3-5.2,5.3
		C-85.3-111.4-87.6-113.7-87.6-116.6z M-82.4-118.1c-0.8,0-1.5,0.6-1.5,1.4c0,0.8,0.6,1.5,1.5,1.5c0.9,0,1.6-0.6,1.6-1.5
		C-80.9-117.4-81.5-118.1-82.4-118.1z"/>
	<path class="st0" d="M-87.6-101.9c0-2.9,2.3-5.2,5.2-5.2c2.9,0,5.2,2.3,5.2,5.2c0,2.8-2.3,5.1-5.2,5.1
		C-85.3-96.7-87.6-99-87.6-101.9z M-80.9-101.9c0-0.8-0.7-1.5-1.5-1.5c-0.9,0-1.6,0.7-1.5,1.5c0,0.8,0.7,1.4,1.6,1.4
		C-81.5-100.4-80.8-101.1-80.9-101.9z"/>
	<path class="st0" d="M-82.4-126.2c-2.9,0-5.2-2.3-5.2-5.2c0-2.9,2.3-5.2,5.2-5.2c2.8,0,5.2,2.3,5.2,5.2
		C-77.2-128.5-79.4-126.2-82.4-126.2z M-82.4-132.8c-0.8,0-1.5,0.6-1.5,1.4c0,0.8,0.7,1.5,1.6,1.5c0.8,0,1.5-0.7,1.5-1.5
		C-80.9-132.2-81.5-132.8-82.4-132.8z"/>
</g>
<g>
	<g>
		<path class="st0" d="M59.5,76.7c-17.8,0-35.7,0-53.5,0c-0.3-0.1-0.6-0.2-0.9-0.3C3.4,75.8,2,74.1,2,72.6c0-13.6,0-27.2,0-40.8
			c0-0.4,0.1-0.8,0.3-1.2c0.8-1.8,2.3-2.8,4.3-2.9c1.6-0.1,3.3,0,4.8,0c0.1-0.2,0.1-0.2,0.1-0.3c0-1.6,0-3.1,0-4.7
			c0-2.2,1.5-4.1,3.7-4.6c0.6-0.1,1.3-0.1,1.9-0.2c1.3,0,2.7,0,4.1,0c0-1.6,0-3.1,0-4.5c0-3.1,2-5.1,5.1-5.1c5.5,0,10.9,0,16.4,0
			c2.1,0,3.7,1,4.6,2.9c0.8,1.6,1.6,3.2,2.4,4.8c0.3,0.7,0.7,0.9,1.5,0.9c8.9,0,17.7,0,26.6,0c2.6,0,4.3,1.3,5.1,3.8
			c0,0.1,0.1,0.2,0.1,0.3c0,10.8,0,21.6,0,32.5c-0.1,0.2-0.2,0.5-0.3,0.7c-0.7,1.9-2.4,3.2-4.4,3.2c-0.8,0-1.7,0-2.5,0
			c-0.8,0-1.6,0-2.4,0c0,1.7,0,3.3,0,4.9c0,2.2-1.6,4.2-3.8,4.5c-1.4,0.2-2.9,0.1-4.3,0.2c-0.5,0-1,0-1.5,0c0,1.7,0,3.3,0,4.9
			c-0.1,2.1-1.2,3.5-3,4.3C60.3,76.5,59.9,76.6,59.5,76.7z M6.7,71.9c17.4,0,34.8,0,52.2,0c0-10.3,0-20.6,0-30.9c-0.4,0-0.7,0-1,0
			c-8.9,0-17.7,0-26.6,0c-2.2,0-3.8-1-4.8-3c-0.8-1.6-1.6-3.3-2.4-4.9c-0.2-0.5-0.5-0.7-1.1-0.7c-5.1,0-10.3,0-15.4,0
			c-0.3,0-0.5,0-0.8,0C6.7,45.6,6.7,58.7,6.7,71.9z M78.2,21.7c-0.4,0-0.7,0-1.1,0c-8.8,0-17.6,0-26.4,0c-2.3,0-4-1-5-3.1
			c-0.8-1.6-1.6-3.3-2.4-4.9C43,13.2,42.7,13,42.2,13c-5.1,0-10.3,0-15.4,0c-0.3,0-0.5,0-0.8,0c0,1.6,0,3.2,0,4.8c2.4,0,4.7,0,7.1,0
			c2.1,0,3.7,1,4.6,2.9c0.8,1.7,1.7,3.3,2.5,5c0.3,0.5,0.6,0.7,1.1,0.7c8.9,0,17.7,0,26.6,0c3.4,0,5.4,2,5.4,5.4
			c0,6.6,0,13.2,0,19.8c0,0.3,0,0.6,0,0.9c1.7,0,3.3,0,4.9,0C78.2,42.3,78.2,32,78.2,21.7z M68.5,31.3c-0.4,0-0.7,0-1,0
			c-8.8,0-17.6,0-26.4,0c-2.5,0-4.2-1-5.2-3.2c-0.7-1.6-1.6-3.1-2.3-4.7c-0.2-0.5-0.5-0.7-1.1-0.7c-5.1,0-10.3,0-15.4,0
			c-0.3,0-0.5,0-0.7,0c0,1.6,0,3.2,0,4.8c2.4,0,4.7,0,7.1,0c2.1,0,3.7,1,4.6,2.9c0.8,1.7,1.7,3.3,2.5,5c0.3,0.5,0.6,0.7,1.1,0.7
			c8.9,0,17.7,0,26.6,0c3.1,0,5.5,2.2,5.4,5.4c-0.1,6.6,0,13.1,0,19.7c0,0.3,0,0.6,0,1c1.7,0,3.2,0,4.8,0
			C68.5,51.9,68.5,41.7,68.5,31.3z"/>
	</g>
	<g>
		<path class="st0" d="M31.9,57.2c-0.2-0.1-0.3-0.1-0.5-0.2c-1.7-1-3.5-1.9-5.2-2.9c-0.6-0.3-0.7-0.8-0.3-1.3
			c1.8-2.5,3.5-5.1,5.3-7.6c0.4-0.5,1-0.6,1.4,0c1.8,2.5,3.6,5.1,5.4,7.7c0.3,0.5,0.2,0.9-0.3,1.2c-1.8,1-3.5,2-5.3,2.9
			C32.2,57.1,32,57.1,31.9,57.2z M32.6,55.1c1.2-0.7,2.4-1.3,3.6-2c-1.2-1.7-2.4-3.4-3.6-5.1C32.6,50.4,32.6,52.7,32.6,55.1z
			 M31.1,48.1C31.1,48,31.1,48,31.1,48.1c-1.2,1.6-2.4,3.3-3.6,5c1.2,0.7,2.4,1.3,3.6,2C31.1,52.7,31.1,50.4,31.1,48.1z"/>
		<path class="st0" d="M31.9,68.3c-0.4,0-0.6-0.2-0.8-0.5c-1.1-2.1-2.2-4.2-3.3-6.3c-0.6-1.2-1.3-2.4-1.9-3.6
			c-0.3-0.6,0-1.1,0.6-1.2c0.2,0,0.4,0,0.5,0.1c1.5,0.6,3,1.2,4.5,1.7c0.2,0.1,0.4,0.1,0.7,0c1.5-0.5,3-1.1,4.5-1.6
			c0.5-0.2,1,0.1,1.1,0.6c0,0.2,0,0.4-0.1,0.5c-1.7,3.2-3.4,6.5-5.1,9.7C32.5,68.1,32.3,68.3,31.9,68.3z M31.1,64.2
			C31.1,64.2,31.1,64.2,31.1,64.2c0.1-1.4,0.1-2.7,0.1-4c0-0.1-0.1-0.2-0.2-0.2c-0.7-0.3-1.5-0.6-2.2-0.9c-0.1,0-0.2-0.1-0.4-0.1
			C29.3,60.8,30.2,62.5,31.1,64.2z M35.5,59.1c-0.9,0.3-1.8,0.6-2.6,0.9c-0.1,0-0.2,0.2-0.2,0.3c0,1.2,0,2.5,0,3.7
			c0,0.1,0,0.1,0,0.2C33.7,62.5,34.6,60.8,35.5,59.1z"/>
	</g>
</g>
</svg>
