<?xml version="1.0" encoding="utf-8"?>
<!-- Generator: Adobe Illustrator 26.3.1, SVG Export Plug-In . SVG Version: 6.00 Build 0)  -->
<svg version="1.1" id="Layer_2_00000075123734403400969080000006971870400976850084_"
	 xmlns="http://www.w3.org/2000/svg" xmlns:xlink="http://www.w3.org/1999/xlink" x="0px" y="0px" viewBox="0 0 471.4 471.5"
	 style="enable-background:new 0 0 471.4 471.5;" xml:space="preserve">
<style type="text/css">
	.st0{fill:#CE00BC;}
	.st1{fill:#FFFFFF;}
</style>
<g id="Layer_1-2">
	<g>
		<path class="st0" d="M-203.1,157.9c-1,3.3-1.8,6.7-2.9,10c-7.9,24.7-29.8,41.5-56.2,42c-30.5,0.5-61.1,0.6-91.6,0
			c-33-0.7-58.5-26.4-59-59.4c-0.5-30.4-0.6-60.8,0-91.1c0.6-33.7,27.1-59.1,60.9-59.2c29.1-0.2,58.1-0.1,87.2,0
			c31.1,0.1,54.7,19.8,60.7,50.3c0.1,0.7,0.6,1.3,0.9,1.9V157.9z M-307.8,35.6c-14.3,0-28.5,0-42.8,0c-16.4,0-26.8,10.4-26.8,26.7
			c-0.1,28.5-0.1,57.1,0,85.6c0,16,10.5,26.5,26.5,26.5c28.7,0.1,57.4,0.1,86.1,0c15.7-0.1,26.2-10.5,26.2-26.2
			c0.1-28.9,0.1-57.8,0-86.7c0-15.3-10.6-25.8-25.8-25.9C-279,35.6-293.4,35.6-307.8,35.6L-307.8,35.6z"/>
		<path class="st0" d="M-360.9,471.5c-5.4-1.8-11-3-16.1-5.4c-22.6-10.7-35.1-28.8-35.7-53.8c-0.8-30.5-0.7-61.1,0-91.7
			c0.7-32.8,26.1-58.3,58.9-59c30.5-0.6,61.1-0.6,91.7,0c29.3,0.5,52.5,20.8,58.1,49.5c0.2,0.9,0.7,1.6,1,2.4v105.6
			c-0.4,1.2-0.9,2.4-1.1,3.5c-5.3,22.9-18.9,38.2-41.1,45.9c-3.3,1.1-6.6,1.9-10,2.8L-360.9,471.5L-360.9,471.5z M-238.6,366.7
			c0-14.3,0-28.5,0-42.8c0-16.4-10.3-26.8-26.7-26.8c-28.3-0.1-56.7,0-85,0c-16.8,0-27.1,10.3-27.1,27c0,28.3-0.1,56.7,0,85
			c0,16.4,10.4,26.8,26.7,26.8c28.5,0,57,0,85.6,0c16,0,26.4-10.4,26.5-26.4C-238.6,395.2-238.6,381-238.6,366.7L-238.6,366.7z"/>
		<path class="st0" d="M-622.1,471.5c-7.4-2.7-15.3-4.5-22-8.4c-19.6-11.4-29.8-29-30.1-51.6c-0.4-29.8-0.3-59.6,0-89.4
			c0.2-33,25.2-59.4,58.1-60.2c31.1-0.8,62.2-0.8,93.3,0c32.3,0.8,57.4,26,58.2,58.4c0.8,30.9,0.7,61.9,0,92.8
			c-0.6,29.1-20.9,51.9-49.4,57.5c-0.9,0.2-1.6,0.7-2.4,1L-622.1,471.5L-622.1,471.5z M-569.9,435.9c14.3,0,28.5,0,42.8,0
			c16.8,0,27-10.2,27.1-27c0.1-28.4,0.1-56.7,0-85c0-16.5-10.3-26.8-26.7-26.8c-28.5-0.1-57-0.1-85.6,0c-16.1,0-26.5,10.5-26.5,26.4
			c0,28.7,0,57.4,0,86.1c0,15.7,10.5,26.1,26.1,26.2C-598.4,436-584.1,435.9-569.9,435.9L-569.9,435.9z"/>
		<path class="st0" d="M-674.4,104.8c0-14.3-0.1-28.5,0-42.8c0.2-35.6,26.2-61.8,61.7-61.9c28.9-0.1,57.8-0.1,86.7,0
			c34.9,0.2,61.1,26,61.5,61c0.3,29.3,0.3,58.5,0,87.8c-0.3,34.7-26.3,60.7-60.9,61.1c-29.2,0.3-58.5,0.3-87.8,0
			c-35.2-0.3-61-26.6-61.2-61.9C-674.4,133.6-674.4,119.2-674.4,104.8z M-638.8,105c0,14.6-0.1,29.3,0,43.9
			c0.1,14.7,10.5,25.4,25.1,25.6c29.5,0.2,58.9,0.2,88.3,0c14.7-0.1,25.2-10.6,25.3-25.4c0.2-29.3,0.2-58.6,0-87.8
			c-0.1-15-10.7-25.5-25.7-25.5c-29.1-0.1-58.2-0.1-87.2,0c-15.3,0-25.8,10.6-25.8,25.9C-638.9,76.1-638.8,90.5-638.8,105
			L-638.8,105z"/>
	</g>
</g>
<g id="Layer_1-2_00000002382919876567094350000018324145427089183119_">
	<path class="st0" d="M-420.3,986.9h-23.9c-1.2-0.3-2.3-0.7-3.5-0.8c-28.9-2.7-55.2-12.5-78.2-30.1c-40.5-30.9-61.8-73-69.9-122.5
		c-1.3-7.7-1.9-15.5-2.8-23.2v-18.4c0.2-1.3,0.6-2.7,0.7-4c0.9-18.5,4.6-36.4,9.5-54.2c3.1-11.2,10.6-15,21.3-10.7
		c14.2,5.8,28.3,11.6,42.5,17.4c1.3,0.5,2.7,0.9,4.4,1.5c-0.2-2-0.2-3.3-0.4-4.7c-5.4-35.9-2.5-70.9,10.4-104.9
		c19.3-50.9,55.4-87,101.1-114.5c8.9-5.4,19.3,0.3,20.4,10.7c2.3,21.4,6.2,42.4,12.8,62.9c4,12.3,8.9,24.3,13.5,37
		c2.3-1.8,3.6-2.9,4.9-3.9c13.3-10.5,28-18,44.9-20.8c12.4-2.1,20.4,6.9,16.7,18.9c-4.5,14.5-4.8,29.3-3.4,44.2
		c2.8,30.4,10.9,59.6,22,87.9c12.2,31.3,15.7,63.3,10.7,96.5c-10.4,68.8-56.8,117.8-124.7,131.3
		C-400.9,984.2-410.6,985.4-420.3,986.9L-420.3,986.9z M-564.9,753.8c-17.8,67.7,6.2,142.4,50.6,175.6c0.1-0.1,0.2-0.3,0.2-0.4
		c-0.3-1-0.5-2.1-0.9-3.1c-7.2-22.5-6.4-45,0.3-67.4c2.9-9.8,14.1-13.2,21.8-6.6c7.4,6.3,15.8,9,25.3,9.4
		c19.5,0.8,30.9-6.3,38.6-24.2c2.1-4.9,3.8-10,5.1-15.2c4.6-18.9,5.9-38.1,4.8-57.5c-0.4-7,3.2-12.4,9-14.6c6-2.2,12.4-0.3,16.2,5.4
		c18.5,27.6,34.9,56.2,44.3,88.3c6,20.8,9.7,42,5.5,63.5c-2.2,11.3-6.7,22.1-10.1,32.7c0.3-0.1,1.4-0.7,2.5-1.3
		c15.3-9.1,27.9-21.1,37.1-36.3c26.5-43.7,29.7-89.6,11.7-137.1c-9.2-24.4-16.6-49.3-21-75c-2.9-17.3-4.3-34.6-3-52.6
		c-1.6,0.8-3,1.2-4,2c-7.6,6.4-15.5,12.4-22.5,19.5c-8.5,8.6-18.5,8-24.6-2.5c-10.6-18.2-18.9-37.4-24.7-57.7
		c-4.2-14.6-7.6-29.5-11.3-44.6c-0.7,0.5-1.8,1-2.7,1.7c-9.2,7.9-18.9,15.3-27.3,23.8c-33.9,34.3-51.2,75.6-51.6,123.9
		c-0.1,19.4,2.7,38.5,8.5,57c1.8,5.6,0.9,10.7-3.5,14.8c-4.3,4.1-9.5,4.7-14.9,2.7c-3.4-1.3-6.8-2.8-10.2-4.1
		C-532,767.3-548.2,760.6-564.9,753.8L-564.9,753.8z M-492.7,885.9c0.5,6.8,0.3,14.7,1.8,22.3c4.3,21.6,14.8,39,36.1,47.5
		c27.5,11,59.9-1.9,74.9-29c9.3-16.8,11.2-34.6,8.5-53.4c-3.2-22.3-11.3-42.7-22-63.5c-0.5,2.8-0.7,4.6-1.2,6.3
		c-3.5,11.7-6,23.8-10.8,34.9c-10.5,24.2-29.6,37-56,37.5C-471.5,888.7-481.6,886.9-492.7,885.9L-492.7,885.9z"/>
</g>
<g id="Layer_1-2_00000000188290377758919970000002526925769173527428_">
	<path class="st1" d="M59,66.1c1.5-8.3,2.3-16.9,4.7-24.9C71.2,16.7,93.3,1,117.4,2.4c21.8,1.3,41.1,16.4,48.1,39.2
		c2.8,9.1,3.9,19,4.2,28.6c0.6,20.2,0.2,40.4,0.2,60.6c0,1.6,0,3.3,0,5.6c26.3-9.2,49.2-4.5,68.8,15.7c12.6-9.8,27-14,43-12.2
		c15.8,1.8,28.7,9.1,37.9,20.8c8.6-3.2,16.4-7.2,24.7-8.9c33.5-6.6,66.7,14.4,67.5,50.6c0.9,39.6,1.5,79.4-0.6,118.9
		c-2.1,40.1-18.9,75-46,104.7c-6.2,6.8-15.9,7.2-22.5,1.4c-6.7-5.8-7.4-15-1.8-22.5c6.7-9,13.9-17.7,19.7-27.2
		c12.7-20.9,18.9-44,19.1-68.5c0.3-34.2,0.2-68.4,0.1-102.6c0-11.5-5.2-18.8-14.8-22.3c-10.2-3.7-22-1-28.4,6.6
		c-3.7,4.4-4.9,9.6-5.1,15.2c-0.2,6.4-2.7,11.5-8.4,14.7c-9.8,5.5-22.1-0.4-23.6-11.6c-0.6-4.9-0.5-10-0.8-15
		c-0.9-13-10.3-22.1-23-22.4c-13.4-0.3-23.1,8.1-24.6,21.2c-0.3,2.4-0.4,4.8-0.7,7.3c-0.9,8.2-8.1,14.5-16.3,14.2
		c-8.3-0.3-15.1-6.7-15.6-14.9c-0.3-5.1-0.2-10.4-0.8-15.4c-1.6-12.2-11.9-20.6-24.1-20.1c-13.1,0.6-22.3,9.1-23.3,21.6
		c-0.2,2.4-0.3,4.9-0.8,7.2c-1.3,7.4-7.4,12.7-14.9,13c-7.8,0.3-14.4-4.4-16.2-11.9c-0.6-2.5-0.8-5.1-0.8-7.7
		c-0.1-38.8-0.1-77.5,0-116.2c0-8.6-0.8-17-5.5-24.5c-4.4-7-10.5-11.3-19.2-10.7c-8.7,0.7-14.2,6-17.2,13.6c-1.9,4.7-2.7,9.9-3.6,15
		c-0.5,2.8-0.2,5.8-0.2,8.6c0,77.2,0.1,154.4,0,231.6c0,35.7,10.9,67.4,33.7,94.9c13.1,15.8,28.9,28.2,47.4,37c2.1,1,4.7,1.2,7,1.2
		c55.6,0.1,111.2,0,166.7,0.1c3,0,6.1,0.1,9,0.8c6.3,1.7,10.7,7.4,11.3,14c0.6,6.2-2.9,12.4-8.5,15.5c-1.3,0.7-2.7,1.3-4,2H120
		c-1.3-0.7-2.6-1.4-3.8-2.1c-8.9-5.1-10.9-17.1-4-24.6c1.7-1.8,3.8-3.2,6-5c-0.9-0.7-1.6-1.3-2.3-1.9c-30-28.2-48.3-62.6-54.4-103.4
		c-1.2-7.7-1.7-15.6-2.5-23.4C59,227.8,59,147,59,66.1L59,66.1z"/>
</g>
</svg>
